<?xml version="1.0" encoding="UTF-8"?>
<svg width="1410px" height="250px" viewBox="0 0 1410 250" version="1.1" xmlns="http://www.w3.org/2000/svg" xmlns:xlink="http://www.w3.org/1999/xlink">
    <!-- Generator: Sketch 52.5 (67469) - http://www.bohemiancoding.com/sketch -->
    <title>Artboard</title>
    <desc>Created with Sketch.</desc>
    <defs>
        <polygon id="path-1" points="0.000475514019 0.79375 143.681791 0.79375 143.681791 196.567981 0.000475514019 196.567981"></polygon>
        <polygon id="path-3" points="1.20471477 1.79298125 143.272374 1.79298125 143.272374 194.749231 1.20471477 194.749231"></polygon>
    </defs>
    <g id="Artboard" stroke="none" stroke-width="1" fill="none" fill-rule="evenodd">
        <g id="Group-21" transform="translate(69.000000, 3.000000)">
            <g id="Group-3" transform="translate(0.000000, 0.769519)">
                <mask id="mask-2" fill="white">
                    <use xlink:href="#path-1"></use>
                </mask>
                <g id="Clip-2"></g>
                <path d="M72.9918774,0.79298125 C62.2856793,0.79298125 52.3593241,2.66104375 43.4886101,6.34591875 C34.5513241,10.0564188 26.7742923,15.7041688 20.3691185,23.1379813 C13.9900979,30.5436063 8.94013907,39.9454188 5.36189607,51.0769188 C1.80505121,62.1392313 0.000475514019,75.1387938 0.000475514019,89.7117313 L0.000475514019,107.649231 C0.000475514019,122.227294 1.80505121,135.226856 5.36189607,146.286606 C8.9377615,157.415544 13.9853428,166.814794 20.3691185,174.222981 C26.7742923,181.656794 34.5513241,187.307106 43.4886101,191.015044 C52.3593241,194.699919 62.2856793,196.567981 72.9918774,196.567981 C113.308333,196.567981 136.977044,174.458731 143.339421,130.852669 L143.681791,128.495169 L141.522958,127.957044 L94.214068,116.172106 L91.6819559,115.541731 L91.3229428,118.314356 C90.5430998,124.338794 89.6039596,129.484294 88.5340531,133.609919 C87.4879222,137.633044 86.2539634,140.907919 84.8725951,143.339731 C83.6029727,145.574231 82.0741951,147.198856 80.338569,148.167481 C78.5506363,149.166856 76.3157204,149.674231 73.7051484,149.674231 C67.7968867,149.674231 63.9975297,147.047669 61.7412157,141.407606 C59.2685428,135.214044 58.0131858,126.329856 58.0131858,115.001044 L58.0131858,82.3624813 C58.0131858,71.0106063 59.1948381,62.1110438 61.5248568,55.9072313 C63.6266288,50.2979188 67.2714437,47.6867313 72.9918774,47.6867313 C77.9277129,47.6867313 81.356169,49.8699813 83.4722064,54.3569188 C85.8616643,59.4332313 87.7019036,68.1482938 88.9358624,80.2561063 L89.225926,83.1107313 L91.8269877,82.4726688 L141.040311,70.4289188 L143.187257,69.9036063 L142.866285,67.5537938 C141.575264,58.1724813 139.40692,49.3805438 136.418315,41.4291063 C133.377403,33.3546688 129.050225,26.1873563 123.550905,20.1296063 C118.020677,14.0462313 111.013978,9.24410625 102.721014,5.86160625 C94.4803559,2.49960625 84.4779185,0.79298125 72.9918774,0.79298125 M72.9918774,3.35548125 C84.2425391,3.35548125 93.8716979,4.99035625 101.876976,8.25754375 C109.882255,11.5221688 116.537074,16.0757313 121.850943,21.9233563 C127.157679,27.7684188 131.280386,34.5897938 134.214307,42.3900438 C137.143474,50.1928563 139.242868,58.7054813 140.51249,67.9304813 L91.2991671,79.9742313 C90.0271671,67.5076688 88.125111,58.5773563 85.5929989,53.1961063 C83.053754,47.8148563 78.8549652,45.1242313 72.9918774,45.1242313 C66.3346811,45.1242313 61.7745017,48.3991063 59.3208493,54.9462938 C56.8624419,61.4909188 55.6356157,70.6287938 55.6356157,82.3624813 L55.6356157,115.001044 C55.6356157,126.732169 56.9432793,135.872606 59.5586064,142.419794 C62.1739335,148.966981 66.888655,152.236731 73.7051484,152.236731 C76.7127746,152.236731 79.2900606,151.639669 81.4322512,150.442981 C83.5720643,149.251419 85.393283,147.329544 86.9006624,144.677356 C88.4032867,142.030294 89.7109503,138.573481 90.8236531,134.299231 C91.9316007,130.032669 92.8802512,124.817981 93.6767372,118.667981 L140.990382,130.455481 C134.8087,172.826419 112.140947,194.005481 72.9918774,194.005481 C62.530569,194.005481 52.9798699,192.211731 44.3421578,188.624231 C35.6996905,185.036731 28.2935596,179.655481 22.1118774,172.480481 C15.9301951,165.305481 11.0942176,156.298294 7.60869981,145.446106 C4.11842692,134.599044 2.37804561,121.999231 2.37804561,107.649231 L2.37804561,89.7117313 C2.37804561,75.3617313 4.11842692,62.7670438 7.60869981,51.9148563 C11.0942176,41.0677938 15.9301951,32.0554813 22.1118774,24.8804813 C28.2935596,17.7054813 35.6996905,12.3242313 44.3421578,8.73673125 C52.9798699,5.14923125 62.530569,3.35548125 72.9918774,3.35548125" id="Fill-1" fill="#C0E7DB" mask="url(#mask-2)"></path>
            </g>
            <path d="M210.17577,160.950512 C208.430633,160.950512 207.042132,160.553325 205.934185,159.733325 C204.850013,158.936387 203.910873,157.373262 203.14054,155.077262 C202.258461,152.468637 201.580854,148.835012 201.126738,144.278887 C200.665489,139.6177 200.427732,133.6727 200.427732,126.613012 L200.427732,117.900512 C200.427732,110.843387 200.665489,104.90095 201.126738,100.2372 C201.580854,95.6785125 202.258461,92.042325 203.14054,89.4362625 C203.910873,87.1453875 204.850013,85.5771375 205.931807,84.7827625 C207.04451,83.9627625 208.433011,83.5630125 210.17577,83.5630125 C211.916151,83.5630125 213.304652,83.9627625 214.424487,84.7827625 C215.501527,85.5797 216.440667,87.1453875 217.215755,89.4362625 C218.095456,92.042325 218.770686,95.6785125 219.227179,100.2372 C219.690805,104.924012 219.926185,110.86645 219.926185,117.900512 L219.926185,126.613012 C219.926185,133.6522 219.690805,139.594637 219.227179,144.278887 C218.770686,148.835012 218.095456,152.468637 217.215755,155.077262 C216.440667,157.3707 215.501527,158.936387 214.419732,159.733325 C213.309407,160.550762 211.920906,160.950512 210.17577,160.950512 M210.17577,47.6880125 C190.415785,47.6880125 174.842701,53.8995125 163.882102,66.1533875 C152.952413,78.3765125 147.410297,95.8732625 147.410297,118.156762 L147.410297,126.356762 C147.410297,148.6377 152.952413,166.13445 163.882102,178.360137 C174.842701,190.614012 190.415785,196.825512 210.17577,196.825512 C229.935755,196.825512 245.508839,190.614012 256.469437,178.360137 C267.399127,166.13445 272.94362,148.6377 272.94362,126.356762 L272.94362,118.156762 C272.94362,95.875825 267.399127,78.379075 256.469437,66.1533875 C245.508839,53.8995125 229.935755,47.6880125 210.17577,47.6880125 M210.17577,163.513012 C212.39642,163.513012 214.25568,162.959512 215.765437,161.847387 C217.268061,160.737825 218.497265,158.772387 219.448293,155.953637 C220.401699,153.134887 221.11497,149.3347 221.590484,144.550512 C222.06362,139.768887 222.303755,133.788012 222.303755,126.613012 L222.303755,117.900512 C222.303755,110.725512 222.06362,104.7472 221.590484,99.9630125 C221.11497,95.1813875 220.401699,91.3786375 219.448293,88.5598875 C218.497265,85.7411375 217.268061,83.7782625 215.765437,82.6661375 C214.25568,81.556575 212.39642,81.0005125 210.17577,81.0005125 C207.955119,81.0005125 206.093482,81.556575 204.58848,82.6661375 C203.081101,83.7782625 201.854274,85.7411375 200.905624,88.5598875 C199.952218,91.3786375 199.238947,95.1813875 198.763433,99.9630125 C198.287919,104.7472 198.050162,110.725512 198.050162,117.900512 L198.050162,126.613012 C198.050162,133.788012 198.287919,139.768887 198.763433,144.550512 C199.238947,149.3347 199.952218,153.134887 200.905624,155.953637 C201.854274,158.772387 203.081101,160.737825 204.58848,161.847387 C206.093482,162.959512 207.955119,163.513012 210.17577,163.513012 M210.17577,50.2505125 C229.35325,50.2505125 244.213063,56.1442625 254.755209,67.9317625 C265.297355,79.7192625 270.56605,96.4626375 270.56605,118.156762 L270.56605,126.356762 C270.56605,148.05345 265.297355,164.794262 254.755209,176.581762 C244.213063,188.369262 229.35325,194.263012 210.17577,194.263012 C190.998289,194.263012 176.138476,188.369262 165.59633,176.581762 C155.054185,164.794262 149.787867,148.05345 149.787867,126.356762 L149.787867,118.156762 C149.787867,96.4626375 155.054185,79.7192625 165.59633,67.9317625 C176.138476,56.1442625 190.998289,50.2505125 210.17577,50.2505125" id="Fill-4" fill="#C0E7DB"></path>
            <path d="M335.708618,47.8789188 L333.052872,48.2171688 L284.788199,54.3671688 L282.688804,54.6362313 L282.688804,56.9117313 L282.688804,191.699231 L282.688804,194.261731 L285.066375,194.261731 L333.331047,194.261731 L335.708618,194.261731 L335.708618,191.699231 L335.708618,91.7950438 C338.41667,90.4138563 341.1271,89.7142938 343.789978,89.7142938 C346.849911,89.7142938 348.918397,90.5214813 350.11907,92.1845438 C351.440999,94.0167313 352.111474,96.9789813 352.111474,100.989294 L352.111474,191.699231 L352.111474,194.261731 L354.489044,194.261731 L402.756094,194.261731 L405.133664,194.261731 L405.133664,191.699231 L405.133664,91.7950438 C407.839339,90.4138563 410.552147,89.7142938 413.217403,89.7142938 C416.274958,89.7142938 418.343444,90.5214813 419.544117,92.1845438 C420.866046,94.0167313 421.538898,96.9789813 421.538898,100.989294 L421.538898,191.699231 L421.538898,194.261731 L423.916468,194.261731 L472.178763,194.261731 L474.556333,194.261731 L474.556333,191.699231 L474.556333,88.9429813 C474.556333,75.2028563 471.80073,64.9272313 466.367982,58.4031063 C460.86153,51.8021063 453.17009,48.4580438 443.512401,48.4580438 C439.508573,48.4580438 435.732991,49.0089813 432.295025,50.0980438 C428.861814,51.1845438 425.466644,52.8809188 422.20224,55.1410438 C418.994898,57.3678563 415.673433,60.3301063 412.330569,63.9457938 C409.632027,66.8593563 406.7623,70.3212938 403.771317,74.2624188 C402.145059,66.1597938 399.025687,59.9380438 394.47264,55.7355438 C389.232476,50.9052313 382.373186,48.4580438 374.087354,48.4580438 C370.085904,48.4580438 366.315077,49.0089813 362.874733,50.0980438 C359.436767,51.1845438 356.043975,52.8809188 352.781948,55.1410438 C349.574606,57.3652938 346.253141,60.3249813 342.903145,63.9457938 C340.613545,66.4186063 338.207444,69.2834813 335.708618,72.4891688 L335.708618,50.7617313 L335.708618,47.8789188 Z M333.331047,50.7617313 L333.331047,78.4367313 L334.279698,78.4367313 C337.915003,73.4859813 341.348214,69.2578563 344.586464,65.7549188 C347.827092,62.2545438 350.984505,59.4357938 354.068214,57.2961063 C357.147167,55.1641063 360.30458,53.5830438 363.545208,52.5580438 C366.783459,51.5304813 370.297507,51.0205438 374.087354,51.0205438 C381.828722,51.0205438 388.107885,53.2422313 392.924842,57.6830438 C397.741799,62.1264188 400.782711,69.0451688 402.049956,78.4367313 L403.707122,78.4367313 C407.340049,73.4859813 410.770883,69.2578563 414.013889,65.7549188 C417.252139,62.2545438 420.409552,59.4357938 423.488505,57.2961063 C426.569836,55.1641063 429.727249,53.5830438 432.9655,52.5580438 C436.206128,51.5304813 439.720176,51.0205438 443.512401,51.0205438 C452.513881,51.0205438 459.541978,54.0545438 464.59907,60.1148563 C469.651406,66.1828563 472.178763,75.7922313 472.178763,88.9429813 L472.178763,191.699231 L423.916468,191.699231 L423.916468,100.989294 C423.916468,96.3742313 423.084319,92.9174188 421.420019,90.6086063 C419.75572,88.3023563 417.021515,87.1517938 413.217403,87.1517938 C409.729507,87.1517938 406.239234,88.1767938 402.756094,90.2242313 L402.756094,191.699231 L354.489044,191.699231 L354.489044,100.989294 C354.489044,96.3742313 353.659272,92.9174188 351.994973,90.6086063 C350.328296,88.3023563 347.596468,87.1517938 343.789978,87.1517938 C340.304461,87.1517938 336.816565,88.1767938 333.331047,90.2242313 L333.331047,191.699231 L285.066375,191.699231 L285.066375,56.9117313 L333.331047,50.7617313 Z" id="Fill-6" fill="#C0E7DB"></path>
            <path d="M540.416689,47.8789188 L537.760944,48.2171688 L489.496271,54.3671688 L487.396876,54.6362313 L487.396876,56.9117313 L487.396876,191.699231 L487.396876,194.261731 L489.774446,194.261731 L538.039119,194.261731 L540.416689,194.261731 L540.416689,191.699231 L540.416689,91.7950438 C543.124742,90.4138563 545.835172,89.7142938 548.49805,89.7142938 C551.557983,89.7142938 553.626469,90.5214813 554.827142,92.1845438 C556.149071,94.0167313 556.819545,96.9789813 556.819545,100.989294 L556.819545,191.699231 L556.819545,194.261731 L559.197116,194.261731 L607.464166,194.261731 L609.841736,194.261731 L609.841736,191.699231 L609.841736,91.7950438 C612.547411,90.4138563 615.260218,89.7142938 617.925474,89.7142938 C620.98303,89.7142938 623.051516,90.5214813 624.252188,92.1845438 C625.574117,94.0167313 626.24697,96.9789813 626.24697,100.989294 L626.24697,191.699231 L626.24697,194.261731 L628.62454,194.261731 L676.886835,194.261731 L679.264405,194.261731 L679.264405,191.699231 L679.264405,88.9429813 C679.264405,75.2028563 676.508801,64.9272313 671.076054,58.4031063 C665.569601,51.8021063 657.878162,48.4580438 648.220473,48.4580438 C644.216644,48.4580438 640.441063,49.0089813 637.003097,50.0980438 C633.569886,51.1845438 630.174716,52.8809188 626.910312,55.1410438 C623.70297,57.3678563 620.381504,60.3301063 617.038641,63.9457938 C614.340099,66.8593563 611.470372,70.3212938 608.479388,74.2624188 C606.85313,66.1597938 603.733759,59.9380438 599.180712,55.7355438 C593.940547,50.9052313 587.081258,48.4580438 578.795426,48.4580438 C574.793975,48.4580438 571.023149,49.0089813 567.582805,50.0980438 C564.144839,51.1845438 560.752046,52.8809188 557.49002,55.1410438 C554.282678,57.3652938 550.961213,60.3249813 547.611216,63.9457938 C545.321616,66.4186063 542.915516,69.2834813 540.416689,72.4891688 L540.416689,50.7617313 L540.416689,47.8789188 Z M538.039119,50.7617313 L538.039119,78.4367313 L538.98777,78.4367313 C542.623074,73.4859813 546.056286,69.2578563 549.294536,65.7549188 C552.535164,62.2545438 555.692577,59.4357938 558.776286,57.2961063 C561.855239,55.1641063 565.012652,53.5830438 568.25328,52.5580438 C571.49153,51.5304813 575.005579,51.0205438 578.795426,51.0205438 C586.536794,51.0205438 592.815957,53.2422313 597.632914,57.6830438 C602.449871,62.1264188 605.490783,69.0451688 606.758028,78.4367313 L608.415194,78.4367313 C612.048121,73.4859813 615.478955,69.2578563 618.72196,65.7549188 C621.960211,62.2545438 625.117624,59.4357938 628.196577,57.2961063 C631.277908,55.1641063 634.435321,53.5830438 637.673572,52.5580438 C640.9142,51.5304813 644.428248,51.0205438 648.220473,51.0205438 C657.221953,51.0205438 664.25005,54.0545438 669.307142,60.1148563 C674.359478,66.1828563 676.886835,75.7922313 676.886835,88.9429813 L676.886835,191.699231 L628.62454,191.699231 L628.62454,100.989294 C628.62454,96.3742313 627.79239,92.9174188 626.128091,90.6086063 C624.463792,88.3023563 621.729587,87.1517938 617.925474,87.1517938 C614.437579,87.1517938 610.947306,88.1767938 607.464166,90.2242313 L607.464166,191.699231 L559.197116,191.699231 L559.197116,100.989294 C559.197116,96.3742313 558.367344,92.9174188 556.703044,90.6086063 C555.036368,88.3023563 552.30454,87.1517938 548.49805,87.1517938 C545.012532,87.1517938 541.524637,88.1767938 538.039119,90.2242313 L538.039119,191.699231 L489.774446,191.699231 L489.774446,56.9117313 L538.039119,50.7617313 Z" id="Fill-8" fill="#C0E7DB"></path>
            <path d="M814.071679,50.25 L811.694108,50.25 L763.429436,50.25 L761.051865,50.25 L761.051865,52.8125 L761.051865,152.429687 C757.865921,154.003062 754.791723,154.8 751.895843,154.8 C748.788359,154.8 746.686587,153.99025 745.469271,152.322062 C744.135454,150.487312 743.457847,147.527625 743.457847,143.525 L743.457847,52.8125 L743.457847,50.25 L741.080277,50.25 L692.815604,50.25 L690.438034,50.25 L690.438034,52.8125 L690.438034,155.56875 C690.438034,169.321687 693.203148,179.599875 698.659671,186.11375 C704.173256,192.712187 711.886093,196.05625 721.584202,196.05625 C725.590407,196.05625 729.411163,195.507875 732.934721,194.421375 C736.45828,193.334875 739.977084,191.64875 743.388897,189.404 C746.784067,187.1695 750.245809,184.204687 753.679021,180.594125 C756.042325,178.1085 758.512621,175.225687 761.051865,171.994375 L761.051865,193.75 L761.051865,196.632812 L763.707611,196.294562 L811.972284,190.144562 L814.071679,189.878062 L814.071679,187.6 L814.071679,52.8125 L814.071679,50.25 Z M811.694108,52.8125 L811.694108,187.6 L763.429436,193.75 L763.429436,166.075 L762.478407,166.075 C758.831215,171.033437 755.345697,175.261562 752.014721,178.759375 C748.688501,182.264875 745.395566,185.081062 742.150183,187.215625 C738.900045,189.355312 735.611865,190.93125 732.283267,191.95625 C728.954669,192.98125 725.388314,193.49375 721.584202,193.49375 C712.549436,193.49375 705.495185,190.462312 700.423828,184.396875 C695.347716,178.334 692.815604,168.724625 692.815604,155.56875 L692.815604,52.8125 L741.080277,52.8125 L741.080277,143.525 C741.080277,148.1375 741.919559,151.596875 743.600501,153.903125 C745.281443,156.209375 748.044179,157.3625 751.895843,157.3625 C755.578699,157.3625 759.425607,156.252937 763.429436,154.03125 L763.429436,52.8125 L811.694108,52.8125 Z" id="Fill-10" fill="#C0E7DB"></path>
            <path d="M881.117253,47.8789188 L878.461507,48.2171688 L830.196834,54.3671688 L828.09744,54.6362313 L828.09744,56.9117313 L828.09744,191.699231 L828.09744,194.261731 L830.47501,194.261731 L878.739683,194.261731 L881.117253,194.261731 L881.117253,191.699231 L881.117253,92.0846063 C884.305575,90.5112313 887.38215,89.7142938 890.275653,89.7142938 C893.378382,89.7142938 895.477776,90.5266063 896.69747,92.1922313 C898.031287,94.0295438 898.708894,96.9892313 898.708894,100.989294 L898.708894,191.699231 L898.708894,194.261731 L901.086464,194.261731 L949.353515,194.261731 L951.731085,194.261731 L951.731085,191.699231 L951.731085,88.9429813 C951.731085,75.2028563 948.965971,64.9246688 943.511825,58.4005438 C937.986352,51.8021063 930.273515,48.4580438 920.584917,48.4580438 C912.560618,48.4580438 905.173507,50.7027938 898.63519,55.1256688 C893.202442,58.8105438 887.322711,64.6479188 881.117253,72.5199188 L881.117253,50.7617313 L881.117253,47.8789188 Z M878.739683,50.7617313 L878.739683,78.4367313 L879.688333,78.4367313 C886.980341,68.5326688 893.718375,61.4857938 899.897679,57.2961063 C906.081739,53.1115438 912.974315,51.0205438 920.584917,51.0205438 C929.617305,51.0205438 936.669178,54.0545438 941.74529,60.1148563 C946.816647,66.1828563 949.353515,75.7922313 949.353515,88.9429813 L949.353515,191.699231 L901.086464,191.699231 L901.086464,100.989294 C901.086464,96.3742313 900.244804,92.9174188 898.56624,90.6086063 C896.88292,88.3023563 894.120184,87.1517938 890.275653,87.1517938 C886.590419,87.1517938 882.745889,88.2639188 878.739683,90.4804813 L878.739683,191.699231 L830.47501,191.699231 L830.47501,56.9117313 L878.739683,50.7617313 Z" id="Fill-12" fill="#C0E7DB"></path>
            <path d="M1017.58835,50.25 L1015.21078,50.25 L966.943729,50.25 L964.566159,50.25 L964.566159,52.8125 L964.566159,191.7 L964.566159,194.2625 L966.943729,194.2625 L1015.21078,194.2625 L1017.58835,194.2625 L1017.58835,191.7 L1017.58835,52.8125 L1017.58835,50.25 Z M1018.77713,2.075 L1016.39956,2.075 L965.754944,2.075 L963.377374,2.075 L963.377374,4.6375 L963.377374,39.74375 L963.377374,42.30625 L965.754944,42.30625 L1016.39956,42.30625 L1018.77713,42.30625 L1018.77713,39.74375 L1018.77713,4.6375 L1018.77713,2.075 Z M966.943729,191.7 L1015.21078,191.7 L1015.21078,52.8125 L966.943729,52.8125 L966.943729,191.7 Z M965.754944,39.74375 L1016.39956,39.74375 L1016.39956,4.6375 L965.754944,4.6375 L965.754944,39.74375 Z" id="Fill-14" fill="#C0E7DB"></path>
            <path d="M1098.89935,2.26436875 L1096.23884,2.60774375 L1048.44969,8.75518125 L1046.35505,9.02680625 L1046.35505,11.2997437 L1046.35505,50.7622437 L1027.33449,50.7622437 L1024.95692,50.7622437 L1024.95692,53.3247437 L1024.95692,87.9184937 L1024.95692,90.4809937 L1027.33449,90.4809937 L1046.35505,90.4809937 L1046.35505,155.916994 C1046.35505,169.364994 1049.72169,179.663681 1056.35748,186.526056 C1062.97188,193.360244 1073.52354,196.824744 1087.72477,196.824744 C1095.93452,196.824744 1103.62595,195.986806 1110.58748,194.331431 C1117.53949,192.676056 1124.72927,190.077681 1131.96183,186.610619 L1133.37411,185.934119 L1133.37411,184.268494 L1133.37411,146.599744 L1133.37411,142.602244 L1130.00272,144.270431 C1124.31081,147.094306 1119.60798,149.023869 1116.02498,150.012994 C1112.51093,150.979056 1109.22751,151.468494 1106.26981,151.468494 C1103.74959,151.468494 1101.94026,150.809931 1100.73245,149.451806 C1099.49849,148.062931 1098.89935,146.053931 1098.89935,143.309494 L1098.89935,90.4809937 L1128.61897,90.4809937 L1130.99654,90.4809937 L1130.99654,87.9184937 L1130.99654,53.3247437 L1130.99654,50.7622437 L1128.61897,50.7622437 L1098.89935,50.7622437 L1098.89935,5.14974375 L1098.89935,2.26436875 Z M1096.52177,5.14974375 L1096.52177,53.3247437 L1128.61897,53.3247437 L1128.61897,87.9184937 L1096.52177,87.9184937 L1096.52177,143.309494 C1096.52177,146.712494 1097.35392,149.351869 1099.01822,151.225056 C1100.68252,153.098244 1103.09813,154.030994 1106.26981,154.030994 C1109.43911,154.030994 1112.88659,153.518494 1116.61224,152.493494 C1120.33552,151.468494 1125.13108,149.505619 1130.99654,146.599744 L1130.99654,184.268494 C1123.86383,187.689431 1116.88566,190.205806 1110.07392,191.827869 C1103.25743,193.449931 1095.8085,194.262244 1087.72477,194.262244 C1074.0894,194.262244 1064.18682,191.066806 1058.00514,184.678494 C1051.82346,178.287619 1048.73262,168.701306 1048.73262,155.916994 L1048.73262,87.9184937 L1027.33449,87.9184937 L1027.33449,53.3247437 L1048.73262,53.3247437 L1048.73262,11.2997437 L1096.52177,5.14974375 Z" id="Fill-16" fill="#C0E7DB"></path>
            <g id="Group-20" transform="translate(1126.968224, 48.457019)">
                <mask id="mask-4" fill="white">
                    <use xlink:href="#path-3"></use>
                </mask>
                <g id="Clip-19"></g>
                <path d="M143.274038,1.79298125 L140.026277,1.79298125 L92.710255,1.79298125 L90.8224643,1.79298125 L90.3968793,3.77635625 L73.4543148,82.4527937 L56.5117503,3.77635625 L56.0837877,1.79298125 L54.195997,1.79298125 L4.50478206,1.79298125 L1.20471477,1.79298125 L2.25084561,5.16523125 L49.0128942,156.373231 L48.5040942,157.472544 C46.6828755,161.528981 42.7931708,163.486731 36.6019783,163.486731 C32.8644381,163.486731 29.9424045,162.664169 27.9119596,161.044669 C25.7103297,159.281669 23.4706587,156.457794 21.2618961,152.647356 L20.565268,151.442981 L19.2457166,151.442981 L10.9242213,151.442981 L8.54665121,151.442981 L8.54665121,154.005481 L8.54665121,186.036731 L8.54665121,187.812544 L10.0873166,188.435231 C15.2632867,190.528794 20.4749204,192.120106 25.5748082,193.168169 C30.6960942,194.216231 37.2843409,194.749231 45.1588531,194.749231 C52.4056867,194.749231 58.8893204,194.129106 64.421926,192.904231 C70.0900531,191.643481 75.1328793,189.447419 79.4101279,186.374981 C83.706397,183.287169 87.4582026,179.018044 90.5633092,173.690606 C93.5923335,168.486169 96.2766101,161.859544 98.5471895,153.997794 L142.292102,5.12935625 L143.274038,1.79298125 Z M140.026277,4.35548125 L96.2766101,153.236731 C94.0583372,160.924231 91.4834288,167.286919 88.5495073,172.327356 C85.6155858,177.365231 82.1324456,181.337106 78.0905764,184.242981 C74.0487073,187.146294 69.3292307,189.196294 63.9440344,190.392981 C58.5517054,191.587106 52.2915634,192.186731 45.1588531,192.186731 C37.3937092,192.186731 31.0146886,191.674231 26.0217914,190.649231 C21.0288942,189.624231 15.9955783,188.086731 10.9242213,186.036731 L10.9242213,154.005481 L19.2457166,154.005481 C21.6232867,158.105481 24.0388979,161.136919 26.4973054,163.102356 C28.9533353,165.065231 32.3223521,166.049231 36.6019783,166.049231 C43.7346886,166.049231 48.4089914,163.571294 50.6296419,158.617981 L51.5806699,156.567981 L4.50478206,4.35548125 L54.195997,4.35548125 L73.4543148,93.7867312 L92.710255,4.35548125 L140.026277,4.35548125 Z" id="Fill-18" fill="#C0E7DB" mask="url(#mask-4)"></path>
            </g>
        </g>
    </g>
</svg>