<?xml version="1.0" encoding="UTF-8"?>
<svg viewBox="0 0 462 491" version="1.1" xmlns="http://www.w3.org/2000/svg" xmlns:xlink="http://www.w3.org/1999/xlink">
    <!-- Generator: Sketch 54.1 (76490) - https://sketchapp.com -->
    <title>confetti ball</title>
    <desc>Created with Sketch.</desc>
    <g id="1-Year-Anniversary" stroke="none" stroke-width="1" fill="none" fill-rule="evenodd">
        <g id="Homepage-" transform="translate(-1354.000000, -4336.000000)">
            <g id="confetti-ball" transform="translate(1585.000000, 4581.500000) scale(-1, 1) translate(-1585.000000, -4581.500000) translate(1354.000000, 4336.000000)">
                <polygon id="Fill-1" fill="#B3D8F9" points="286 8.74064566 290.700054 6 308 36.2593543 303.299946 39"></polygon>
                <polygon id="Fill-2" fill="#FFE6B2" points="280.808256 112 275 111.824 276.191744 77 282 77.1759997"></polygon>
                <polygon id="Fill-3" fill="#B0F2F2" points="417.163826 173 419 177.818561 386.836174 189 385 184.180779"></polygon>
                <polygon id="Fill-4" fill="#F7D5B2" points="251.510734 49 255 53.0948623 228.489266 75 225 70.9051377"></polygon>
                <polygon id="Fill-5" fill="#D7BAFF" points="311.299396 120 316 122.740646 298.700604 153 294 150.259354"></polygon>
                <polygon id="Fill-6" fill="#FDBAFF" points="349.350246 49 355 49.9419422 348.649015 84 343 83.0580578"></polygon>
                <polygon id="Fill-7" fill="#FFE6B2" points="353 143 387 143 387 137 353 137"></polygon>
                <polygon id="Fill-8" fill="#B0F2F2" points="270 174.18124 268.163863 179 236 167.81876 237.836829 163"></polygon>
                <polygon id="Fill-9" fill="#F7D5B2" points="423 110.905029 419.510734 115 393 93.0942822 396.489266 89"></polygon>
                <polygon id="Fill-10" fill="#B3D8F9" points="440 148.73994 457.299946 179 462 176.26006 444.700753 146"></polygon>
                <polygon id="Fill-11" fill="#FDBAFF" points="345 211.058058 339.350246 212 333 177.941942 338.649754 177"></polygon>
                <polygon id="Fill-12" fill="#FFE6B2" points="288 255 322 255 322 249 288 249"></polygon>
                <polygon id="Fill-13" fill="#D7BAFF" points="240 262 246 262 246 228 240 228"></polygon>
                <polygon id="Fill-14" fill="#FDBAFF" points="424.836174 265 423 260.18124 455.163826 249 457 253.81876"></polygon>
                <polygon id="Fill-15" fill="#FFE6B2" points="428.489266 353 425 348.905138 451.510734 327 455 331.094862"></polygon>
                <polygon id="Fill-16" fill="#B0F2F2" points="399.700054 330 395 327.259354 412.299247 297 417 299.740646"></polygon>
                <polygon id="Fill-17" fill="#F7D5B2" points="350 267.094862 353.489266 263 380 284.905138 376.510734 289"></polygon>
                <polygon id="Fill-18" fill="#B3D8F9" points="286 294.740646 290.700054 292 308 322.259354 303.299946 325"></polygon>
                <polygon id="Fill-19" fill="#B3D8F9" points="386 210.941942 391.649363 210 398 244.058058 392.350637 245"></polygon>
                <polygon id="Fill-20" fill="#FFE6B2" points="280.808256 399 275 398.824 276.191744 364 282 364.176"></polygon>
                <polygon id="Fill-21" fill="#F7D5B2" points="251.510734 335 255 339.094862 228.489266 361 225 356.905138"></polygon>
                <polygon id="Fill-22" fill="#D7BAFF" points="311.299396 407 316 409.740646 298.700604 440 294 437.259354"></polygon>
                <polygon id="Fill-23" fill="#FDBAFF" points="349.350246 336 355 336.941942 348.649015 371 343 370.058058"></polygon>
                <polygon id="Fill-24" fill="#FFE6B2" points="353 429 387 429 387 423 353 423"></polygon>
                <polygon id="Fill-25" fill="#B0F2F2" points="270 460.18124 268.163863 465 236 453.81876 237.836829 449"></polygon>
                <polygon id="Fill-26" fill="#F7D5B2" points="423 396.905029 419.510734 401 393 379.094282 396.489266 375"></polygon>
                <polygon id="Fill-27" fill="#D7BAFF" points="186.191617 64 192 64.1759997 190.807635 99 185 98.8240003"></polygon>
                <polygon id="Fill-28" fill="#FDBAFF" points="142.489266 67 139 62.9051377 165.510734 41 169 45.0948623"></polygon>
                <polygon id="Fill-29" fill="#B0F2F2" points="114.700604 43 110 40.2593543 127.299396 10 132 12.7406457"></polygon>
                <polygon id="Fill-30" fill="#F7D5B2" points="218.649754 205 213 204.058058 219.350985 170 225 170.941942"></polygon>
                <polygon id="Fill-31" fill="#F7D5B2" points="186.836829 0 185 4.81856087 217.163171 16 219 11.1807786"></polygon>
                <polygon id="Fill-32" fill="#B0F2F2" points="131.163826 173 133 177.818561 100.836174 189 99 184.180779"></polygon>
                <polygon id="Fill-33" fill="#D7BAFF" points="25.299946 120 30 122.740646 12.7007531 153 8 150.259354"></polygon>
                <polygon id="Fill-34" fill="#FFE6B2" points="67 143 101 143 101 137 67 137"></polygon>
                <polygon id="Fill-35" fill="#F7D5B2" points="136 110.905029 132.510734 115 106 93.0942822 109.489266 89"></polygon>
                <polygon id="Fill-36" fill="#B3D8F9" points="177 176.260002 172.299946 179 155 148.739998 159.700054 146"></polygon>
                <polygon id="Fill-37" fill="#FDBAFF" points="59 211.058058 53.3502463 212 47 177.941942 52.6497537 177"></polygon>
                <polygon id="Fill-38" fill="#FFE6B2" points="3 255 37 255 37 249 3 249"></polygon>
                <polygon id="Fill-39" fill="#D7BAFF" points="186.191617 351 192 351.176 190.807635 386 185 385.824"></polygon>
                <polygon id="Fill-40" fill="#FDBAFF" points="139.836174 265 138 260.18124 170.163826 249 172 253.81876"></polygon>
                <polygon id="Fill-41" fill="#B3D8F9" points="142.489266 353 139 348.905138 165.510734 327 169 331.094862"></polygon>
                <polygon id="Fill-42" fill="#B0F2F2" points="114.700604 330 110 327.259354 127.299396 297 132 299.740646"></polygon>
                <polygon id="Fill-43" fill="#F7D5B2" points="213 490.058058 218.649015 491 225 456.941942 219.350246 456"></polygon>
                <polygon id="Fill-44" fill="#FFE6B2" points="185 291.81876 186.836174 287 219 298.18124 217.163826 303"></polygon>
                <polygon id="Fill-45" fill="#F7D5B2" points="64 267.094862 67.4892665 263 94 284.905138 90.5107335 289"></polygon>
                <polygon id="Fill-46" fill="#B3D8F9" points="0 294.741293 17.2992469 325 22 322.259413 4.70075312 292"></polygon>
                <polygon id="Fill-47" fill="#B3D8F9" points="101 210.941942 106.649754 210 113 244.058058 107.350246 245"></polygon>
                <polygon id="Fill-48" fill="#FDBAFF" points="63.3502463 336 69 336.941942 62.6490148 371 57 370.058058"></polygon>
                <polygon id="Fill-49" fill="#FFE6B2" points="67 429 101 429 101 423 67 423"></polygon>
                <polygon id="Fill-50" fill="#F7D5B2" points="136 396.905029 132.510734 401 106 379.094282 109.489266 375"></polygon>
                <polygon id="Fill-51" fill="#B3D8F9" points="177 461.259354 172.299946 464 155 433.740646 159.700054 431"></polygon>
            </g>
        </g>
    </g>
</svg>