<?xml version="1.0" encoding="UTF-8"?>
<svg width="909px" height="456px" viewBox="0 0 909 456" version="1.1" xmlns="http://www.w3.org/2000/svg" xmlns:xlink="http://www.w3.org/1999/xlink">
    <!-- Generator: Sketch 54.1 (76490) - https://sketchapp.com -->
    <title>confetti</title>
    <desc>Created with Sketch.</desc>
    <g id="1-Year-Anniversary" stroke="none" stroke-width="1" fill="none" fill-rule="evenodd">
        <g id="Homepage-" transform="translate(-47.000000, 0.000000)">
            <g id="confetti" transform="translate(47.000000, 0.000000)">
                <polygon id="Fill-1" fill="#FFEFCC" points="790.910458 23.17696 809.147673 23.17696 809.147673 20.3157835 790.910458 20.3157835"></polygon>
                <polygon id="Fill-2" fill="#E6D3FF" points="765.878987 27.1110776 768.739727 27.1110776 768.739727 8.87107765 765.878987 8.87107765"></polygon>
                <polygon id="Fill-3" fill="#E6D3FF" points="888.827102 74.2792169 891.686411 74.3711322 891.099602 92.6018334 888.240292 92.5099181"></polygon>
                <polygon id="Fill-4" fill="#FED3FF" points="863.110304 29.4287379 862.131931 26.7399473 879.269192 20.5018673 880.247565 23.1903002"></polygon>
                <polygon id="Fill-5" fill="#FFF7E4" points="865.123872 75.9139501 863.285131 73.7222889 877.255553 61.9975454 879.094293 64.1895642"></polygon>
                <polygon id="Fill-6" fill="#C9F2F2" points="849.989558 62.9057901 847.512158 61.4752019 856.630765 45.6790042 859.108165 47.1095925"></polygon>
                <polygon id="Fill-7" fill="#F7E1CA" points="902.883989 148.145352 905.70146 148.642123 908.868299 130.678942 906.051185 130.182528"></polygon>
                <polygon id="Fill-8" fill="#FFEFCC" points="887.891747 42.86096 888.87012 40.1721694 906.007738 46.4106071 905.029007 49.0993976"></polygon>
                <polygon id="Fill-9" fill="#F7E1CA" points="823.605601 29.8553751 825.444341 27.6637139 839.414763 39.3880998 837.576022 41.5797609"></polygon>
                <polygon id="Fill-10" fill="#CCE3F9" points="789.595376 44.9635313 792.072777 43.5329431 801.191384 59.3291407 798.713984 60.7597289"></polygon>
                <polygon id="Fill-11" fill="#CCE3F9" points="845.996502 0.356609882 843.179389 0.853381647 846.346227 18.8162052 849.163698 18.3190758"></polygon>
                <polygon id="Fill-12" fill="#FFEFCC" points="786.992711 99.7547746 784.133402 99.6628593 784.720211 81.4321581 787.57952 81.5240734"></polygon>
                <polygon id="Fill-13" fill="#C9F2F2" points="859.196527 132.087607 860.174899 134.776397 843.037639 141.014477 842.059266 138.326044"></polygon>
                <polygon id="Fill-14" fill="#F7E1CA" points="771.360772 66.2894532 773.199512 68.4811144 759.229091 80.2058579 757.39035 78.0138391"></polygon>
                <polygon id="Fill-15" fill="#E6D3FF" points="802.944338 104.332943 805.421739 105.763531 796.303131 121.559729 793.825731 120.129141"></polygon>
                <polygon id="Fill-16" fill="#FED3FF" points="823.042142 66.5211727 825.859255 67.0179445 822.692417 84.980768 819.875303 84.4839962"></polygon>
                <polygon id="Fill-17" fill="#FFEFCC" points="824.834181 115.807548 843.071396 115.807548 843.071396 112.946372 824.834181 112.946372"></polygon>
                <polygon id="Fill-18" fill="#C9F2F2" points="780.776217 132.603656 779.797844 135.292446 762.660583 129.054008 763.638956 126.365218"></polygon>
                <polygon id="Fill-19" fill="#F7E1CA" points="861.869387 98.75744 860.030289 100.949101 846.059867 89.2247153 847.898965 87.0330541"></polygon>
                <polygon id="Fill-20" fill="#CCE3F9" points="883.363697 133.362261 880.886296 134.792849 871.767689 118.996651 874.245089 117.566063"></polygon>
                <polygon id="Fill-21" fill="#CCE3F9" points="820.839838 151.721679 818.022724 152.218451 814.855886 134.255627 817.672999 133.758856"></polygon>
                <polygon id="Fill-22" fill="#FFEFCC" points="790.910458 175.039266 809.147673 175.039266 809.147673 172.178089 790.910458 172.178089"></polygon>
                <polygon id="Fill-23" fill="#E6D3FF" points="765.878987 178.973384 768.739727 178.973384 768.739727 160.733384 765.878987 160.733384"></polygon>
                <polygon id="Fill-24" fill="#E6D3FF" points="888.827102 226.141272 891.686411 226.233545 891.099602 244.463889 888.240292 244.371974"></polygon>
                <polygon id="Fill-25" fill="#FED3FF" points="863.110304 181.290793 862.131931 178.602003 879.269192 172.363923 880.247565 175.052356"></polygon>
                <polygon id="Fill-26" fill="#FFF7E4" points="865.123872 227.775827 863.285131 225.584166 877.255553 213.85978 879.094293 216.051799"></polygon>
                <polygon id="Fill-27" fill="#C9F2F2" points="849.989558 214.76781 847.512158 213.337222 856.630765 197.541024 859.108165 198.971612"></polygon>
                <polygon id="Fill-28" fill="#F7E1CA" points="902.883989 300.007192 905.70146 300.504322 908.868299 282.541141 906.051185 282.044369"></polygon>
                <polygon id="Fill-29" fill="#FFEFCC" points="887.891747 194.72298 888.87012 192.034189 906.007738 198.272627 905.029007 200.961417"></polygon>
                <polygon id="Fill-30" fill="#F7E1CA" points="823.605601 181.717431 825.444341 179.525769 839.414763 191.250155 837.576022 193.441816"></polygon>
                <polygon id="Fill-31" fill="#CCE3F9" points="789.595376 196.825551 792.072777 195.394963 801.191384 211.19116 798.713984 212.621749"></polygon>
                <polygon id="Fill-32" fill="#CCE3F9" points="843.179424 152.715509 845.996538 152.218379 849.163734 170.18156 846.346263 170.678332"></polygon>
                <polygon id="Fill-33" fill="#FFEFCC" points="786.992711 251.616973 784.133402 251.5247 784.720211 233.294357 787.57952 233.386272"></polygon>
                <polygon id="Fill-34" fill="#C9F2F2" points="859.196527 283.949483 860.174899 286.638274 843.037639 292.876712 842.059266 290.187921"></polygon>
                <polygon id="Fill-35" fill="#F7E1CA" points="771.360772 218.151473 773.199512 220.343492 759.229091 232.06752 757.39035 229.875859"></polygon>
                <polygon id="Fill-36" fill="#E6D3FF" points="802.944338 256.195142 805.421739 257.62573 796.303131 273.421928 793.825731 271.991339"></polygon>
                <polygon id="Fill-37" fill="#FED3FF" points="823.042142 218.383407 825.859255 218.880179 822.692417 236.843002 819.875303 236.346231"></polygon>
                <polygon id="Fill-38" fill="#FFEFCC" points="824.834181 267.669496 843.071396 267.669496 843.071396 264.80832 824.834181 264.80832"></polygon>
                <polygon id="Fill-39" fill="#C9F2F2" points="780.776217 284.465675 779.797844 287.154466 762.660583 280.915671 763.638956 278.227238"></polygon>
                <polygon id="Fill-40" fill="#F7E1CA" points="861.869387 250.619496 860.030289 252.811157 846.059867 241.087128 847.898965 238.89511"></polygon>
                <polygon id="Fill-41" fill="#CCE3F9" points="883.363697 285.22428 880.886296 286.654869 871.767689 270.858671 874.245089 269.428083"></polygon>
                <polygon id="Fill-42" fill="#CCE3F9" points="820.839838 303.583735 818.022724 304.080864 814.855886 286.117683 817.672999 285.620911"></polygon>
                <polygon id="Fill-43" fill="#FFEFCC" points="790.910458 326.900856 809.147673 326.900856 809.147673 324.03968 790.910458 324.03968"></polygon>
                <polygon id="Fill-44" fill="#E6D3FF" points="765.878987 330.834974 768.739727 330.834974 768.739727 312.594974 765.878987 312.594974"></polygon>
                <polygon id="Fill-45" fill="#E6D3FF" points="888.827102 378.003292 891.686411 378.095565 891.099602 396.325909 888.240292 396.233993"></polygon>
                <polygon id="Fill-46" fill="#FED3FF" points="863.110304 333.152849 862.131931 330.464058 879.269192 324.225978 880.247565 326.914769"></polygon>
                <polygon id="Fill-47" fill="#FFF7E4" points="865.123872 379.638204 863.285131 377.446185 877.255553 365.7218 879.094293 367.913818"></polygon>
                <polygon id="Fill-48" fill="#C9F2F2" points="849.989558 366.629865 847.512158 365.199277 856.630765 349.40308 859.108165 350.833668"></polygon>
                <polygon id="Fill-49" fill="#F7E1CA" points="902.883989 451.869355 905.70146 452.366485 908.868299 434.403304 906.051185 433.906532"></polygon>
                <polygon id="Fill-50" fill="#FFEFCC" points="887.891747 346.585214 888.87012 343.896424 906.007738 350.134861 905.029007 352.823294"></polygon>
                <polygon id="Fill-51" fill="#F7E1CA" points="823.605601 333.579629 825.444341 331.38761 839.414763 343.111996 837.576022 345.304015"></polygon>
                <polygon id="Fill-52" fill="#CCE3F9" points="789.595376 348.687785 792.072777 347.257197 801.191384 363.053395 798.713984 364.483983"></polygon>
                <polygon id="Fill-53" fill="#CCE3F9" points="843.179424 304.577385 845.996538 304.080614 849.163734 322.043437 846.346263 322.540567"></polygon>
                <polygon id="Fill-54" fill="#FFEFCC" points="786.992711 403.479029 784.133402 403.386756 784.720211 385.156412 787.57952 385.248328"></polygon>
                <polygon id="Fill-55" fill="#C9F2F2" points="859.196527 435.811861 860.174899 438.500651 843.037639 444.738731 842.059266 442.049941"></polygon>
                <polygon id="Fill-56" fill="#F7E1CA" points="771.360772 370.013528 773.199512 372.205547 759.229091 383.929933 757.39035 381.737914"></polygon>
                <polygon id="Fill-57" fill="#E6D3FF" points="802.944338 408.057197 805.421739 409.487785 796.303131 425.283983 793.825731 423.853395"></polygon>
                <polygon id="Fill-58" fill="#FED3FF" points="823.042142 370.245427 825.859255 370.742199 822.692417 388.705022 819.875303 388.20825"></polygon>
                <polygon id="Fill-59" fill="#FFEFCC" points="824.834181 419.531445 843.071396 419.531445 843.071396 416.670268 824.834181 416.670268"></polygon>
                <polygon id="Fill-60" fill="#C9F2F2" points="780.776217 436.327731 779.797844 439.016521 762.660583 432.778084 763.638956 430.089651"></polygon>
                <polygon id="Fill-61" fill="#F7E1CA" points="861.869387 402.481515 860.030289 404.673534 846.059867 392.949148 847.898965 390.757129"></polygon>
                <polygon id="Fill-62" fill="#CCE3F9" points="883.363697 437.086336 880.886296 438.516924 871.767689 422.720727 874.245089 421.290138"></polygon>
                <polygon id="Fill-63" fill="#CCE3F9" points="814.855599 437.97981 818.022438 455.942633 820.839909 455.445862 817.67307 437.483038"></polygon>
                <polygon id="Fill-64" fill="#FFEFCC" points="639.432152 23.17696 657.669367 23.17696 657.669367 20.3157835 639.432152 20.3157835"></polygon>
                <polygon id="Fill-65" fill="#E6D3FF" points="614.400681 27.1110776 617.261421 27.1110776 617.261421 8.87107765 614.400681 8.87107765"></polygon>
                <polygon id="Fill-66" fill="#E6D3FF" points="737.348974 74.2792169 740.208283 74.3711322 739.621474 92.6018334 736.762165 92.5099181"></polygon>
                <polygon id="Fill-67" fill="#FED3FF" points="711.632177 29.4287379 710.653804 26.7399473 727.791065 20.5018673 728.769437 23.1903002"></polygon>
                <polygon id="Fill-68" fill="#FFF7E4" points="713.645923 75.9139501 711.806825 73.7222889 725.777605 61.9975454 727.616345 64.1895642"></polygon>
                <polygon id="Fill-69" fill="#C9F2F2" points="698.511431 62.9057901 696.03403 61.4752019 705.152638 45.6790042 707.630038 47.1095925"></polygon>
                <polygon id="Fill-70" fill="#F7E1CA" points="754.223404 148.642052 751.406291 148.14528 754.57313 130.182456 757.390243 130.679228"></polygon>
                <polygon id="Fill-71" fill="#FFEFCC" points="736.41362 42.86096 737.391993 40.1721694 754.529611 46.4106071 753.55088 49.0993976"></polygon>
                <polygon id="Fill-72" fill="#F7E1CA" points="672.127473 29.8553751 673.966571 27.6637139 687.936635 39.3880998 686.097895 41.5797609"></polygon>
                <polygon id="Fill-73" fill="#CCE3F9" points="638.117249 44.9635313 640.59465 43.5329431 649.713257 59.3291407 647.235856 60.7597289"></polygon>
                <polygon id="Fill-74" fill="#CCE3F9" points="694.518625 0.356609882 691.701512 0.853381647 694.867993 18.8162052 697.685464 18.3190758"></polygon>
                <polygon id="Fill-75" fill="#FFEFCC" points="635.514763 99.7547746 632.655454 99.6628593 633.242263 81.4321581 636.101572 81.5240734"></polygon>
                <polygon id="Fill-76" fill="#C9F2F2" points="707.718578 132.087607 708.696951 134.776397 691.559691 141.014477 690.581318 138.326044"></polygon>
                <polygon id="Fill-77" fill="#F7E1CA" points="619.88268 66.2894532 621.721778 68.4811144 607.750999 80.2058579 605.912259 78.0138391"></polygon>
                <polygon id="Fill-78" fill="#E6D3FF" points="651.46639 104.332943 653.94379 105.763531 644.825183 121.559729 642.347782 120.129141"></polygon>
                <polygon id="Fill-79" fill="#FED3FF" points="671.564015 66.5211727 674.381128 67.0179445 671.214289 84.980768 668.397176 84.4839962"></polygon>
                <polygon id="Fill-80" fill="#FFEFCC" points="673.355875 115.807548 691.59309 115.807548 691.59309 112.946372 673.355875 112.946372"></polygon>
                <polygon id="Fill-81" fill="#C9F2F2" points="629.298268 132.603656 628.319895 135.292446 611.182277 129.054008 612.161008 126.365218"></polygon>
                <polygon id="Fill-82" fill="#F7E1CA" points="710.39126 98.75744 708.552162 100.949101 694.582098 89.2247153 696.420838 87.0330541"></polygon>
                <polygon id="Fill-83" fill="#CCE3F9" points="731.885748 133.362261 729.408348 134.792849 720.289741 118.996651 722.767141 117.566063"></polygon>
                <polygon id="Fill-84" fill="#CCE3F9" points="669.36171 151.721679 666.544597 152.218451 663.377758 134.255627 666.194872 133.758856"></polygon>
                <polygon id="Fill-85" fill="#FFEFCC" points="639.432152 175.039266 657.669367 175.039266 657.669367 172.178089 639.432152 172.178089"></polygon>
                <polygon id="Fill-86" fill="#E6D3FF" points="614.400681 178.973384 617.261421 178.973384 617.261421 160.733384 614.400681 160.733384"></polygon>
                <polygon id="Fill-87" fill="#E6D3FF" points="737.348974 226.141272 740.208283 226.233545 739.621474 244.463889 736.762165 244.371974"></polygon>
                <polygon id="Fill-88" fill="#FED3FF" points="711.632177 181.290793 710.653804 178.602003 727.791065 172.363923 728.769437 175.052356"></polygon>
                <polygon id="Fill-89" fill="#FFF7E4" points="713.645923 227.775827 711.806825 225.584166 725.777605 213.85978 727.616345 216.051799"></polygon>
                <polygon id="Fill-90" fill="#C9F2F2" points="698.511431 214.76781 696.03403 213.337222 705.152638 197.541024 707.630038 198.971612"></polygon>
                <polygon id="Fill-91" fill="#F7E1CA" points="754.223404 300.50425 751.406291 300.007121 754.57313 282.044655 757.390243 282.541069"></polygon>
                <polygon id="Fill-92" fill="#FFEFCC" points="736.41362 194.72298 737.391993 192.034189 754.529611 198.272627 753.55088 200.961417"></polygon>
                <polygon id="Fill-93" fill="#F7E1CA" points="672.127473 181.717431 673.966571 179.525769 687.936635 191.250155 686.097895 193.441816"></polygon>
                <polygon id="Fill-94" fill="#CCE3F9" points="638.117249 196.825551 640.59465 195.394963 649.713257 211.19116 647.235856 212.621749"></polygon>
                <polygon id="Fill-95" fill="#CCE3F9" points="691.701476 152.715509 694.518589 152.218379 697.685428 170.18156 694.868315 170.678332"></polygon>
                <polygon id="Fill-96" fill="#FFEFCC" points="635.514763 251.616973 632.655454 251.5247 633.242263 233.294357 636.101572 233.386272"></polygon>
                <polygon id="Fill-97" fill="#C9F2F2" points="707.718578 283.949483 708.696951 286.638274 691.559691 292.876712 690.581318 290.187921"></polygon>
                <polygon id="Fill-98" fill="#F7E1CA" points="619.88268 218.151473 621.721778 220.343492 607.750999 232.06752 605.912259 229.875859"></polygon>
                <polygon id="Fill-99" fill="#E6D3FF" points="651.46639 256.195142 653.94379 257.62573 644.825183 273.421928 642.347782 271.991339"></polygon>
                <polygon id="Fill-100" fill="#FED3FF" points="671.564015 218.383407 674.381128 218.880179 671.214289 236.843002 668.397176 236.346231"></polygon>
                <polygon id="Fill-101" fill="#FFEFCC" points="673.355875 267.669496 691.59309 267.669496 691.59309 264.80832 673.355875 264.80832"></polygon>
                <polygon id="Fill-102" fill="#C9F2F2" points="629.298268 284.465675 628.319895 287.154466 611.182277 280.915671 612.161008 278.227238"></polygon>
                <polygon id="Fill-103" fill="#F7E1CA" points="710.39126 250.619496 708.552162 252.811157 694.582098 241.087128 696.420838 238.89511"></polygon>
                <polygon id="Fill-104" fill="#CCE3F9" points="731.885748 285.22428 729.408348 286.654869 720.289741 270.858671 722.767141 269.428083"></polygon>
                <polygon id="Fill-105" fill="#CCE3F9" points="669.36171 303.583735 666.544597 304.080864 663.377758 286.117683 666.194872 285.620911"></polygon>
                <polygon id="Fill-106" fill="#FFEFCC" points="639.432152 326.900856 657.669367 326.900856 657.669367 324.03968 639.432152 324.03968"></polygon>
                <polygon id="Fill-107" fill="#E6D3FF" points="614.400681 330.834974 617.261421 330.834974 617.261421 312.594974 614.400681 312.594974"></polygon>
                <polygon id="Fill-108" fill="#E6D3FF" points="737.348974 378.003292 740.208283 378.095565 739.621474 396.325909 736.762165 396.233993"></polygon>
                <polygon id="Fill-109" fill="#FED3FF" points="711.632177 333.152849 710.653804 330.464058 727.791065 324.225978 728.769437 326.914769"></polygon>
                <polygon id="Fill-110" fill="#FFF7E4" points="713.645923 379.638204 711.806825 377.446185 725.777605 365.7218 727.616345 367.913818"></polygon>
                <polygon id="Fill-111" fill="#C9F2F2" points="698.511431 366.629865 696.03403 365.199277 705.152638 349.40308 707.630038 350.833668"></polygon>
                <polygon id="Fill-112" fill="#F7E1CA" points="754.223404 452.366306 751.406291 451.869176 754.57313 433.906711 757.390243 434.403125"></polygon>
                <polygon id="Fill-113" fill="#FFEFCC" points="736.41362 346.585214 737.391993 343.896424 754.529611 350.134861 753.55088 352.823294"></polygon>
                <polygon id="Fill-114" fill="#F7E1CA" points="672.127473 333.579629 673.966571 331.38761 687.936635 343.111996 686.097895 345.304015"></polygon>
                <polygon id="Fill-115" fill="#CCE3F9" points="638.117249 348.687785 640.59465 347.257197 649.713257 363.053395 647.235856 364.483983"></polygon>
                <polygon id="Fill-116" fill="#CCE3F9" points="691.701476 304.577385 694.518589 304.080614 697.685428 322.043437 694.868315 322.540567"></polygon>
                <polygon id="Fill-117" fill="#FFEFCC" points="635.514763 403.479029 632.655454 403.386756 633.242263 385.156412 636.101572 385.248328"></polygon>
                <polygon id="Fill-118" fill="#C9F2F2" points="707.718578 435.811861 708.696951 438.500651 691.559691 444.738731 690.581318 442.049941"></polygon>
                <polygon id="Fill-119" fill="#F7E1CA" points="619.88268 370.013528 621.721778 372.205547 607.750999 383.929933 605.912259 381.737914"></polygon>
                <polygon id="Fill-120" fill="#E6D3FF" points="651.46639 408.057197 653.94379 409.487785 644.825183 425.283983 642.347782 423.853395"></polygon>
                <polygon id="Fill-121" fill="#FED3FF" points="671.564015 370.245427 674.381128 370.742199 671.214289 388.705022 668.397176 388.20825"></polygon>
                <polygon id="Fill-122" fill="#FFEFCC" points="673.355875 419.531445 691.59309 419.531445 691.59309 416.670268 673.355875 416.670268"></polygon>
                <polygon id="Fill-123" fill="#C9F2F2" points="629.298268 436.327731 628.319895 439.016521 611.182277 432.778084 612.161008 430.089651"></polygon>
                <polygon id="Fill-124" fill="#F7E1CA" points="710.39126 402.481515 708.552162 404.673534 694.582098 392.949148 696.420838 390.757129"></polygon>
                <polygon id="Fill-125" fill="#CCE3F9" points="731.885748 437.086336 729.408348 438.516924 720.289741 422.720727 722.767141 421.290138"></polygon>
                <polygon id="Fill-126" fill="#CCE3F9" points="663.377723 437.97981 666.544561 455.942633 669.361675 455.445862 666.194836 437.483038"></polygon>
                <polygon id="Fill-127" fill="#FFEFCC" points="487.954204 23.17696 506.191419 23.17696 506.191419 20.3157835 487.954204 20.3157835"></polygon>
                <polygon id="Fill-128" fill="#E6D3FF" points="462.922732 27.1110776 465.783472 27.1110776 465.783472 8.87107765 462.922732 8.87107765"></polygon>
                <polygon id="Fill-129" fill="#E6D3FF" points="585.871062 74.2792169 588.730371 74.3711322 588.143562 92.6018334 585.284252 92.5099181"></polygon>
                <polygon id="Fill-130" fill="#FED3FF" points="560.154264 29.4287379 559.175891 26.7399473 576.313152 20.5018673 577.291525 23.1903002"></polygon>
                <polygon id="Fill-131" fill="#FFF7E4" points="562.167796 75.9139501 560.329056 73.7222889 574.299477 61.9975454 576.138218 64.1895642"></polygon>
                <polygon id="Fill-132" fill="#C9F2F2" points="547.033518 62.9057901 544.556118 61.4752019 553.674725 45.6790042 556.152125 47.1095925"></polygon>
                <polygon id="Fill-133" fill="#F7E1CA" points="602.745277 148.642052 599.928164 148.14528 603.095002 130.182456 605.912116 130.679228"></polygon>
                <polygon id="Fill-134" fill="#FFEFCC" points="584.935671 42.86096 585.914044 40.1721694 603.051305 46.4106071 602.072932 49.0993976"></polygon>
                <polygon id="Fill-135" fill="#F7E1CA" points="520.649525 29.8553751 522.488265 27.6637139 536.458687 39.3880998 534.619947 41.5797609"></polygon>
                <polygon id="Fill-136" fill="#CCE3F9" points="486.639336 44.9635313 489.116737 43.5329431 498.235344 59.3291407 495.757944 60.7597289"></polygon>
                <polygon id="Fill-137" fill="#CCE3F9" points="543.040748 0.356609882 540.223277 0.853381647 543.390116 18.8162052 546.207587 18.3190758"></polygon>
                <polygon id="Fill-138" fill="#FFEFCC" points="484.036635 99.7547746 481.177326 99.6628593 481.764135 81.4321581 484.623445 81.5240734"></polygon>
                <polygon id="Fill-139" fill="#C9F2F2" points="556.240451 132.087607 557.218824 134.776397 540.081563 141.014477 539.10319 138.326044"></polygon>
                <polygon id="Fill-140" fill="#F7E1CA" points="468.404732 66.2894532 470.243472 68.4811144 456.273051 80.2058579 454.43431 78.0138391"></polygon>
                <polygon id="Fill-141" fill="#E6D3FF" points="499.988262 104.332943 502.465663 105.763531 493.347055 121.559729 490.869655 120.129141"></polygon>
                <polygon id="Fill-142" fill="#FED3FF" points="520.086102 66.5211727 522.903215 67.0179445 519.736377 84.980768 516.919263 84.4839962"></polygon>
                <polygon id="Fill-143" fill="#FFEFCC" points="521.877926 115.807548 540.115141 115.807548 540.115141 112.946372 521.877926 112.946372"></polygon>
                <polygon id="Fill-144" fill="#C9F2F2" points="477.820177 132.603656 476.841804 135.292446 459.704186 129.054008 460.682916 126.365218"></polygon>
                <polygon id="Fill-145" fill="#F7E1CA" points="558.913168 98.75744 557.074428 100.949101 543.104006 89.2247153 544.942747 87.0330541"></polygon>
                <polygon id="Fill-146" fill="#CCE3F9" points="580.407621 133.362261 577.930221 134.792849 568.811613 118.996651 571.289014 117.566063"></polygon>
                <polygon id="Fill-147" fill="#CCE3F9" points="517.883798 151.721679 515.066684 152.218451 511.899846 134.255627 514.716959 133.758856"></polygon>
                <polygon id="Fill-148" fill="#FFEFCC" points="487.954204 175.039266 506.191419 175.039266 506.191419 172.178089 487.954204 172.178089"></polygon>
                <polygon id="Fill-149" fill="#E6D3FF" points="462.922732 178.973384 465.783472 178.973384 465.783472 160.733384 462.922732 160.733384"></polygon>
                <polygon id="Fill-150" fill="#E6D3FF" points="585.871062 226.141272 588.730371 226.233545 588.143562 244.463889 585.284252 244.371974"></polygon>
                <polygon id="Fill-151" fill="#FED3FF" points="560.154264 181.290793 559.175891 178.602003 576.313152 172.363923 577.291525 175.052356"></polygon>
                <polygon id="Fill-152" fill="#FFF7E4" points="562.167796 227.775827 560.329056 225.584166 574.299477 213.85978 576.138218 216.051799"></polygon>
                <polygon id="Fill-153" fill="#C9F2F2" points="547.033518 214.76781 544.556118 213.337222 553.674725 197.541024 556.152125 198.971612"></polygon>
                <polygon id="Fill-154" fill="#F7E1CA" points="602.745277 300.50425 599.928164 300.007121 603.095002 282.044655 605.912116 282.541069"></polygon>
                <polygon id="Fill-155" fill="#FFEFCC" points="584.935671 194.72298 585.914044 192.034189 603.051305 198.272627 602.072932 200.961417"></polygon>
                <polygon id="Fill-156" fill="#F7E1CA" points="520.649525 181.717431 522.488265 179.525769 536.458687 191.250155 534.619947 193.441816"></polygon>
                <polygon id="Fill-157" fill="#CCE3F9" points="486.639336 196.825551 489.116737 195.394963 498.235344 211.19116 495.757944 212.621749"></polygon>
                <polygon id="Fill-158" fill="#CCE3F9" points="540.223349 152.715509 543.040462 152.218379 546.207301 170.18156 543.390187 170.678332"></polygon>
                <polygon id="Fill-159" fill="#FFEFCC" points="484.036635 251.616973 481.177326 251.5247 481.764135 233.294357 484.623445 233.386272"></polygon>
                <polygon id="Fill-160" fill="#C9F2F2" points="556.240451 283.949483 557.218824 286.638274 540.081563 292.876712 539.10319 290.187921"></polygon>
                <polygon id="Fill-161" fill="#F7E1CA" points="468.404732 218.151473 470.243472 220.343492 456.273051 232.06752 454.43431 229.875859"></polygon>
                <polygon id="Fill-162" fill="#E6D3FF" points="499.988262 256.195142 502.465663 257.62573 493.347055 273.421928 490.869655 271.991339"></polygon>
                <polygon id="Fill-163" fill="#FED3FF" points="520.086102 218.383407 522.903215 218.880179 519.736377 236.843002 516.919263 236.346231"></polygon>
                <polygon id="Fill-164" fill="#FFEFCC" points="521.877926 267.669496 540.115141 267.669496 540.115141 264.80832 521.877926 264.80832"></polygon>
                <polygon id="Fill-165" fill="#C9F2F2" points="477.820177 284.465675 476.841804 287.154466 459.704186 280.915671 460.682916 278.227238"></polygon>
                <polygon id="Fill-166" fill="#F7E1CA" points="558.913168 250.619496 557.074428 252.811157 543.104006 241.087128 544.942747 238.89511"></polygon>
                <polygon id="Fill-167" fill="#CCE3F9" points="580.407621 285.22428 577.930221 286.654869 568.811613 270.858671 571.289014 269.428083"></polygon>
                <polygon id="Fill-168" fill="#CCE3F9" points="517.883798 303.583735 515.066684 304.080864 511.899846 286.117683 514.716959 285.620911"></polygon>
                <polygon id="Fill-169" fill="#FFEFCC" points="487.954204 326.900856 506.191419 326.900856 506.191419 324.03968 487.954204 324.03968"></polygon>
                <polygon id="Fill-170" fill="#E6D3FF" points="462.922732 330.834974 465.783472 330.834974 465.783472 312.594974 462.922732 312.594974"></polygon>
                <polygon id="Fill-171" fill="#E6D3FF" points="585.871062 378.003292 588.730371 378.095565 588.143562 396.325909 585.284252 396.233993"></polygon>
                <polygon id="Fill-172" fill="#FED3FF" points="560.154264 333.152849 559.175891 330.464058 576.313152 324.225978 577.291525 326.914769"></polygon>
                <polygon id="Fill-173" fill="#FFF7E4" points="562.167796 379.638204 560.329056 377.446185 574.299477 365.7218 576.138218 367.913818"></polygon>
                <polygon id="Fill-174" fill="#C9F2F2" points="547.033518 366.629865 544.556118 365.199277 553.674725 349.40308 556.152125 350.833668"></polygon>
                <polygon id="Fill-175" fill="#F7E1CA" points="602.745277 452.366306 599.928164 451.869176 603.095002 433.906711 605.912116 434.403125"></polygon>
                <polygon id="Fill-176" fill="#FFEFCC" points="584.935671 346.585214 585.914044 343.896424 603.051305 350.134861 602.072932 352.823294"></polygon>
                <polygon id="Fill-177" fill="#F7E1CA" points="520.649525 333.579629 522.488265 331.38761 536.458687 343.111996 534.619947 345.304015"></polygon>
                <polygon id="Fill-178" fill="#CCE3F9" points="486.639336 348.687785 489.116737 347.257197 498.235344 363.053395 495.757944 364.483983"></polygon>
                <polygon id="Fill-179" fill="#CCE3F9" points="540.223349 304.577385 543.040462 304.080614 546.207301 322.043437 543.390187 322.540567"></polygon>
                <polygon id="Fill-180" fill="#FFEFCC" points="484.036635 403.479029 481.177326 403.386756 481.764135 385.156412 484.623445 385.248328"></polygon>
                <polygon id="Fill-181" fill="#C9F2F2" points="556.240451 435.811861 557.218824 438.500651 540.081563 444.738731 539.10319 442.049941"></polygon>
                <polygon id="Fill-182" fill="#F7E1CA" points="468.404732 370.013528 470.243472 372.205547 456.273051 383.929933 454.43431 381.737914"></polygon>
                <polygon id="Fill-183" fill="#E6D3FF" points="499.988262 408.057197 502.465663 409.487785 493.347055 425.283983 490.869655 423.853395"></polygon>
                <polygon id="Fill-184" fill="#FED3FF" points="520.086102 370.245427 522.903215 370.742199 519.736377 388.705022 516.919263 388.20825"></polygon>
                <polygon id="Fill-185" fill="#FFEFCC" points="521.877926 419.531445 540.115141 419.531445 540.115141 416.670268 521.877926 416.670268"></polygon>
                <polygon id="Fill-186" fill="#C9F2F2" points="477.820177 436.327731 476.841804 439.016521 459.704186 432.778084 460.682916 430.089651"></polygon>
                <polygon id="Fill-187" fill="#F7E1CA" points="558.913168 402.481515 557.074428 404.673534 543.104006 392.949148 544.942747 390.757129"></polygon>
                <polygon id="Fill-188" fill="#CCE3F9" points="580.407621 437.086336 577.930221 438.516924 568.811613 422.720727 571.289014 421.290138"></polygon>
                <polygon id="Fill-189" fill="#CCE3F9" points="511.899846 437.97981 515.066327 455.942633 517.883798 455.445862 514.716959 437.483038"></polygon>
                <polygon id="Fill-190" fill="#FFEFCC" points="336.476255 23.17696 354.71347 23.17696 354.71347 20.3157835 336.476255 20.3157835"></polygon>
                <polygon id="Fill-191" fill="#E6D3FF" points="311.444784 27.1110776 314.305524 27.1110776 314.305524 8.87107765 311.444784 8.87107765"></polygon>
                <polygon id="Fill-192" fill="#E6D3FF" points="434.392934 74.2792169 437.252244 74.3711322 436.665434 92.6018334 433.806125 92.5099181"></polygon>
                <polygon id="Fill-193" fill="#FED3FF" points="408.676137 29.4287379 407.697764 26.7399473 424.835025 20.5018673 425.813398 23.1903002"></polygon>
                <polygon id="Fill-194" fill="#FFF7E4" points="410.689847 75.9139501 408.850749 73.7222889 422.821529 61.9975454 424.660269 64.1895642"></polygon>
                <polygon id="Fill-195" fill="#C9F2F2" points="395.555391 62.9057901 393.07799 61.4752019 402.196598 45.6790042 404.673998 47.1095925"></polygon>
                <polygon id="Fill-196" fill="#F7E1CA" points="451.267364 148.642052 448.450251 148.14528 451.61709 130.182456 454.434203 130.679228"></polygon>
                <polygon id="Fill-197" fill="#FFEFCC" points="433.45758 42.86096 434.435953 40.1721694 451.573571 46.4106071 450.59484 49.0993976"></polygon>
                <polygon id="Fill-198" fill="#F7E1CA" points="369.171433 29.8553751 371.010174 27.6637139 384.980595 39.3880998 383.141855 41.5797609"></polygon>
                <polygon id="Fill-199" fill="#CCE3F9" points="335.161209 44.9635313 337.63861 43.5329431 346.757217 59.3291407 344.279816 60.7597289"></polygon>
                <polygon id="Fill-200" fill="#CCE3F9" points="391.562549 0.356609882 388.745078 0.853381647 391.912275 18.8162052 394.729388 18.3190758"></polygon>
                <polygon id="Fill-201" fill="#FFEFCC" points="332.558544 99.7547746 329.699235 99.6628593 330.286044 81.4321581 333.145353 81.5240734"></polygon>
                <polygon id="Fill-202" fill="#C9F2F2" points="404.762538 132.087607 405.740911 134.776397 388.603651 141.014477 387.625278 138.326044"></polygon>
                <polygon id="Fill-203" fill="#F7E1CA" points="316.926605 66.2894532 318.765345 68.4811144 304.794923 80.2058579 302.956183 78.0138391"></polygon>
                <polygon id="Fill-204" fill="#E6D3FF" points="348.510171 104.332943 350.987571 105.763531 341.868964 121.559729 339.391563 120.129141"></polygon>
                <polygon id="Fill-205" fill="#FED3FF" points="368.607975 66.5211727 371.425088 67.0179445 368.25825 84.980768 365.441136 84.4839962"></polygon>
                <polygon id="Fill-206" fill="#FFEFCC" points="370.399978 115.807548 388.637193 115.807548 388.637193 112.946372 370.399978 112.946372"></polygon>
                <polygon id="Fill-207" fill="#C9F2F2" points="326.34205 132.603656 325.363677 135.292446 308.226416 129.054008 309.204789 126.365218"></polygon>
                <polygon id="Fill-208" fill="#F7E1CA" points="407.43522 98.75744 405.596122 100.949101 391.6257 89.2247153 393.464798 87.0330541"></polygon>
                <polygon id="Fill-209" fill="#CCE3F9" points="428.929708 133.362261 426.452308 134.792849 417.333701 118.996651 419.811101 117.566063"></polygon>
                <polygon id="Fill-210" fill="#CCE3F9" points="366.40567 151.721679 363.588557 152.218451 360.421718 134.255627 363.238832 133.758856"></polygon>
                <polygon id="Fill-211" fill="#FFEFCC" points="336.476255 175.039266 354.71347 175.039266 354.71347 172.178089 336.476255 172.178089"></polygon>
                <polygon id="Fill-212" fill="#E6D3FF" points="311.444784 178.973384 314.305524 178.973384 314.305524 160.733384 311.444784 160.733384"></polygon>
                <polygon id="Fill-213" fill="#E6D3FF" points="434.392934 226.141272 437.252244 226.233545 436.665434 244.463889 433.806125 244.371974"></polygon>
                <polygon id="Fill-214" fill="#FED3FF" points="408.676137 181.290793 407.697764 178.602003 424.835025 172.363923 425.813398 175.052356"></polygon>
                <polygon id="Fill-215" fill="#FFF7E4" points="410.689847 227.775827 408.850749 225.584166 422.821529 213.85978 424.660269 216.051799"></polygon>
                <polygon id="Fill-216" fill="#C9F2F2" points="395.555391 214.76781 393.07799 213.337222 402.196598 197.541024 404.673998 198.971612"></polygon>
                <polygon id="Fill-217" fill="#F7E1CA" points="451.267364 300.50425 448.450251 300.007121 451.61709 282.044655 454.434203 282.541069"></polygon>
                <polygon id="Fill-218" fill="#FFEFCC" points="433.45758 194.72298 434.435953 192.034189 451.573571 198.272627 450.59484 200.961417"></polygon>
                <polygon id="Fill-219" fill="#F7E1CA" points="369.171433 181.717431 371.010174 179.525769 384.980595 191.250155 383.141855 193.441816"></polygon>
                <polygon id="Fill-220" fill="#CCE3F9" points="335.161209 196.825551 337.63861 195.394963 346.757217 211.19116 344.279816 212.621749"></polygon>
                <polygon id="Fill-221" fill="#CCE3F9" points="388.745257 152.715509 391.56237 152.218379 394.729567 170.18156 391.912096 170.678332"></polygon>
                <polygon id="Fill-222" fill="#FFEFCC" points="332.558544 251.616973 329.699235 251.5247 330.286044 233.294357 333.145353 233.386272"></polygon>
                <polygon id="Fill-223" fill="#C9F2F2" points="404.762538 283.949483 405.740911 286.638274 388.603651 292.876712 387.625278 290.187921"></polygon>
                <polygon id="Fill-224" fill="#F7E1CA" points="316.926605 218.151473 318.765345 220.343492 304.794923 232.06752 302.956183 229.875859"></polygon>
                <polygon id="Fill-225" fill="#E6D3FF" points="348.510171 256.195142 350.987571 257.62573 341.868964 273.421928 339.391563 271.991339"></polygon>
                <polygon id="Fill-226" fill="#FED3FF" points="368.607975 218.383407 371.425088 218.880179 368.25825 236.843002 365.441136 236.346231"></polygon>
                <polygon id="Fill-227" fill="#FFEFCC" points="370.399978 267.669496 388.637193 267.669496 388.637193 264.80832 370.399978 264.80832"></polygon>
                <polygon id="Fill-228" fill="#C9F2F2" points="326.34205 284.465675 325.363677 287.154466 308.226416 280.915671 309.204789 278.227238"></polygon>
                <polygon id="Fill-229" fill="#F7E1CA" points="407.43522 250.619496 405.596122 252.811157 391.6257 241.087128 393.464798 238.89511"></polygon>
                <polygon id="Fill-230" fill="#CCE3F9" points="428.929708 285.22428 426.452308 286.654869 417.333701 270.858671 419.811101 269.428083"></polygon>
                <polygon id="Fill-231" fill="#CCE3F9" points="366.40567 303.583735 363.588557 304.080864 360.421718 286.117683 363.238832 285.620911"></polygon>
                <polygon id="Fill-232" fill="#FFEFCC" points="336.476255 326.900856 354.71347 326.900856 354.71347 324.03968 336.476255 324.03968"></polygon>
                <polygon id="Fill-233" fill="#E6D3FF" points="311.444784 330.834974 314.305524 330.834974 314.305524 312.594974 311.444784 312.594974"></polygon>
                <polygon id="Fill-234" fill="#E6D3FF" points="434.392934 378.003292 437.252244 378.095565 436.665434 396.325909 433.806125 396.233993"></polygon>
                <polygon id="Fill-235" fill="#FED3FF" points="408.676137 333.152849 407.697764 330.464058 424.835025 324.225978 425.813398 326.914769"></polygon>
                <polygon id="Fill-236" fill="#FFF7E4" points="410.689847 379.638204 408.850749 377.446185 422.821529 365.7218 424.660269 367.913818"></polygon>
                <polygon id="Fill-237" fill="#C9F2F2" points="395.555391 366.629865 393.07799 365.199277 402.196598 349.40308 404.673998 350.833668"></polygon>
                <polygon id="Fill-238" fill="#F7E1CA" points="451.267364 452.366306 448.450251 451.869176 451.61709 433.906711 454.434203 434.403125"></polygon>
                <polygon id="Fill-239" fill="#FFEFCC" points="433.45758 346.585214 434.435953 343.896424 451.573571 350.134861 450.59484 352.823294"></polygon>
                <polygon id="Fill-240" fill="#F7E1CA" points="369.171433 333.579629 371.010174 331.38761 384.980595 343.111996 383.141855 345.304015"></polygon>
                <polygon id="Fill-241" fill="#CCE3F9" points="335.161209 348.687785 337.63861 347.257197 346.757217 363.053395 344.279816 364.483983"></polygon>
                <polygon id="Fill-242" fill="#CCE3F9" points="388.745257 304.577385 391.56237 304.080614 394.729567 322.043437 391.912096 322.540567"></polygon>
                <polygon id="Fill-243" fill="#FFEFCC" points="332.558544 403.479029 329.699235 403.386756 330.286044 385.156412 333.145353 385.248328"></polygon>
                <polygon id="Fill-244" fill="#C9F2F2" points="404.762538 435.811861 405.740911 438.500651 388.603651 444.738731 387.625278 442.049941"></polygon>
                <polygon id="Fill-245" fill="#F7E1CA" points="316.926605 370.013528 318.765345 372.205547 304.794923 383.929933 302.956183 381.737914"></polygon>
                <polygon id="Fill-246" fill="#E6D3FF" points="348.510171 408.057197 350.987571 409.487785 341.868964 425.283983 339.391563 423.853395"></polygon>
                <polygon id="Fill-247" fill="#FED3FF" points="368.607975 370.245427 371.425088 370.742199 368.25825 388.705022 365.441136 388.20825"></polygon>
                <polygon id="Fill-248" fill="#FFEFCC" points="370.399978 419.531445 388.637193 419.531445 388.637193 416.670268 370.399978 416.670268"></polygon>
                <polygon id="Fill-249" fill="#C9F2F2" points="326.34205 436.327731 325.363677 439.016521 308.226416 432.778084 309.204789 430.089651"></polygon>
                <polygon id="Fill-250" fill="#F7E1CA" points="407.43522 402.481515 405.596122 404.673534 391.6257 392.949148 393.464798 390.757129"></polygon>
                <polygon id="Fill-251" fill="#CCE3F9" points="428.929708 437.086336 426.452308 438.516924 417.333701 422.720727 419.811101 421.290138"></polygon>
                <polygon id="Fill-252" fill="#CCE3F9" points="360.421647 437.97981 363.588486 455.942633 366.405956 455.445862 363.239118 437.483038"></polygon>
                <polygon id="Fill-253" fill="#FFEFCC" points="184.997949 23.17696 203.235164 23.17696 203.235164 20.3157835 184.997949 20.3157835"></polygon>
                <polygon id="Fill-254" fill="#E6D3FF" points="159.966478 27.1110776 162.827218 27.1110776 162.827218 8.87107765 159.966478 8.87107765"></polygon>
                <polygon id="Fill-255" fill="#E6D3FF" points="282.914986 74.2792169 285.774295 74.3711322 285.187486 92.6018334 282.328177 92.5099181"></polygon>
                <polygon id="Fill-256" fill="#FED3FF" points="257.19801 29.4287379 256.219637 26.7399473 273.356897 20.5018673 274.33527 23.1903002"></polygon>
                <polygon id="Fill-257" fill="#FFF7E4" points="259.211756 75.9139501 257.372658 73.7222889 271.343437 61.9975454 273.182178 64.1895642"></polygon>
                <polygon id="Fill-258" fill="#C9F2F2" points="244.077442 62.9057901 241.600042 61.4752019 250.718649 45.6790042 253.19605 47.1095925"></polygon>
                <polygon id="Fill-259" fill="#F7E1CA" points="299.789237 148.642052 296.972124 148.14528 300.138962 130.182456 302.956076 130.679228"></polygon>
                <polygon id="Fill-260" fill="#FFEFCC" points="281.979631 42.86096 282.958004 40.1721694 300.095265 46.4106071 299.116892 49.0993976"></polygon>
                <polygon id="Fill-261" fill="#F7E1CA" points="217.693306 29.8553751 219.532404 27.6637139 233.502826 39.3880998 231.663728 41.5797609"></polygon>
                <polygon id="Fill-262" fill="#CCE3F9" points="183.683082 44.9635313 186.160482 43.5329431 195.27909 59.3291407 192.801689 60.7597289"></polygon>
                <polygon id="Fill-263" fill="#CCE3F9" points="240.084672 0.356609882 237.267201 0.853381647 240.43404 18.8162052 243.251511 18.3190758"></polygon>
                <polygon id="Fill-264" fill="#FFEFCC" points="181.080596 99.7547746 178.221286 99.6628593 178.808096 81.4321581 181.667405 81.5240734"></polygon>
                <polygon id="Fill-265" fill="#C9F2F2" points="253.284411 132.087607 254.262784 134.776397 237.125523 141.014477 236.14715 138.326044"></polygon>
                <polygon id="Fill-266" fill="#F7E1CA" points="165.448477 66.2894532 167.287575 68.4811144 153.316796 80.2058579 151.478056 78.0138391"></polygon>
                <polygon id="Fill-267" fill="#E6D3FF" points="197.032222 104.332943 199.509623 105.763531 190.391015 121.559729 187.913615 120.129141"></polygon>
                <polygon id="Fill-268" fill="#FED3FF" points="217.129848 66.5211727 219.946961 67.0179445 216.780122 84.980768 213.963009 84.4839962"></polygon>
                <polygon id="Fill-269" fill="#FFEFCC" points="218.921672 115.807548 237.158887 115.807548 237.158887 112.946372 218.921672 112.946372"></polygon>
                <polygon id="Fill-270" fill="#C9F2F2" points="174.864101 132.603656 173.885728 135.292446 156.74811 129.054008 157.726841 126.365218"></polygon>
                <polygon id="Fill-271" fill="#F7E1CA" points="255.957093 98.75744 254.118352 100.949101 240.14793 89.2247153 241.986671 87.0330541"></polygon>
                <polygon id="Fill-272" fill="#CCE3F9" points="277.451581 133.362261 274.974181 134.792849 265.855573 118.996651 268.332974 117.566063"></polygon>
                <polygon id="Fill-273" fill="#CCE3F9" points="214.927722 151.721679 212.110251 152.218451 208.943412 134.255627 211.760883 133.758856"></polygon>
                <polygon id="Fill-274" fill="#FFEFCC" points="184.997949 175.039266 203.235164 175.039266 203.235164 172.178089 184.997949 172.178089"></polygon>
                <polygon id="Fill-275" fill="#E6D3FF" points="159.966478 178.973384 162.827218 178.973384 162.827218 160.733384 159.966478 160.733384"></polygon>
                <polygon id="Fill-276" fill="#E6D3FF" points="282.914986 226.141272 285.774295 226.233545 285.187486 244.463889 282.328177 244.371974"></polygon>
                <polygon id="Fill-277" fill="#FED3FF" points="257.19801 181.290793 256.219637 178.602003 273.356897 172.363923 274.33527 175.052356"></polygon>
                <polygon id="Fill-278" fill="#FFF7E4" points="259.211756 227.775827 257.372658 225.584166 271.343437 213.85978 273.182178 216.051799"></polygon>
                <polygon id="Fill-279" fill="#C9F2F2" points="244.077442 214.76781 241.600042 213.337222 250.718649 197.541024 253.19605 198.971612"></polygon>
                <polygon id="Fill-280" fill="#F7E1CA" points="299.789237 300.50425 296.972124 300.007121 300.138962 282.044655 302.956076 282.541069"></polygon>
                <polygon id="Fill-281" fill="#FFEFCC" points="281.979631 194.72298 282.958004 192.034189 300.095265 198.272627 299.116892 200.961417"></polygon>
                <polygon id="Fill-282" fill="#F7E1CA" points="217.693306 181.717431 219.532404 179.525769 233.502826 191.250155 231.663728 193.441816"></polygon>
                <polygon id="Fill-283" fill="#CCE3F9" points="183.683082 196.825551 186.160482 195.394963 195.27909 211.19116 192.801689 212.621749"></polygon>
                <polygon id="Fill-284" fill="#CCE3F9" points="237.267309 152.715509 240.084422 152.218379 243.251261 170.18156 240.434147 170.678332"></polygon>
                <polygon id="Fill-285" fill="#FFEFCC" points="181.080596 251.616973 178.221286 251.5247 178.808096 233.294357 181.667405 233.386272"></polygon>
                <polygon id="Fill-286" fill="#C9F2F2" points="253.284411 283.949483 254.262784 286.638274 237.125523 292.876712 236.14715 290.187921"></polygon>
                <polygon id="Fill-287" fill="#F7E1CA" points="165.448477 218.151473 167.287575 220.343492 153.316796 232.06752 151.478056 229.875859"></polygon>
                <polygon id="Fill-288" fill="#E6D3FF" points="197.032222 256.195142 199.509623 257.62573 190.391015 273.421928 187.913615 271.991339"></polygon>
                <polygon id="Fill-289" fill="#FED3FF" points="217.129848 218.383407 219.946961 218.880179 216.780122 236.843002 213.963009 236.346231"></polygon>
                <polygon id="Fill-290" fill="#FFEFCC" points="218.921672 267.669496 237.158887 267.669496 237.158887 264.80832 218.921672 264.80832"></polygon>
                <polygon id="Fill-291" fill="#C9F2F2" points="174.864101 284.465675 173.885728 287.154466 156.74811 280.915671 157.726841 278.227238"></polygon>
                <polygon id="Fill-292" fill="#F7E1CA" points="255.957093 250.619496 254.118352 252.811157 240.14793 241.087128 241.986671 238.89511"></polygon>
                <polygon id="Fill-293" fill="#CCE3F9" points="277.451581 285.22428 274.974181 286.654869 265.855573 270.858671 268.332974 269.428083"></polygon>
                <polygon id="Fill-294" fill="#CCE3F9" points="214.927722 303.583735 212.110251 304.080864 208.943412 286.117683 211.760883 285.620911"></polygon>
                <polygon id="Fill-295" fill="#FFEFCC" points="184.997949 326.900856 203.235164 326.900856 203.235164 324.03968 184.997949 324.03968"></polygon>
                <polygon id="Fill-296" fill="#E6D3FF" points="159.966478 330.834974 162.827218 330.834974 162.827218 312.594974 159.966478 312.594974"></polygon>
                <polygon id="Fill-297" fill="#E6D3FF" points="282.914986 378.003292 285.774295 378.095565 285.187486 396.325909 282.328177 396.233993"></polygon>
                <polygon id="Fill-298" fill="#FED3FF" points="257.19801 333.152849 256.219637 330.464058 273.356897 324.225978 274.33527 326.914769"></polygon>
                <polygon id="Fill-299" fill="#FFF7E4" points="259.211756 379.638204 257.372658 377.446185 271.343437 365.7218 273.182178 367.913818"></polygon>
                <polygon id="Fill-300" fill="#C9F2F2" points="244.077442 366.629865 241.600042 365.199277 250.718649 349.40308 253.19605 350.833668"></polygon>
                <polygon id="Fill-301" fill="#F7E1CA" points="299.789237 452.366306 296.972124 451.869176 300.138962 433.906711 302.956076 434.403125"></polygon>
                <polygon id="Fill-302" fill="#FFEFCC" points="281.979631 346.585214 282.958004 343.896424 300.095265 350.134861 299.116892 352.823294"></polygon>
                <polygon id="Fill-303" fill="#F7E1CA" points="217.693306 333.579629 219.532404 331.38761 233.502826 343.111996 231.663728 345.304015"></polygon>
                <polygon id="Fill-304" fill="#CCE3F9" points="183.683082 348.687785 186.160482 347.257197 195.27909 363.053395 192.801689 364.483983"></polygon>
                <polygon id="Fill-305" fill="#CCE3F9" points="237.267309 304.577385 240.084422 304.080614 243.251261 322.043437 240.434147 322.540567"></polygon>
                <polygon id="Fill-306" fill="#FFEFCC" points="181.080596 403.479029 178.221286 403.386756 178.808096 385.156412 181.667405 385.248328"></polygon>
                <polygon id="Fill-307" fill="#C9F2F2" points="253.284411 435.811861 254.262784 438.500651 237.125523 444.738731 236.14715 442.049941"></polygon>
                <polygon id="Fill-308" fill="#F7E1CA" points="165.448477 370.013528 167.287575 372.205547 153.316796 383.929933 151.478056 381.737914"></polygon>
                <polygon id="Fill-309" fill="#E6D3FF" points="197.032222 408.057197 199.509623 409.487785 190.391015 425.283983 187.913615 423.853395"></polygon>
                <polygon id="Fill-310" fill="#FED3FF" points="217.129848 370.245427 219.946961 370.742199 216.780122 388.705022 213.963009 388.20825"></polygon>
                <polygon id="Fill-311" fill="#FFEFCC" points="218.921672 419.531445 237.158887 419.531445 237.158887 416.670268 218.921672 416.670268"></polygon>
                <polygon id="Fill-312" fill="#C9F2F2" points="174.864101 436.327731 173.885728 439.016521 156.74811 432.778084 157.726841 430.089651"></polygon>
                <polygon id="Fill-313" fill="#F7E1CA" points="255.957093 402.481515 254.118352 404.673534 240.14793 392.949148 241.986671 390.757129"></polygon>
                <polygon id="Fill-314" fill="#CCE3F9" points="277.451581 437.086336 274.974181 438.516924 265.855573 422.720727 268.332974 421.290138"></polygon>
                <polygon id="Fill-315" fill="#CCE3F9" points="208.943448 437.97981 212.110287 455.942633 214.927758 455.445862 211.760919 437.483038"></polygon>
                <polygon id="Fill-316" fill="#FFEFCC" points="33.5200008 23.17696 51.7572156 23.17696 51.7572156 20.3157835 33.5200008 20.3157835"></polygon>
                <polygon id="Fill-317" fill="#E6D3FF" points="8.4885295 27.1110776 11.3492691 27.1110776 11.3492691 8.87107765 8.4885295 8.87107765"></polygon>
                <polygon id="Fill-318" fill="#E6D3FF" points="131.436859 74.2792169 134.296168 74.3711322 133.709359 92.6018334 130.850049 92.5099181"></polygon>
                <polygon id="Fill-319" fill="#FED3FF" points="105.720061 29.4287379 104.741688 26.7399473 121.878949 20.5018673 122.857322 23.1903002"></polygon>
                <polygon id="Fill-320" fill="#FFF7E4" points="107.733629 75.9139501 105.894888 73.7222889 119.86531 61.9975454 121.70405 64.1895642"></polygon>
                <polygon id="Fill-321" fill="#C9F2F2" points="92.5993151 62.9057901 90.1219146 61.4752019 99.240522 45.6790042 101.717922 47.1095925"></polygon>
                <polygon id="Fill-322" fill="#F7E1CA" points="148.31111 148.642052 145.493996 148.14528 148.660835 130.182456 151.477948 130.679228"></polygon>
                <polygon id="Fill-323" fill="#FFEFCC" points="130.501504 42.86096 131.479877 40.1721694 148.617495 46.4106071 147.638764 49.0993976"></polygon>
                <polygon id="Fill-324" fill="#F7E1CA" points="66.2153576 29.8553751 68.054098 27.6637139 82.0245197 39.3880998 80.1857793 41.5797609"></polygon>
                <polygon id="Fill-325" fill="#CCE3F9" points="32.2051691 44.9635313 34.6825696 43.5329431 43.801177 59.3291407 41.3237765 60.7597289"></polygon>
                <polygon id="Fill-326" fill="#CCE3F9" points="88.6064736 0.356609882 85.7890027 0.853381647 88.9558414 18.8162052 91.7733123 18.3190758"></polygon>
                <polygon id="Fill-327" fill="#FFEFCC" points="29.6024683 99.7547746 26.743159 99.6628593 27.3299683 81.4321581 30.1892775 81.5240734"></polygon>
                <polygon id="Fill-328" fill="#C9F2F2" points="101.806284 132.087607 102.784656 134.776397 85.6473961 141.014477 84.6690231 138.326044"></polygon>
                <polygon id="Fill-329" fill="#F7E1CA" points="0 78.0139464 1.83874036 80.2056075 15.8095197 68.4815793 13.9704217 66.2895605"></polygon>
                <polygon id="Fill-330" fill="#E6D3FF" points="45.5540952 104.332943 48.0314956 105.763531 38.9128882 121.559729 36.4354878 120.129141"></polygon>
                <polygon id="Fill-331" fill="#FED3FF" points="65.6518992 66.5211727 68.4690125 67.0179445 65.3021738 84.980768 62.4850605 84.4839962"></polygon>
                <polygon id="Fill-332" fill="#FFEFCC" points="67.4437234 115.807548 85.6809382 115.807548 85.6809382 112.946372 67.4437234 112.946372"></polygon>
                <polygon id="Fill-333" fill="#C9F2F2" points="23.3860096 132.603656 22.4076367 135.292446 5.27001869 129.054008 6.24874921 126.365218"></polygon>
                <polygon id="Fill-334" fill="#F7E1CA" points="104.478965 98.75744 102.640225 100.949101 88.6698032 89.2247153 90.5085435 87.0330541"></polygon>
                <polygon id="Fill-335" fill="#CCE3F9" points="125.973454 133.362261 123.496053 134.792849 114.377446 118.996651 116.854846 117.566063"></polygon>
                <polygon id="Fill-336" fill="#CCE3F9" points="63.4495946 151.721679 60.6324813 152.218451 57.4656426 134.255627 60.2827559 133.758856"></polygon>
                <polygon id="Fill-337" fill="#FFEFCC" points="33.5200008 175.039266 51.7572156 175.039266 51.7572156 172.178089 33.5200008 172.178089"></polygon>
                <polygon id="Fill-338" fill="#E6D3FF" points="8.4885295 178.973384 11.3492691 178.973384 11.3492691 160.733384 8.4885295 160.733384"></polygon>
                <polygon id="Fill-339" fill="#E6D3FF" points="131.436859 226.141272 134.296168 226.233545 133.709359 244.463889 130.850049 244.371974"></polygon>
                <polygon id="Fill-340" fill="#FED3FF" points="105.720061 181.290793 104.741688 178.602003 121.878949 172.363923 122.857322 175.052356"></polygon>
                <polygon id="Fill-341" fill="#FFF7E4" points="107.733629 227.775827 105.894888 225.584166 119.86531 213.85978 121.70405 216.051799"></polygon>
                <polygon id="Fill-342" fill="#C9F2F2" points="92.5993151 214.76781 90.1219146 213.337222 99.240522 197.541024 101.717922 198.971612"></polygon>
                <polygon id="Fill-343" fill="#F7E1CA" points="148.31111 300.50425 145.493996 300.007121 148.660835 282.044655 151.477948 282.541069"></polygon>
                <polygon id="Fill-344" fill="#FFEFCC" points="130.501504 194.72298 131.479877 192.034189 148.617495 198.272627 147.638764 200.961417"></polygon>
                <polygon id="Fill-345" fill="#F7E1CA" points="66.2153576 181.717431 68.054098 179.525769 82.0245197 191.250155 80.1857793 193.441816"></polygon>
                <polygon id="Fill-346" fill="#CCE3F9" points="32.2051691 196.825551 34.6825696 195.394963 43.801177 211.19116 41.3237765 212.621749"></polygon>
                <polygon id="Fill-347" fill="#CCE3F9" points="85.7891815 152.715509 88.6062948 152.218379 91.7731335 170.18156 88.9560202 170.678332"></polygon>
                <polygon id="Fill-348" fill="#FFEFCC" points="29.6024683 251.616973 26.743159 251.5247 27.3299683 233.294357 30.1892775 233.386272"></polygon>
                <polygon id="Fill-349" fill="#C9F2F2" points="101.806284 283.949483 102.784656 286.638274 85.6473961 292.876712 84.6690231 290.187921"></polygon>
                <polygon id="Fill-350" fill="#F7E1CA" points="0 229.876109 1.83874036 232.067413 15.8095197 220.343384 13.9704217 218.151723"></polygon>
                <polygon id="Fill-351" fill="#E6D3FF" points="45.5540952 256.195142 48.0314956 257.62573 38.9128882 273.421928 36.4354878 271.991339"></polygon>
                <polygon id="Fill-352" fill="#FED3FF" points="65.6518992 218.383407 68.4690125 218.880179 65.3021738 236.843002 62.4850605 236.346231"></polygon>
                <polygon id="Fill-353" fill="#FFEFCC" points="67.4437234 267.669496 85.6809382 267.669496 85.6809382 264.80832 67.4437234 264.80832"></polygon>
                <polygon id="Fill-354" fill="#C9F2F2" points="23.3860096 284.465675 22.4076367 287.154466 5.27001869 280.915671 6.24874921 278.227238"></polygon>
                <polygon id="Fill-355" fill="#F7E1CA" points="104.478965 250.619496 102.640225 252.811157 88.6698032 241.087128 90.5085435 238.89511"></polygon>
                <polygon id="Fill-356" fill="#CCE3F9" points="125.973454 285.22428 123.496053 286.654869 114.377446 270.858671 116.854846 269.428083"></polygon>
                <polygon id="Fill-357" fill="#CCE3F9" points="63.4495946 303.583735 60.6324813 304.080864 57.4656426 286.117683 60.2827559 285.620911"></polygon>
                <polygon id="Fill-358" fill="#FFEFCC" points="33.5200008 326.900856 51.7572156 326.900856 51.7572156 324.03968 33.5200008 324.03968"></polygon>
                <polygon id="Fill-359" fill="#E6D3FF" points="8.4885295 330.834974 11.3492691 330.834974 11.3492691 312.594974 8.4885295 312.594974"></polygon>
                <polygon id="Fill-360" fill="#E6D3FF" points="131.436859 378.003292 134.296168 378.095565 133.709359 396.325909 130.850049 396.233993"></polygon>
                <polygon id="Fill-361" fill="#FED3FF" points="105.720061 333.152849 104.741688 330.464058 121.878949 324.225978 122.857322 326.914769"></polygon>
                <polygon id="Fill-362" fill="#FFF7E4" points="107.733629 379.638204 105.894888 377.446185 119.86531 365.7218 121.70405 367.913818"></polygon>
                <polygon id="Fill-363" fill="#C9F2F2" points="92.5993151 366.629865 90.1219146 365.199277 99.240522 349.40308 101.717922 350.833668"></polygon>
                <polygon id="Fill-364" fill="#F7E1CA" points="148.31111 452.366306 145.493996 451.869176 148.660835 433.906711 151.477948 434.403125"></polygon>
                <polygon id="Fill-365" fill="#FFEFCC" points="130.501504 346.585214 131.479877 343.896424 148.617495 350.134861 147.638764 352.823294"></polygon>
                <polygon id="Fill-366" fill="#F7E1CA" points="66.2153576 333.579629 68.054098 331.38761 82.0245197 343.111996 80.1857793 345.304015"></polygon>
                <polygon id="Fill-367" fill="#CCE3F9" points="32.2051691 348.687785 34.6825696 347.257197 43.801177 363.053395 41.3237765 364.483983"></polygon>
                <polygon id="Fill-368" fill="#CCE3F9" points="85.7891815 304.577385 88.6062948 304.080614 91.7731335 322.043437 88.9560202 322.540567"></polygon>
                <polygon id="Fill-369" fill="#FFEFCC" points="29.6024683 403.479029 26.743159 403.386756 27.3299683 385.156412 30.1892775 385.248328"></polygon>
                <polygon id="Fill-370" fill="#C9F2F2" points="101.806284 435.811861 102.784656 438.500651 85.6473961 444.738731 84.6690231 442.049941"></polygon>
                <polygon id="Fill-371" fill="#F7E1CA" points="0 381.73795 1.83874036 383.929969 15.8095197 372.205225 13.9704217 370.013207"></polygon>
                <polygon id="Fill-372" fill="#E6D3FF" points="45.5540952 408.057197 48.0314956 409.487785 38.9128882 425.283983 36.4354878 423.853395"></polygon>
                <polygon id="Fill-373" fill="#FED3FF" points="65.6518992 370.245427 68.4690125 370.742199 65.3021738 388.705022 62.4850605 388.20825"></polygon>
                <polygon id="Fill-374" fill="#FFEFCC" points="67.4437234 419.531445 85.6809382 419.531445 85.6809382 416.670268 67.4437234 416.670268"></polygon>
                <polygon id="Fill-375" fill="#C9F2F2" points="23.3860096 436.327731 22.4076367 439.016521 5.27001869 432.778084 6.24874921 430.089651"></polygon>
                <polygon id="Fill-376" fill="#F7E1CA" points="104.478965 402.481515 102.640225 404.673534 88.6698032 392.949148 90.5085435 390.757129"></polygon>
                <polygon id="Fill-377" fill="#CCE3F9" points="125.973454 437.086336 123.496053 438.516924 114.377446 422.720727 116.854846 421.290138"></polygon>
                <polygon id="Fill-378" fill="#CCE3F9" points="57.4655711 437.97981 60.6324098 455.942633 63.4498807 455.445862 60.283042 437.483038"></polygon>
            </g>
        </g>
    </g>
</svg>