<?xml version="1.0" encoding="UTF-8"?>
<svg width="1410px" height="250px" viewBox="0 0 1410 250" version="1.1" xmlns="http://www.w3.org/2000/svg" xmlns:xlink="http://www.w3.org/1999/xlink">
    <!-- Generator: Sketch 52.5 (67469) - http://www.bohemiancoding.com/sketch -->
    <title>Artboard</title>
    <desc>Created with Sketch.</desc>
    <defs>
        <polygon id="path-1" points="0.655145025 0.7046875 53.6811315 0.7046875 53.6811315 199.362244 0.655145025 199.362244"></polygon>
        <polygon id="path-3" points="0.225647555 0.7046875 125.29241 0.7046875 125.29241 201.732044 0.225647555 201.732044"></polygon>
    </defs>
    <g id="Artboard" stroke="none" stroke-width="1" fill="none" fill-rule="evenodd">
        <g id="Group-25" transform="translate(0.000000, 23.000000)">
            <path d="M74.185973,7.52005625 C63.1675245,7.52005625 53.0074401,9.38811875 43.9791602,13.0678687 C34.8771703,16.7783687 26.978317,22.4261187 20.4989747,29.8522437 C14.0338988,37.2578687 8.94315683,46.6622437 5.36227993,57.8039937 C1.80518044,68.8663062 0.000475549717,81.8658687 0.000475549717,96.4388062 L0.000475549717,114.376306 C0.000475549717,143.773306 6.33002024,166.166994 18.8107791,180.932119 C31.3486037,195.771556 48.7798179,203.295056 70.6193626,203.295056 C92.5207285,203.295056 109.143511,194.492869 120.093005,177.116556 L126.118199,198.984931 L126.624658,200.817119 L128.398452,200.817119 L145.99373,200.817119 L148.37147,200.817119 L148.37147,198.254619 L148.37147,106.176306 L148.37147,103.613806 L145.99373,103.613806 L74.4237471,103.613806 L72.0460067,103.613806 L72.0460067,106.176306 L72.0460067,125.395056 L72.0460067,127.957556 L74.4237471,127.957556 L92.6396155,127.957556 C92.1640675,138.225494 90.5400708,145.595244 87.800914,149.884869 C84.9975582,154.269306 80.9316223,156.401306 75.3748432,156.401306 C69.5374907,156.401306 65.3360236,154.043806 62.5326678,149.192994 C59.536715,144.024431 58.017339,134.784056 58.017339,121.728119 L58.017339,89.0895562 C58.017339,76.6383687 59.3702732,67.5107437 62.0333423,61.9578062 C64.4657707,56.8814937 68.4413524,54.4138062 74.185973,54.4138062 C79.469312,54.4138062 83.1762091,56.6969937 85.5254165,61.3966187 C88.1385531,66.6292437 90.0883002,75.2392437 91.3199696,86.9908687 L91.6195649,89.8352437 L94.2113019,89.1997437 L143.428148,77.1559937 L145.608536,76.6229937 L145.24712,74.2449937 C143.801454,64.7124937 141.51169,55.8001187 138.442027,47.7589937 C135.324809,39.5897437 130.906968,32.4173062 125.316901,26.4415562 C119.703056,20.4453062 112.612634,15.7405562 104.247744,12.4477437 C95.9304081,9.17799375 85.8178786,7.52005625 74.185973,7.52005625 M74.185973,10.0825562 C85.5991265,10.0825562 95.345484,11.6764312 103.432179,14.8564937 C111.516496,18.0365562 118.250256,22.5029937 123.642971,28.2609312 C129.028553,34.0188687 133.232398,40.8453687 136.244995,48.7327437 C139.252836,56.6201187 141.476024,65.2659937 142.90029,74.6575562 L93.6834435,86.7013062 C92.4113524,74.5729937 90.3902732,65.7323687 87.617828,60.1794312 C84.8430051,54.6316187 80.3680978,51.8513062 74.185973,51.8513062 C67.5283002,51.8513062 62.7728196,54.8314937 59.9195312,60.7816187 C57.0662428,66.7291812 55.6395987,76.1668687 55.6395987,89.0895562 L55.6395987,121.728119 C55.6395987,135.332431 57.2635953,144.939244 60.5139663,150.548556 C63.7595818,156.160431 68.7171703,158.963806 75.3748432,158.963806 C81.7115211,158.963806 86.509801,156.421806 89.760172,151.337806 C93.0057875,146.251244 94.7890928,137.602806 95.1100877,125.395056 L74.4237471,125.395056 L74.4237471,106.176306 L145.99373,106.176306 L145.99373,198.254619 L128.398452,198.254619 L121.265231,172.373369 L120.076361,172.373369 C109.611926,191.279494 93.1270523,200.732556 70.6193626,200.732556 C49.374253,200.732556 32.6944047,193.557556 20.5679292,179.207556 C8.44145363,164.857556 2.37821585,143.247994 2.37821585,114.376306 L2.37821585,96.4388062 C2.37821585,82.0888062 4.11872176,69.4941187 7.60924452,58.6419312 C11.0950118,47.7948687 15.9693794,38.7825562 22.2299696,31.6075562 C28.4905599,24.4325562 36.0232411,19.0513062 44.8185025,15.4638062 C53.6185194,11.8763062 63.4052985,10.0825562 74.185973,10.0825562" id="Fill-1" fill="#C0E7DB"></path>
            <path d="M206.875057,118.988806 C206.92499,113.215494 207.155631,108.274994 207.562224,104.277494 C208.013995,99.8110562 208.689273,96.2696812 209.566659,93.7533062 C210.337047,91.5341812 211.28101,90.0018062 212.367637,89.1997437 C213.478042,88.3823062 214.864265,87.9825562 216.611904,87.9825562 C218.247789,87.9825562 219.63639,88.3669312 220.860926,89.1561812 C221.96182,89.8711187 222.903405,91.3317437 223.661904,93.4970562 C224.536912,96.0159937 225.209813,99.5573687 225.661583,104.021244 C226.068177,108.052056 226.298818,113.077119 226.34875,118.988806 L206.875057,118.988806 Z M216.611904,53.6450562 C207.783354,53.6450562 199.60155,55.2594312 192.299509,58.4471812 C184.949914,61.6477437 178.622747,66.3012437 173.493961,72.2769937 C168.377064,78.2399312 164.365816,85.6993687 161.579105,94.4528687 C158.811415,103.129494 157.40617,113.107869 157.40617,124.113806 L157.40617,131.545056 C157.40617,153.820869 162.865462,171.312494 173.636626,183.533056 C184.433944,195.797181 200.091364,202.013806 220.178514,202.013806 C225.763826,202.013806 230.914012,201.795994 235.484029,201.368056 C240.084956,200.934994 244.62644,200.191869 248.984838,199.156619 C253.319459,198.123931 257.765833,196.773494 262.202696,195.138619 C266.572983,193.524244 271.392663,191.487056 276.528582,189.085994 L278.549661,188.140431 L277.829206,185.898244 L267.602545,154.025869 L266.746558,151.355744 L264.364062,152.534494 C256.943135,156.201431 250.218885,158.774181 244.388666,160.178431 C238.563202,161.585244 233.137199,162.295056 228.262831,162.295056 C225.105192,162.295056 222.228126,162.010619 219.712477,161.444306 C217.382292,160.921556 215.346946,159.950369 213.661128,158.553806 C212.013354,157.187994 210.619998,155.094431 209.526238,152.329494 C208.591786,149.974556 207.878464,146.958494 207.402916,143.332556 L273.439897,143.332556 L275.817637,143.332556 L275.817637,140.770056 L275.817637,124.113806 C275.817637,101.866181 270.612764,84.3899312 260.340926,72.1693687 C250.012022,59.8770562 235.296187,53.6450562 216.611904,53.6450562 Z M204.485428,121.551306 L228.738379,121.551306 C228.738379,114.376306 228.500605,108.444119 228.027435,103.741931 C227.549509,99.0448687 226.838565,95.3318062 225.885091,92.5950562 C224.933995,89.8659937 223.664282,87.9825562 222.083084,86.9575562 C220.494754,85.9325562 218.671027,85.4200562 216.611904,85.4200562 C214.391094,85.4200562 212.529324,85.9761187 211.024214,87.0856812 C209.514349,88.1978062 208.289813,90.1196812 207.338717,92.8513062 C206.387621,95.5854937 205.674298,99.3011187 205.19875,103.998181 C204.723202,108.697806 204.485428,114.550556 204.485428,121.551306 Z M216.611904,56.2075562 C234.68273,56.2075562 248.670976,62.1013062 258.57902,73.8888062 C268.484686,85.6763062 273.439897,102.422244 273.439897,124.113806 L273.439897,140.770056 L204.723202,140.770056 C205.19875,145.951431 206.069003,150.138556 207.338717,153.333994 C208.606052,156.529431 210.230049,158.943306 212.213084,160.585869 C214.193742,162.228431 216.531061,163.348244 219.227418,163.952994 C221.921398,164.557744 224.933995,164.857556 228.262831,164.857556 C233.334551,164.857556 238.88182,164.132369 244.907013,162.679431 C250.92983,161.229056 257.749189,158.622994 265.35558,154.863806 L275.582241,186.733619 C270.505766,189.109056 265.790707,191.105244 261.432309,192.714494 C257.069155,194.321181 252.753556,195.635744 248.473624,196.653056 C244.193691,197.670369 239.794872,198.390431 235.277165,198.815806 C230.759459,199.238619 225.725782,199.451306 220.178514,199.451306 C200.683422,199.451306 185.736946,193.557556 175.35811,181.770056 C164.974518,169.982556 159.783911,153.241744 159.783911,131.545056 L159.783911,124.113806 C159.783911,113.351306 161.129712,103.741931 163.828447,95.2856812 C166.520049,86.8294312 170.324433,79.7441187 175.239223,74.0169312 C180.151634,68.2948687 186.136406,63.8950562 193.191162,60.8200562 C200.24354,57.7450562 208.052039,56.2075562 216.611904,56.2075562 Z" id="Fill-3" fill="#C0E7DB"></path>
            <path d="M347.865309,8.221925 L345.204617,8.5653 L297.412037,14.7127375 L295.317248,14.9843625 L295.317248,17.2573 L295.317248,56.7198 L276.295325,56.7198 L273.917585,56.7198 L273.917585,59.2823 L273.917585,93.87605 L273.917585,96.43855 L276.295325,96.43855 L295.317248,96.43855 L295.317248,161.87455 C295.317248,175.32255 298.684128,185.621238 305.320401,192.483613 C311.935275,199.3178 322.487686,202.7823 336.689929,202.7823 C344.900266,202.7823 352.592256,201.944363 359.55428,200.288988 C366.506793,198.633613 373.697079,196.035238 380.930165,192.568175 L382.342543,191.891675 L382.342543,190.22605 L382.342543,152.5573 L382.342543,148.5598 L378.970907,150.227988 C373.278597,153.051863 368.575427,154.981425 364.989794,155.97055 C361.477872,156.936613 358.194212,157.42605 355.236304,157.42605 C352.715899,157.42605 350.906438,156.767488 349.700924,155.409363 C348.464499,154.020488 347.865309,152.011488 347.865309,149.26705 L347.865309,96.43855 L377.587062,96.43855 L379.964803,96.43855 L379.964803,93.87605 L379.964803,59.2823 L379.964803,56.7198 L377.587062,56.7198 L347.865309,56.7198 L347.865309,11.1073 L347.865309,8.221925 Z M345.487568,11.1073 L345.487568,59.2823 L377.587062,59.2823 L377.587062,93.87605 L345.487568,93.87605 L345.487568,149.26705 C345.487568,152.67005 346.319777,155.309425 347.984196,157.182613 C349.648614,159.0558 352.064398,159.98855 355.236304,159.98855 C358.405831,159.98855 361.853555,159.47605 365.579474,158.45105 C369.303015,157.42605 374.098917,155.463175 379.964803,152.5573 L379.964803,190.22605 C372.831582,193.646988 365.852914,196.163363 359.040688,197.785425 C352.223707,199.407488 344.774246,200.2198 336.689929,200.2198 C323.053589,200.2198 313.1503,197.024363 306.968175,190.63605 C300.786051,184.245175 297.694988,174.658863 297.694988,161.87455 L297.694988,93.87605 L276.295325,93.87605 L276.295325,59.2823 L297.694988,59.2823 L297.694988,17.2573 L345.487568,11.1073 Z" id="Fill-5" fill="#C0E7DB"></path>
            <path d="M551.633373,10.5955687 L549.255632,10.5955687 L452.719376,10.5955687 L450.341636,10.5955687 L450.341636,13.1580687 L450.341636,32.3768187 L450.341636,34.9393187 L452.719376,34.9393187 L472.930169,34.9393187 L472.930169,175.876819 L452.719376,175.876819 L450.341636,175.876819 L450.341636,178.439319 L450.341636,197.658069 L450.341636,200.220569 L452.719376,200.220569 L549.255632,200.220569 L551.633373,200.220569 L551.633373,197.658069 L551.633373,178.439319 L551.633373,175.876819 L549.255632,175.876819 L529.04484,175.876819 L529.04484,34.9393187 L549.255632,34.9393187 L551.633373,34.9393187 L551.633373,32.3768187 L551.633373,13.1580687 L551.633373,10.5955687 Z M549.255632,13.1580687 L549.255632,32.3768187 L526.667099,32.3768187 L526.667099,178.439319 L549.255632,178.439319 L549.255632,197.658069 L452.719376,197.658069 L452.719376,178.439319 L475.307909,178.439319 L475.307909,32.3768187 L452.719376,32.3768187 L452.719376,13.1580687 L549.255632,13.1580687 Z" id="Fill-7" fill="#C0E7DB"></path>
            <path d="M616.306007,53.836475 L613.650071,54.174725 L565.381943,60.324725 L563.282398,60.5937875 L563.282398,62.8692875 L563.282398,197.656788 L563.282398,200.219288 L565.660138,200.219288 L613.928266,200.219288 L616.306007,200.219288 L616.306007,197.656788 L616.306007,98.0421625 C619.494556,96.4687875 622.571352,95.67185 625.465062,95.67185 C628.568013,95.67185 630.667558,96.4841625 631.887339,98.1497875 C633.221251,99.9871 633.898907,102.946788 633.898907,106.94685 L633.898907,197.656788 L633.898907,200.219288 L636.276648,200.219288 L684.547153,200.219288 L686.924894,200.219288 L686.924894,197.656788 L686.924894,94.9005375 C686.924894,81.1604125 684.159582,70.882225 678.705046,64.3581 C673.179177,57.7596625 665.465788,54.4156 655.776496,54.4156 C647.751622,54.4156 640.363983,56.66035 633.825197,61.083225 C628.392061,64.7681 622.511909,70.605475 616.306007,78.477475 L616.306007,56.7192875 L616.306007,53.836475 Z M613.928266,56.7192875 L613.928266,84.3942875 L614.876985,84.3942875 C622.169514,74.490225 628.90803,67.44335 635.087777,63.2536625 C641.27228,59.0691 648.165349,56.9781 655.776496,56.9781 C664.809531,56.9781 671.861909,60.0121 676.938384,66.0724125 C682.010105,72.1404125 684.547153,81.7497875 684.547153,94.9005375 L684.547153,197.656787 L636.276648,197.656787 L636.276648,106.94685 C636.276648,102.331788 635.434927,98.874975 633.756243,96.5661625 C632.072803,94.2599125 629.309868,93.10935 625.465062,93.10935 C621.779565,93.10935 617.934759,94.221475 613.928266,96.4380375 L613.928266,197.656787 L565.660138,197.656787 L565.660138,62.8692875 L613.928266,56.7192875 Z" id="Fill-9" fill="#C0E7DB"></path>
            <path d="M830.221553,56.2075562 L826.975938,56.2075562 L779.656528,56.2075562 L777.780491,56.2075562 L777.345364,58.1755562 L760.399209,134.612369 L743.453054,58.1755562 L743.01555,56.2075562 L741.139513,56.2075562 L691.44474,56.2075562 L688.199125,56.2075562 L689.178754,59.5439312 L730.311283,199.456431 L730.836764,201.245056 L732.579648,201.245056 L785.84103,201.245056 L787.581536,201.245056 L788.107017,199.456431 L829.241924,59.5439312 L830.221553,56.2075562 Z M826.975938,58.7700562 L785.84103,198.682556 L732.579648,198.682556 L691.44474,58.7700562 L741.139513,58.7700562 L760.399209,145.638806 L779.656528,58.7700562 L826.975938,58.7700562 Z" id="Fill-11" fill="#C0E7DB"></path>
            <path d="M889.267978,166.908069 C887.520339,166.908069 886.134116,166.510881 885.026089,165.690881 C883.944218,164.893944 883.002632,163.330819 882.229867,161.034819 C881.350103,158.426194 880.674825,154.792569 880.218298,150.236444 C879.754639,145.575256 879.519243,139.630256 879.519243,132.570569 L879.519243,123.858069 C879.519243,116.800944 879.754639,110.858506 880.218298,106.194756 C880.674825,101.636069 881.350103,97.9998812 882.229867,95.3938187 C883.002632,93.1029437 883.944218,91.5346937 885.023712,90.7403187 C886.136494,89.9203187 887.525094,89.5205687 889.267978,89.5205687 C891.008484,89.5205687 892.399462,89.9203187 893.517,90.7403187 C894.591739,91.5372562 895.535702,93.1029437 896.308467,95.3938187 C897.188231,97.9998812 897.863509,101.636069 898.320035,106.194756 C898.783695,110.881569 899.019091,116.824006 899.019091,123.858069 L899.019091,132.570569 C899.019091,139.609756 898.783695,145.552194 898.320035,150.236444 C897.865887,154.792569 897.188231,158.426194 896.308467,161.034819 C895.533324,163.328256 894.591739,164.893944 893.514622,165.690881 C892.40184,166.508319 891.013239,166.908069 889.267978,166.908069 M889.267978,53.6455687 C869.506578,53.6455687 853.932379,59.8570687 842.973374,72.1109437 C832.040524,84.3340687 826.498012,101.830819 826.498012,124.114319 L826.498012,132.314319 C826.498012,154.595256 832.040524,172.092006 842.973374,184.317694 C853.932379,196.571569 869.506578,202.783069 889.267978,202.783069 C909.029378,202.783069 924.603577,196.571569 935.562582,184.317694 C946.495432,172.092006 952.040322,154.595256 952.040322,132.314319 L952.040322,124.114319 C952.040322,101.833381 946.495432,84.3366312 935.562582,72.1109437 C924.603577,59.8570687 909.029378,53.6455687 889.267978,53.6455687 M889.267978,169.470569 C891.488788,169.470569 893.34818,168.917069 894.858046,167.804944 C896.360777,166.695381 897.590069,164.729944 898.541165,161.911194 C899.494639,159.092444 900.207961,155.292256 900.683509,150.508069 C901.15668,145.726444 901.396831,139.745569 901.396831,132.570569 L901.396831,123.858069 C901.396831,116.683069 901.15668,110.704756 900.683509,105.920569 C900.207961,101.138944 899.494639,97.3361937 898.541165,94.5174437 C897.590069,91.6986937 896.360777,89.7358187 894.858046,88.6236937 C893.34818,87.5141312 891.488788,86.9580687 889.267978,86.9580687 C887.047169,86.9580687 885.185398,87.5141312 883.680288,88.6236937 C882.172801,89.7358187 880.945887,91.6986937 879.997169,94.5174437 C879.043695,97.3361937 878.330373,101.138944 877.854825,105.920569 C877.379277,110.704756 877.141503,116.683069 877.141503,123.858069 L877.141503,132.570569 C877.141503,139.745569 877.379277,145.726444 877.854825,150.508069 C878.330373,155.292256 879.043695,159.092444 879.997169,161.911194 C880.945887,164.729944 882.172801,166.695381 883.680288,167.804944 C885.185398,168.917069 887.047169,169.470569 889.267978,169.470569 M889.267978,56.2080687 C908.446831,56.2080687 923.307708,62.1018187 933.850609,73.8893187 C944.393509,85.6768187 949.662582,102.420194 949.662582,124.114319 L949.662582,132.314319 C949.662582,154.011006 944.393509,170.751819 933.850609,182.539319 C923.307708,194.326819 908.446831,200.220569 889.267978,200.220569 C870.089125,200.220569 855.228248,194.326819 844.685347,182.539319 C834.142447,170.751819 828.875752,154.011006 828.875752,132.314319 L828.875752,124.114319 C828.875752,102.420194 834.142447,85.6768187 844.685347,73.8893187 C855.228248,62.1018187 870.089125,56.2080687 889.267978,56.2080687" id="Fill-13" fill="#C0E7DB"></path>
            <g id="Group-17" transform="translate(961.607083, 0.858581)">
                <mask id="mask-2" fill="white">
                    <use xlink:href="#path-1"></use>
                </mask>
                <g id="Clip-16"></g>
                <path d="M53.6811315,0.70443125 L51.0251956,1.04268125 L2.75468971,7.19268125 L0.655145025,7.45918125 L0.655145025,9.73724375 L0.655145025,196.799744 L0.655145025,199.362244 L3.03288533,199.362244 L51.3033912,199.362244 L53.6811315,199.362244 L53.6811315,196.799744 L53.6811315,3.58724375 L53.6811315,0.70443125 Z M51.3033912,3.58724375 L51.3033912,196.799744 L3.03288533,196.799744 L3.03288533,9.73724375 L51.3033912,3.58724375 Z" id="Fill-15" fill="#C0E7DB" mask="url(#mask-2)"></path>
            </g>
            <path d="M1162.86362,56.2075562 L1159.61562,56.2075562 L1112.29621,56.2075562 L1110.42018,56.2075562 L1109.98505,58.1755562 L1093.0389,134.612369 L1076.09274,58.1755562 L1075.65524,56.2075562 L1073.7792,56.2075562 L1024.08443,56.2075562 L1020.83643,56.2075562 L1021.81844,59.5439312 L1062.95097,199.456431 L1063.47645,201.245056 L1065.21933,201.245056 L1118.48072,201.245056 L1120.22122,201.245056 L1120.7467,199.456431 L1161.88161,59.5439312 L1162.86362,56.2075562 Z M1159.61562,58.7700562 L1118.48072,198.682556 L1065.21933,198.682556 L1024.08443,58.7700562 L1073.7792,58.7700562 L1093.0389,145.638806 L1112.29621,58.7700562 L1159.61562,58.7700562 Z" id="Fill-18" fill="#C0E7DB"></path>
            <path d="M1208.60492,118.988806 C1208.65485,113.215494 1208.88549,108.274994 1209.29209,104.277494 C1209.74386,99.8110562 1210.41914,96.2696812 1211.29652,93.7533062 C1212.06691,91.5341812 1213.01087,90.0018062 1214.0975,89.1997437 C1215.20791,88.3823062 1216.59413,87.9825562 1218.34177,87.9825562 C1219.97765,87.9825562 1221.36625,88.3669312 1222.59079,89.1561812 C1223.69168,89.8711187 1224.63327,91.3317437 1225.39177,93.4970562 C1226.26678,96.0159937 1226.93968,99.5573687 1227.39145,104.021244 C1227.79804,108.052056 1228.02868,113.077119 1228.07861,118.988806 L1208.60492,118.988806 Z M1218.34177,53.6450562 C1209.51322,53.6450562 1201.33141,55.2594312 1194.02937,58.4471812 C1186.67978,61.6477437 1180.35261,66.3012437 1175.22382,72.2769937 C1170.10693,78.2399312 1166.09568,85.6993687 1163.30897,94.4528687 C1160.54128,103.129494 1159.13603,113.107869 1159.13603,124.113806 L1159.13603,131.545056 C1159.13603,153.820869 1164.59533,171.312494 1175.36649,183.533056 C1186.16381,195.797181 1201.82123,202.013806 1221.90838,202.013806 C1227.49369,202.013806 1232.64388,201.795994 1237.21389,201.368056 C1241.81482,200.934994 1246.3563,200.191869 1250.7147,199.156619 C1255.04932,198.123931 1259.4957,196.773494 1263.93256,195.138619 C1268.30285,193.524244 1273.12253,191.487056 1278.25845,189.085994 L1280.27952,188.140431 L1279.55907,185.898244 L1269.33241,154.025869 L1268.47642,151.355744 L1266.09393,152.534494 C1258.673,156.201431 1251.94875,158.774181 1246.11853,160.178431 C1240.29307,161.585244 1234.86706,162.295056 1229.99269,162.295056 C1226.83506,162.295056 1223.95799,162.010619 1221.44234,161.444306 C1219.11216,160.921556 1217.07681,159.950369 1215.39099,158.553806 C1213.74322,157.187994 1212.34986,155.094431 1211.2561,152.329494 C1210.32165,149.974556 1209.60833,146.958494 1209.13278,143.332556 L1275.16976,143.332556 L1277.5475,143.332556 L1277.5475,140.770056 L1277.5475,124.113806 C1277.5475,101.866181 1272.34263,84.3899312 1262.07079,72.1693687 C1251.74189,59.8770562 1237.02605,53.6450562 1218.34177,53.6450562 Z M1206.21529,121.551306 L1230.46824,121.551306 C1230.46824,114.376306 1230.23047,108.444119 1229.7573,103.741931 C1229.27937,99.0448687 1228.56843,95.3318062 1227.61495,92.5950562 C1226.66386,89.8659937 1225.39415,87.9825562 1223.81295,86.9575562 C1222.22462,85.9325562 1220.40089,85.4200562 1218.34177,85.4200562 C1216.12096,85.4200562 1214.25919,85.9761187 1212.75408,87.0856812 C1211.24421,88.1978062 1210.01968,90.1196812 1209.06858,92.8513062 C1208.11748,95.5854937 1207.40416,99.3011187 1206.92861,103.998181 C1206.45307,108.697806 1206.21529,114.550556 1206.21529,121.551306 Z M1218.34177,56.2075562 C1236.41259,56.2075562 1250.40084,62.1013062 1260.30888,73.8888062 C1270.21455,85.6763062 1275.16976,102.422244 1275.16976,124.113806 L1275.16976,140.770056 L1206.45307,140.770056 C1206.92861,145.951431 1207.79887,150.138556 1209.06858,153.333994 C1210.33592,156.529431 1211.95991,158.943306 1213.94295,160.585869 C1215.92361,162.228431 1218.26092,163.348244 1220.95728,163.952994 C1223.65126,164.557744 1226.66386,164.857556 1229.99269,164.857556 C1235.06441,164.857556 1240.61168,164.132369 1246.63688,162.679431 C1252.65969,161.229056 1259.47905,158.622994 1267.08544,154.863806 L1277.3121,186.733619 C1272.23563,189.109056 1267.52057,191.105244 1263.16217,192.714494 C1258.79902,194.321181 1254.48342,195.635744 1250.20349,196.653056 C1245.92355,197.670369 1241.52474,198.390431 1237.00703,198.815806 C1232.48932,199.238619 1227.45565,199.451306 1221.90838,199.451306 C1202.41328,199.451306 1187.46681,193.557556 1177.08797,181.770056 C1166.70438,169.982556 1161.51377,153.241744 1161.51377,131.545056 L1161.51377,124.113806 C1161.51377,113.351306 1162.85958,103.741931 1165.55831,95.2856812 C1168.24991,86.8294312 1172.0543,79.7441187 1176.96909,74.0169312 C1181.8815,68.2948687 1187.86627,63.8950562 1194.92103,60.8200562 C1201.9734,57.7450562 1209.7819,56.2075562 1218.34177,56.2075562 Z" id="Fill-20" fill="#C0E7DB"></path>
            <g id="Group-24" transform="translate(1283.979764, 0.858581)">
                <mask id="mask-4" fill="white">
                    <use xlink:href="#path-3"></use>
                </mask>
                <g id="Clip-23"></g>
                <path d="M62.5224435,163.230481 C61.1576206,163.230481 59.9663727,162.782044 58.8845008,161.859544 C57.7122749,160.862731 56.6375363,159.066419 55.6959511,156.516731 C54.6663895,153.751794 53.8769798,149.959294 53.3514992,145.241731 C52.8093744,140.439606 52.5359342,134.338294 52.5359342,127.099231 C52.5359342,113.164356 53.5892732,103.460169 55.669796,98.2608563 C58.3804199,91.4804813 61.4976374,91.4804813 62.5224435,91.4804813 C63.5401164,91.4804813 66.638312,91.4804813 69.2419376,98.2301063 C71.2511282,103.444794 72.2711788,113.159231 72.2711788,127.099231 C72.2711788,134.297294 71.9953609,140.401169 71.4556138,145.241731 C70.923,149.979794 70.1668786,153.790231 69.211027,156.573106 C68.3360185,159.099731 67.3112125,160.880669 66.1580084,161.859544 C65.0761366,162.782044 63.8848887,163.230481 62.5224435,163.230481 Z M125.29241,0.70391875 L122.636474,1.04216875 L74.3683457,7.19216875 L72.2711788,7.45866875 L72.2711788,9.73673125 L72.2711788,73.4532937 C68.5928145,68.0746062 64.7860523,63.6952937 60.9055801,60.3871062 C55.5818196,55.8540438 48.6031518,53.5554812 40.1716847,53.5554812 C27.4531518,53.5554812 17.4523761,59.7849187 10.4451754,72.0746687 C3.66386003,83.9569812 0.225647555,101.176981 0.225647555,123.255481 L0.225647555,131.455481 C0.225647555,153.518606 3.53546206,170.725794 10.0671147,182.602981 C16.8341636,194.913231 26.9633373,201.155481 40.1716847,201.155481 C47.8113642,201.155481 54.4642816,198.818481 59.9425953,194.205981 C64.0418196,190.756856 68.1743322,186.239169 72.2711788,180.742606 L72.2711788,198.849231 L72.2711788,201.732044 L74.9271147,201.393794 L123.195243,195.243794 L125.29241,194.977294 L125.29241,192.699231 L125.29241,3.58673125 L125.29241,0.70391875 Z M62.5224435,165.792981 C64.4246358,165.792981 66.1270978,165.152356 67.6322074,163.871106 C69.137317,162.589856 70.4046526,160.455294 71.4389696,157.464856 C72.4685312,154.476981 73.2603187,150.507669 73.8167099,145.549231 C74.3683457,140.595919 74.6489191,134.445919 74.6489191,127.099231 C74.6489191,112.749231 73.5765582,102.799044 71.4389696,97.2461063 C69.2990034,91.6957313 66.326828,88.9179813 62.5224435,88.9179813 C58.7156813,88.9179813 55.7054621,91.6957313 53.4870304,97.2461063 C51.2662209,102.799044 50.1581939,112.749231 50.1581939,127.099231 C50.1581939,134.445919 50.4316341,140.595919 50.9880253,145.549231 C51.5444165,150.507669 52.3742479,154.476981 53.4870304,157.464856 C54.5926796,160.455294 55.9028145,162.589856 57.4103019,163.871106 C58.9130337,165.152356 60.6202513,165.792981 62.5224435,165.792981 Z M122.914669,3.58673125 L122.914669,192.699231 L74.6489191,198.849231 L74.6489191,174.505481 L73.6978229,174.505481 C68.6213474,182.023856 63.5520051,187.917606 58.480285,192.186731 C53.4038094,196.458419 47.3049056,198.592981 40.1716847,198.592981 C27.8050573,198.592981 18.4534047,192.827356 12.1143491,181.296106 C5.77291568,169.764856 2.60338786,153.152169 2.60338786,131.455481 L2.60338786,123.255481 C2.60338786,101.563919 5.8918027,84.9461062 12.4710101,73.4148562 C19.0478398,61.8836062 28.2829831,56.1179812 40.1716847,56.1179812 C48.0966931,56.1179812 54.5165919,58.2115437 59.4313811,62.3961062 C64.3437926,66.5857937 69.0992732,72.5179812 73.6978229,80.2054812 L74.6489191,80.2054812 L74.6489191,9.73673125 L122.914669,3.58673125 Z" id="Fill-22" fill="#C0E7DB" mask="url(#mask-4)"></path>
            </g>
        </g>
    </g>
</svg>