<?xml version="1.0" encoding="UTF-8"?>
<svg width="808px" height="784px" viewBox="0 0 808 784" version="1.1" xmlns="http://www.w3.org/2000/svg" xmlns:xlink="http://www.w3.org/1999/xlink">
    <!-- Generator: Sketch 54.1 (76490) - https://sketchapp.com -->
    <title>Graph Copy</title>
    <desc>Created with Sketch.</desc>
    <defs>
        <rect id="path-1" x="0" y="0" width="808" height="784"></rect>
    </defs>
    <g id="1-Year-Anniversary" stroke="none" stroke-width="1" fill="none" fill-rule="evenodd">
        <g id="Homepage-" transform="translate(-789.000000, -3494.000000)">
            <g id="Graph-Copy" transform="translate(789.000000, 3494.000000)">
                <mask id="mask-2" fill="white">
                    <use xlink:href="#path-1"></use>
                </mask>
                <use id="Mask" fill="#0C1915" fill-rule="nonzero" xlink:href="#path-1"></use>
                <text id="React" mask="url(#mask-2)" font-family="SourceSansPro-Regular, Source Sans Pro" font-size="16" font-weight="normal" fill="#FFFFFF">
                    <tspan x="181.736" y="188">React</tspan>
                </text>
                <text id="React-Native-Copy" mask="url(#mask-2)" font-family="SourceSansPro-Regular, Source Sans Pro" font-size="16" font-weight="normal" fill="#FFFFFF">
                    <tspan x="135.656" y="392">React Native</tspan>
                </text>
                <text id="Javascript-(vanilla-Copy" mask="url(#mask-2)" font-family="SourceSansPro-Regular, Source Sans Pro" font-size="16" font-weight="normal" fill="#FFFFFF">
                    <tspan x="79.656" y="222">Javascript (vanilla js)</tspan>
                </text>
                <text id="Rails" mask="url(#mask-2)" font-family="SourceSansPro-Regular, Source Sans Pro" font-size="16" font-weight="normal" fill="#FFFFFF">
                    <tspan x="187.176" y="562">Rails</tspan>
                </text>
                <text id="Python" mask="url(#mask-2)" font-family="SourceSansPro-Regular, Source Sans Pro" font-size="16" font-weight="normal" fill="#FFFFFF">
                    <tspan x="170.936" y="290">Python</tspan>
                </text>
                <text id="SQL" mask="url(#mask-2)" font-family="SourceSansPro-Regular, Source Sans Pro" font-size="16" font-weight="normal" fill="#FFFFFF">
                    <tspan x="192.056" y="460">SQL</tspan>
                </text>
                <text id="Java" mask="url(#mask-2)" font-family="SourceSansPro-Regular, Source Sans Pro" font-size="16" font-weight="normal" fill="#FFFFFF">
                    <tspan x="188.04" y="324">Java</tspan>
                </text>
                <text id="Node" mask="url(#mask-2)" font-family="SourceSansPro-Regular, Source Sans Pro" font-size="16" font-weight="normal" fill="#FFFFFF">
                    <tspan x="183.16" y="358">Node</tspan>
                </text>
                <text id="Ruby-on-Rails" mask="url(#mask-2)" font-family="SourceSansPro-Regular, Source Sans Pro" font-size="16" font-weight="normal" fill="#FFFFFF">
                    <tspan x="129.288" y="256">Ruby on Rails</tspan>
                </text>
                <text id="PHP" mask="url(#mask-2)" font-family="SourceSansPro-Regular, Source Sans Pro" font-size="16" font-weight="normal" fill="#FFFFFF">
                    <tspan x="190.456" y="528">PHP</tspan>
                </text>
                <text id="jQuery-Copy" mask="url(#mask-2)" font-family="SourceSansPro-Regular, Source Sans Pro" font-size="16" font-weight="normal" fill="#FFFFFF">
                    <tspan x="174.36" y="426">jQuery</tspan>
                </text>
                <text id="Django" mask="url(#mask-2)" font-family="SourceSansPro-Regular, Source Sans Pro" font-size="16" font-weight="normal" fill="#FFFFFF">
                    <tspan x="171.88" y="596">Django</tspan>
                </text>
                <text id="Angular" mask="url(#mask-2)" font-family="SourceSansPro-Regular, Source Sans Pro" font-size="16" font-weight="normal" fill="#FFFFFF">
                    <tspan x="167.08" y="494">Angular</tspan>
                </text>
                <text id="Vue" mask="url(#mask-2)" font-family="SourceSansPro-Regular, Source Sans Pro" font-size="16" font-weight="normal" fill="#FFFFFF">
                    <tspan x="194.6" y="630">Vue</tspan>
                </text>
                <text id="CSS" mask="url(#mask-2)" font-family="SourceSansPro-Regular, Source Sans Pro" font-size="16" font-weight="normal" fill="#FFFFFF">
                    <tspan x="193.384" y="664">CSS</tspan>
                </text>
                <text id="0" mask="url(#mask-2)" font-family="SourceSansPro-Regular, Source Sans Pro" font-size="16" font-weight="normal" fill="#FFFFFF">
                    <tspan x="234.048" y="710">0</tspan>
                </text>
                <text id="10" mask="url(#mask-2)" font-family="SourceSansPro-Regular, Source Sans Pro" font-size="16" font-weight="normal" fill="#FFFFFF">
                    <tspan x="375.096" y="710">10</tspan>
                </text>
                <text id="20" mask="url(#mask-2)" font-family="SourceSansPro-Regular, Source Sans Pro" font-size="16" font-weight="normal" fill="#FFFFFF">
                    <tspan x="520.096" y="710">20</tspan>
                </text>
                <text id="30" mask="url(#mask-2)" font-family="SourceSansPro-Regular, Source Sans Pro" font-size="16" font-weight="normal" fill="#FFFFFF">
                    <tspan x="665.096" y="710">30</tspan>
                </text>
                <path d="M240,372 L268,372 C269.104569,372 270,372.895431 270,374 L270,400 C270,401.104569 269.104569,402 268,402 L240,402 L240,372 Z" id="Rectangle-Copy-2" fill="#4AB593" fill-rule="nonzero" mask="url(#mask-2)"></path>
                <path d="M240,542 L248,542 C249.104569,542 250,542.895431 250,544 L250,570 C250,571.104569 249.104569,572 248,572 L240,572 L240,542 Z" id="Rectangle-Copy-13" fill="#4AB593" fill-rule="nonzero" mask="url(#mask-2)"></path>
                <path d="M240,270 L305,270 C306.104569,270 307,270.895431 307,272 L307,298 C307,299.104569 306.104569,300 305,300 L240,300 L240,270 Z" id="Rectangle-Copy-14" fill="#4AB593" mask="url(#mask-2)"></path>
                <path d="M240,440 L258,440 C259.104569,440 260,440.895431 260,442 L260,468 C260,469.104569 259.104569,470 258,470 L240,470 L240,440 Z" id="Rectangle-Copy-15" fill="#4AB593" mask="url(#mask-2)"></path>
                <path d="M240,304 L288,304 C289.104569,304 290,304.895431 290,306 L290,332 C290,333.104569 289.104569,334 288,334 L240,334 L240,304 Z" id="Rectangle-Copy-16" fill="#4AB593" mask="url(#mask-2)"></path>
                <path d="M240,338 L288,338 C289.104569,338 290,338.895431 290,340 L290,366 C290,367.104569 289.104569,368 288,368 L240,368 L240,338 Z" id="Rectangle-Copy-17" fill="#4AB593" mask="url(#mask-2)"></path>
                <path d="M240,236 L318,236 C319.104569,236 320,236.895431 320,238 L320,264 C320,265.104569 319.104569,266 318,266 L240,266 L240,236 Z" id="Rectangle-Copy-18" fill="#4AB593" fill-rule="nonzero" mask="url(#mask-2)"></path>
                <path d="M240,508 L248,508 C249.104569,508 250,508.895431 250,510 L250,536 C250,537.104569 249.104569,538 248,538 L240,538 L240,508 Z" id="Rectangle-Copy-19" fill="#4AB593" fill-rule="nonzero" mask="url(#mask-2)"></path>
                <path d="M240,406 L268,406 C269.104569,406 270,406.895431 270,408 L270,434 C270,435.104569 269.104569,436 268,436 L240,436 L240,406 Z" id="Rectangle-Copy-26" fill="#4AB593" mask="url(#mask-2)"></path>
                <path d="M240,576 L248,576 C249.104569,576 250,576.895431 250,578 L250,604 C250,605.104569 249.104569,606 248,606 L240,606 L240,576 Z" id="Rectangle-Copy-21" fill="#4AB593" fill-rule="nonzero" mask="url(#mask-2)"></path>
                <path d="M240,474 L258,474 C259.104569,474 260,474.895431 260,476 L260,502 C260,503.104569 259.104569,504 258,504 L240,504 L240,474 Z" id="Rectangle-Copy-22" fill="#4AB593" mask="url(#mask-2)"></path>
                <path d="M240,610 L248,610 C249.104569,610 250,610.895431 250,612 L250,638 C250,639.104569 249.104569,640 248,640 L240,640 L240,610 Z" id="Rectangle-Copy-23" fill="#4AB593" fill-rule="nonzero" mask="url(#mask-2)"></path>
                <path d="M240,644 L248,644 C249.104569,644 250,644.895431 250,646 L250,672 C250,673.104569 249.104569,674 248,674 L240,674 L240,644 Z" id="Rectangle-Copy-24" fill="#4AB593" fill-rule="nonzero" mask="url(#mask-2)"></path>
                <polygon id="Line" fill="#F7F7F7" fill-rule="nonzero" mask="url(#mask-2)" points="236 154 236 691 240 691 240 154"></polygon>
                <polygon id="Line-Copy" fill="#F7F7F7" fill-rule="nonzero" mask="url(#mask-2)" points="383.25 156 383.25 689 383.75 689 383.75 156"></polygon>
                <polygon id="Line-Copy-2" fill="#F7F7F7" fill-rule="nonzero" mask="url(#mask-2)" points="527.25 156 527.25 689 527.75 689 527.75 156"></polygon>
                <polygon id="Line-Copy-3" fill="#F7F7F7" fill-rule="nonzero" mask="url(#mask-2)" points="673.25 156 673.25 689 673.75 689 673.75 156"></polygon>
                <path d="M240,168 L665,168 C666.104569,168 667,168.895431 667,170 L667,196 C667,197.104569 666.104569,198 665,198 L240,198 L240,168 Z" id="Rectangle" fill="#4AB593" fill-rule="nonzero" mask="url(#mask-2)"></path>
                <path d="M240,202 L396,202 C397.104569,202 398,202.895431 398,204 L398,230 C398,231.104569 397.104569,232 396,232 L240,232 L240,202 Z" id="Rectangle-Copy-25" fill="#4AB593" fill-rule="nonzero" mask="url(#mask-2)"></path>
                <text id="Projects-by-Language" mask="url(#mask-2)" font-family="GothicA1-Bold, Gothic A1" font-size="40" font-weight="bold" fill="#FFFFFF">
                    <tspan x="198.304688" y="86">Projects by Language</tspan>
                </text>
            </g>
        </g>
    </g>
</svg>