<?xml version="1.0" encoding="UTF-8"?>
<svg width="1295px" height="199px" viewBox="0 0 1295 199" version="1.1" xmlns="http://www.w3.org/2000/svg" xmlns:xlink="http://www.w3.org/1999/xlink">
    <!-- Generator: Sketch 54.1 (76490) - https://sketchapp.com -->
    <title>Short Note</title>
    <desc>Created with Sketch.</desc>
    <g id="1-Year-Anniversary" stroke="none" stroke-width="1" fill="none" fill-rule="evenodd">
        <g id="Homepage-" transform="translate(-309.000000, -4170.000000)" fill="#A9DFCE">
            <g id="Short-Note" transform="translate(309.000000, 4170.000000)">
                <path d="M77.9769281,6.64607595 C55.8791156,6.64607595 38.3021156,11.9093671 25.7395219,22.2891139 C13.0402406,32.7903797 6.59820937,47.8865823 6.59820937,67.1524051 C6.59820937,75.3144304 7.61577187,82.6435443 9.62811563,88.9346835 C11.6809594,95.36 15.1563656,101.142278 19.9632094,106.124557 C24.7270219,111.066329 31.1184281,115.380253 38.9602406,118.949873 C46.6729594,122.463797 56.3777719,125.54481 67.8063656,128.104304 C74.9596781,129.767595 80.8726781,131.289114 85.3631156,132.618228 C89.7193969,133.91443 93.1720219,135.248608 95.6248031,136.587848 C98.4142406,138.122025 99.6418969,139.400506 100.175991,140.203038 C100.910053,141.306835 101.266959,142.587848 101.266959,144.11443 C101.266959,147.12962 100.036772,149.304304 97.3941469,150.954937 C94.4452406,152.797975 89.1043031,153.734684 81.5206781,153.734684 C73.6915219,153.734684 66.0724594,151.868861 58.8786469,148.19038 C51.5608031,144.448608 44.5441781,139.162532 38.0236781,132.473924 L36.2492719,130.651139 L34.4368969,132.438481 L1.78630312,164.59038 L-0.000759375,166.349873 L1.74327188,168.152405 C6.72730313,173.311899 11.9568656,177.846076 17.2851469,181.623291 C22.6564594,185.438481 28.5821156,188.646076 34.9001156,191.149873 C41.2003969,193.656203 48.1031156,195.537215 55.4184281,196.739747 C62.7109594,197.937215 70.9805531,198.54481 80.0044594,198.54481 C103.750116,198.54481 122.364928,193.51443 135.329991,183.595443 C148.500084,173.511899 155.180053,158.182785 155.180053,138.038481 C155.180053,130.397975 154.205522,123.37519 152.281772,117.162532 C150.312459,110.813165 146.880084,105.068861 142.073241,100.078987 C137.317022,95.1549367 130.852209,90.7574684 122.843334,87.0106329 C114.966084,83.3321519 104.929678,79.995443 93.0049594,77.0967089 C85.6845844,75.4359494 79.7665219,73.8410127 75.3773344,72.3498734 C71.0995219,70.8992405 67.7886469,69.4486076 65.5181156,68.0410127 C62.9463656,66.4410127 61.8933656,65.1827848 61.4655844,64.4055696 C60.8251781,63.2612658 60.5163656,62.0941772 60.5163656,60.8232911 C60.5163656,57.9270886 61.6174594,55.8131646 63.9841781,54.1675949 C66.5761781,52.3701266 70.8590531,51.4562025 76.7113031,51.4562025 C82.6977094,51.4562025 88.5803344,52.8587342 94.2022406,55.6258228 C99.9279281,58.4536709 105.894084,62.7802532 111.931116,68.4865823 L113.705522,70.1625316 L115.447022,68.4486076 L148.095084,36.2967089 L149.953022,34.4713924 L148.074834,32.6688608 C143.602116,28.3726582 138.990178,24.5422785 134.365584,21.2865823 C129.659991,17.9777215 124.407647,15.195443 118.752834,13.0182278 C113.123334,10.8511392 106.901522,9.23088608 100.264584,8.19544304 C93.6732094,7.16759494 86.1756469,6.64607595 77.9769281,6.64607595 M77.9769281,9.17772152 C86.0794594,9.17772152 93.3770531,9.68405063 99.8722406,10.6967089 C106.369959,11.7093671 112.361428,13.2713924 117.844116,15.3802532 C123.326803,17.4916456 128.348803,20.1498734 132.907584,23.3549367 C137.461303,26.5625316 141.931491,30.2764557 146.320678,34.4941772 L113.672616,66.6460759 C107.422959,60.7397468 101.307459,56.3093671 95.3210531,53.3549367 C89.3270531,50.403038 83.1229594,48.924557 76.7113031,48.924557 C70.2996469,48.924557 65.5788656,49.9802532 62.5363031,52.0891139 C59.5013344,54.2005063 57.9851156,57.1118987 57.9851156,60.8232911 C57.9851156,62.5118987 58.4002406,64.1144304 59.2507406,65.6334177 C60.0911156,67.1524051 61.7364281,68.6713924 64.1841469,70.1903797 C66.6268031,71.7093671 70.0870219,73.2283544 74.5597406,74.7473418 C79.0299281,76.2663291 84.9783656,77.8713924 92.4075844,79.5574684 C104.218397,82.4283544 114.006741,85.6764557 121.770084,89.3043038 C129.530897,92.9346835 135.691959,97.1118987 140.250741,101.835949 C144.801928,106.562532 148.006491,111.922025 149.864428,117.911899 C151.719834,123.904304 152.648803,130.613165 152.648803,138.038481 C152.648803,157.448608 146.361178,171.962532 133.793522,181.582785 C121.220803,191.203038 103.289428,196.013165 80.0044594,196.013165 C71.0564906,196.013165 63.0020531,195.418228 55.8284906,194.241013 C48.6549281,193.061266 41.9901469,191.246076 35.8366781,188.797975 C29.6705531,186.352405 23.9752406,183.271392 18.7507406,179.557468 C13.5135844,175.846076 8.45108438,171.456203 3.56324063,166.392911 L36.2113031,134.241013 C42.9596156,141.162532 50.1331781,146.562532 57.7269281,150.443544 C65.3206781,154.327089 73.2510844,156.266329 81.5206781,156.266329 C89.6257406,156.266329 95.3590219,155.213165 98.7357094,153.101772 C102.107334,150.992911 103.798209,147.997975 103.798209,144.11443 C103.798209,142.089114 103.289428,140.316962 102.281991,138.797975 C101.266959,137.278987 99.4520531,135.803038 96.8372719,134.367595 C94.2174281,132.934684 90.6331781,131.542278 86.0794594,130.19038 C81.5206781,128.841013 75.6127406,127.322025 68.3607094,125.633418 C57.0536156,123.101772 47.6019281,120.106835 40.0081781,116.646076 C32.4144281,113.187848 26.3444906,109.094177 21.7857094,104.367595 C17.2269281,99.6435443 13.9793344,94.2410127 12.0403969,88.1650633 C10.0989281,82.0891139 9.12945938,75.0865823 9.12945938,67.1524051 C9.12945938,48.5878481 15.2044594,34.2840506 27.3519281,24.2410127 C39.5044594,14.2005063 56.3777719,9.17772152 77.9769281,9.17772152" id="Fill-1"></path>
                <path d="M221.501587,0.000506329114 L218.674181,0.334683544 L167.287275,6.41063291 L165.052181,6.67392405 L165.052181,8.92455696 L165.052181,193.734684 L165.052181,196.266329 L167.583431,196.266329 L218.970337,196.266329 L221.501587,196.266329 L221.501587,193.734684 L221.501587,95.316962 C224.895994,93.7625316 228.1689,92.9751899 231.251962,92.9751899 C234.552712,92.9751899 236.790337,93.7777215 238.086337,95.4232911 C239.506369,97.2359494 240.227775,100.16 240.227775,104.11443 L240.227775,193.734684 L240.227775,196.266329 L242.759025,196.266329 L294.145931,196.266329 L296.677181,196.266329 L296.677181,193.734684 L296.677181,92.2156962 C296.677181,78.6359494 293.733337,68.4840506 287.929181,62.038481 C282.049087,55.5194937 273.835181,52.2156962 263.520337,52.2156962 C254.977369,52.2156962 247.115306,54.4308861 240.149306,58.8055696 C234.3654,62.4435443 228.105619,68.2106329 221.501587,75.9878481 L221.501587,2.84860759 L221.501587,0.000506329114 Z M218.970337,2.84860759 L218.970337,81.8359494 L219.977775,81.8359494 C227.741119,72.0486076 234.914681,65.0865823 241.4934,60.9498734 C248.079712,56.8156962 255.415275,54.7473418 263.520337,54.7473418 C273.134025,54.7473418 280.644244,57.7448101 286.048462,63.7346835 C291.447619,69.7270886 294.145931,79.2207595 294.145931,92.2156962 L294.145931,193.734684 L242.759025,193.734684 L242.759025,104.11443 C242.759025,99.5574684 241.865494,96.1397468 240.0759,93.8612658 C238.286306,91.5827848 235.344994,90.4435443 231.251962,90.4435443 C227.325994,90.4435443 223.232962,91.5422785 218.970337,93.7346835 L218.970337,193.734684 L167.583431,193.734684 L167.583431,8.92455696 L218.970337,2.84860759 L218.970337,2.84860759 Z" id="Fill-4"></path>
                <path d="M372.358266,163.354684 C370.500328,163.354684 369.022078,162.962278 367.842516,162.152152 C366.688266,161.36481 365.688422,159.820506 364.870828,157.554684 C363.929203,154.967342 363.207797,151.377468 362.726859,146.883797 C362.233266,142.283797 361.980141,136.412911 361.980141,129.430633 L361.980141,120.823038 C361.980141,113.843291 362.233266,107.974937 362.726859,103.372405 C363.207797,98.8762025 363.929203,95.2863291 364.868297,92.701519 C365.688422,90.4356962 366.688266,88.8913924 367.839984,88.1040506 C369.024609,87.2939241 370.502859,86.8989873 372.358266,86.8989873 C374.213672,86.8989873 375.694453,87.2939241 376.884141,88.1040506 C378.028266,88.8888608 379.028109,90.4382278 379.853297,92.701519 C380.792391,95.2863291 381.513797,98.8762025 381.994734,103.369873 C382.488328,108.017975 382.741453,113.888861 382.741453,120.823038 L382.741453,129.430633 C382.741453,136.367342 382.488328,142.240759 381.994734,146.883797 C381.513797,151.377468 380.792391,154.967342 379.853297,157.552152 C379.028109,159.820506 378.028266,161.367342 376.881609,162.152152 C375.696984,162.959747 374.216203,163.354684 372.358266,163.354684 M372.358266,51.4559494 C351.321047,51.4559494 334.741359,57.5926582 323.072297,69.6989873 C311.438672,81.7749367 305.538328,99.0610127 305.538328,121.076203 L305.538328,129.177468 C305.538328,151.192658 311.438672,168.478734 323.072297,180.554684 C334.741359,192.661013 351.321047,198.797722 372.358266,198.797722 C393.395484,198.797722 409.975172,192.661013 421.644234,180.554684 C433.280391,168.476203 439.183266,151.190127 439.183266,129.177468 L439.183266,121.076203 C439.183266,99.0635443 433.280391,81.7774684 421.644234,69.6989873 C409.975172,57.5926582 393.395484,51.4559494 372.358266,51.4559494 M372.358266,165.886329 C374.722453,165.886329 376.704422,165.339494 378.311766,164.240759 C379.911516,163.144557 381.217641,161.202785 382.230141,158.417975 C383.245172,155.633165 384.007078,151.878734 384.510797,147.152152 C385.014516,142.428101 385.272703,136.519241 385.272703,129.430633 L385.272703,120.823038 C385.272703,113.73443 385.014516,107.828101 384.510797,103.101519 C384.007078,98.3774684 383.245172,94.6205063 382.230141,91.8356962 C381.217641,89.0508861 379.911516,87.1116456 378.311766,86.0129114 C376.704422,84.9167089 374.722453,84.3673418 372.358266,84.3673418 C369.994078,84.3673418 368.012109,84.9167089 366.409828,86.0129114 C364.805016,87.1116456 363.498891,89.0508861 362.491453,91.8356962 C361.476422,94.6205063 360.714516,98.3774684 360.210797,103.101519 C359.702016,107.828101 359.448891,113.73443 359.448891,120.823038 L359.448891,129.430633 C359.448891,136.519241 359.702016,142.428101 360.210797,147.152152 C360.714516,151.878734 361.476422,155.633165 362.491453,158.417975 C363.498891,161.202785 364.805016,163.144557 366.409828,164.240759 C368.012109,165.339494 369.994078,165.886329 372.358266,165.886329 M372.358266,53.9875949 C392.775328,53.9875949 408.595641,59.8103797 419.819203,71.4559494 C431.042766,83.101519 436.652016,99.6432911 436.652016,121.076203 L436.652016,129.177468 C436.652016,150.612911 431.042766,167.152152 419.819203,178.797722 C408.595641,190.443291 392.775328,196.266076 372.358266,196.266076 C351.941203,196.266076 336.120891,190.443291 324.897328,178.797722 C313.673766,167.152152 308.069578,150.612911 308.069578,129.177468 L308.069578,121.076203 C308.069578,99.6432911 313.673766,83.101519 324.897328,71.4559494 C336.120891,59.8103797 351.941203,53.9875949 372.358266,53.9875949" id="Fill-6"></path>
                <path d="M636.616716,6.57924051 L633.784247,6.91848101 L582.906122,12.9918987 L580.676091,13.2602532 L580.676091,15.5058228 L580.676091,54.4931646 L560.426091,54.4931646 L557.894841,54.4931646 L557.894841,57.0248101 L557.894841,91.2020253 L557.894841,93.7336709 L560.426091,93.7336709 L580.676091,93.7336709 L580.676091,158.381772 C580.676091,171.667848 584.260341,181.842532 591.327591,188.622278 C598.366997,195.374177 609.600684,198.796962 624.722372,198.796962 C633.462778,198.796962 641.651372,197.969114 649.060341,196.333671 C656.459184,194.698228 664.113684,192.131139 671.816278,188.705823 L673.319841,188.037468 L673.319841,186.391899 L673.319841,149.176709 L673.319841,145.227342 L669.730528,146.875443 C663.670716,149.662785 658.666434,151.571646 654.849309,152.548861 C651.108122,153.503291 647.612466,153.986835 644.463591,153.986835 C641.780466,153.986835 639.854184,153.336203 638.573372,151.996962 C637.254591,150.619747 636.616716,148.637468 636.616716,145.926076 L636.616716,93.7336709 L668.257341,93.7336709 L670.788591,93.7336709 L670.788591,91.2020253 L670.788591,57.0248101 L670.788591,54.4931646 L668.257341,54.4931646 L636.616716,54.4931646 L636.616716,9.42987342 L636.616716,6.57924051 Z M634.085466,9.42987342 L634.085466,57.0248101 L668.257341,57.0248101 L668.257341,91.2020253 L634.085466,91.2020253 L634.085466,145.926076 C634.085466,149.288101 634.971403,151.895696 636.745809,153.746329 C638.515153,155.596962 641.086903,156.518481 644.463591,156.518481 C647.840278,156.518481 651.508059,156.012152 655.477059,154.999494 C659.438466,153.986835 664.543997,152.047595 670.788591,149.176709 L670.788591,186.391899 C663.194841,189.771646 655.768153,192.257722 648.516122,193.860253 C641.259028,195.462785 633.328622,196.265316 624.722372,196.265316 C610.205653,196.265316 599.660466,193.108354 593.081747,186.796962 C586.500497,180.483038 583.207341,171.012152 583.207341,158.381772 L583.207341,91.2020253 L560.426091,91.2020253 L560.426091,57.0248101 L583.207341,57.0248101 L583.207341,15.5058228 L634.085466,9.42987342 L634.085466,9.42987342 Z" id="Fill-8"></path>
                <path d="M900.370941,8.9243038 L897.839691,8.9243038 L847.472878,8.9243038 L844.941628,8.9243038 L844.941628,11.4559494 L844.941628,87.3470886 L804.909909,10.2888608 L804.203691,8.9243038 L802.664691,8.9243038 L751.285378,8.9243038 L748.754128,8.9243038 L748.754128,11.4559494 L748.754128,193.73443 L748.754128,196.266076 L751.285378,196.266076 L801.399066,196.266076 L803.930316,196.266076 L803.930316,193.73443 L803.930316,108.661013 L849.156159,194.909114 L849.864909,196.266076 L851.396316,196.266076 L897.839691,196.266076 L900.370941,196.266076 L900.370941,193.73443 L900.370941,11.4559494 L900.370941,8.9243038 Z M897.839691,11.4559494 L897.839691,193.73443 L851.396316,193.73443 L802.414097,100.316709 L801.399066,100.316709 L801.399066,193.73443 L751.285378,193.73443 L751.285378,11.4559494 L802.664691,11.4559494 L846.457847,95.7597468 L847.472878,95.7597468 L847.472878,11.4559494 L897.839691,11.4559494 Z" id="Fill-10"></path>
                <path d="M975.547294,163.354684 C973.689356,163.354684 972.211106,162.962278 971.031544,162.152152 C969.879825,161.367342 968.87745,159.820506 968.052262,157.552152 C967.118231,154.985063 966.399356,151.39519 965.910825,146.881266 C965.419762,142.271139 965.169169,136.400253 965.169169,129.430633 L965.169169,120.823038 C965.169169,113.858481 965.419762,107.985063 965.910825,103.369873 C966.399356,98.858481 967.118231,95.2686076 968.052262,92.701519 C968.87745,90.4382278 969.877294,88.8888608 971.029012,88.1040506 C972.213637,87.2939241 973.691887,86.8989873 975.547294,86.8989873 C977.400169,86.8989873 978.878419,87.2939241 980.068106,88.1040506 C981.217294,88.8913924 982.219669,90.4407595 983.042325,92.701519 C983.976356,95.2686076 984.695231,98.858481 985.183762,103.372405 C985.674825,107.985063 985.925419,113.858481 985.925419,120.823038 L985.925419,129.430633 C985.925419,136.400253 985.674825,142.271139 985.183762,146.883797 C984.695231,151.39519 983.976356,154.985063 983.042325,157.552152 C982.217137,159.815443 981.214762,161.36481 980.065575,162.152152 C978.88095,162.959747 977.4027,163.354684 975.547294,163.354684 M975.547294,51.4559494 C954.510075,51.4559494 937.930387,57.5926582 926.261325,69.6989873 C914.625169,81.7774684 908.722294,99.0635443 908.722294,121.076203 L908.722294,129.177468 C908.722294,151.190127 914.625169,168.476203 926.261325,180.554684 C937.930387,192.661013 954.510075,198.797722 975.547294,198.797722 C996.584512,198.797722 1013.1642,192.661013 1024.83326,180.554684 C1036.46942,168.476203 1042.37229,151.190127 1042.37229,129.177468 L1042.37229,121.076203 C1042.37229,99.0635443 1036.46942,81.7774684 1024.83326,69.6989873 C1013.1642,57.5926582 996.584512,51.4559494 975.547294,51.4559494 M975.547294,165.886329 C977.911481,165.886329 979.888387,165.339494 981.495731,164.240759 C983.095481,163.144557 984.406669,161.202785 985.419169,158.417975 C986.4342,155.633165 987.191044,151.878734 987.699825,147.152152 C988.203544,142.428101 988.456669,136.519241 988.456669,129.430633 L988.456669,120.823038 C988.456669,113.73443 988.203544,107.828101 987.699825,103.101519 C987.191044,98.3774684 986.4342,94.6205063 985.419169,91.8356962 C984.406669,89.0508861 983.095481,87.1116456 981.495731,86.0129114 C979.888387,84.9167089 977.911481,84.3673418 975.547294,84.3673418 C973.183106,84.3673418 971.201137,84.9167089 969.598856,86.0129114 C967.994044,87.1116456 966.687919,89.0508861 965.675419,91.8356962 C964.660387,94.6205063 963.903544,98.3774684 963.394762,103.101519 C962.891044,107.828101 962.637919,113.73443 962.637919,120.823038 L962.637919,129.430633 C962.637919,136.519241 962.891044,142.428101 963.394762,147.152152 C963.903544,151.878734 964.660387,155.633165 965.675419,158.417975 C966.687919,161.202785 967.994044,163.144557 969.598856,164.240759 C971.201137,165.339494 973.183106,165.886329 975.547294,165.886329 M975.547294,53.9875949 C995.964356,53.9875949 1011.78467,59.8103797 1023.00823,71.4559494 C1034.23179,83.101519 1039.84104,99.6432911 1039.84104,121.076203 L1039.84104,129.177468 C1039.84104,150.612911 1034.23179,167.152152 1023.00823,178.797722 C1011.78467,190.443291 995.964356,196.266076 975.547294,196.266076 C955.130231,196.266076 939.309919,190.443291 928.086356,178.797722 C916.862794,167.152152 911.253544,150.612911 911.253544,129.177468 L911.253544,121.076203 C911.253544,99.6432911 916.862794,83.101519 928.086356,71.4559494 C939.309919,59.8103797 955.130231,53.9875949 975.547294,53.9875949" id="Fill-12"></path>
                <path d="M1123.87753,6.57924051 L1121.04506,6.91848101 L1070.16694,12.9918987 L1067.93691,13.2602532 L1067.93691,15.5058228 L1067.93691,54.4931646 L1047.68691,54.4931646 L1045.15566,54.4931646 L1045.15566,57.0248101 L1045.15566,91.2020253 L1045.15566,93.7336709 L1047.68691,93.7336709 L1067.93691,93.7336709 L1067.93691,158.381772 C1067.93691,171.667848 1071.52116,181.842532 1078.58841,188.622278 C1085.62781,195.374177 1096.8615,198.796962 1111.98319,198.796962 C1120.72359,198.796962 1128.91219,197.969114 1136.32116,196.333671 C1143.72,194.698228 1151.3745,192.131139 1159.07709,188.705823 L1160.58066,188.037468 L1160.58066,186.391899 L1160.58066,149.176709 L1160.58066,145.227342 L1156.99134,146.875443 C1150.93153,149.662785 1145.92725,151.571646 1142.11012,152.548861 C1138.36894,153.503291 1134.87328,153.986835 1131.72441,153.986835 C1129.04128,153.986835 1127.115,153.336203 1125.83419,151.996962 C1124.51541,150.619747 1123.87753,148.637468 1123.87753,145.926076 L1123.87753,93.7336709 L1155.51816,93.7336709 L1158.04941,93.7336709 L1158.04941,91.2020253 L1158.04941,57.0248101 L1158.04941,54.4931646 L1155.51816,54.4931646 L1123.87753,54.4931646 L1123.87753,9.42987342 L1123.87753,6.57924051 Z M1121.34628,9.42987342 L1121.34628,57.0248101 L1155.51816,57.0248101 L1155.51816,91.2020253 L1121.34628,91.2020253 L1121.34628,145.926076 C1121.34628,149.288101 1122.23222,151.895696 1124.00662,153.746329 C1125.77597,155.596962 1128.34772,156.518481 1131.72441,156.518481 C1135.10109,156.518481 1138.76887,156.012152 1142.73788,154.999494 C1146.69928,153.986835 1151.80481,152.047595 1158.04941,149.176709 L1158.04941,186.391899 C1150.45566,189.771646 1143.02897,192.257722 1135.77694,193.860253 C1128.51984,195.462785 1120.58944,196.265316 1111.98319,196.265316 C1097.46647,196.265316 1086.92128,193.108354 1080.34256,186.796962 C1073.76131,180.483038 1070.46816,171.012152 1070.46816,158.381772 L1070.46816,91.2020253 L1047.68691,91.2020253 L1047.68691,57.0248101 L1070.46816,57.0248101 L1070.46816,15.5058228 L1121.34628,9.42987342 L1121.34628,9.42987342 Z" id="Fill-14"></path>
                <path d="M1217.7983,116.012405 C1217.85398,110.303544 1218.09952,105.422532 1218.53236,101.478228 C1219.01077,97.0756962 1219.72964,93.576962 1220.66367,91.0807595 C1221.4838,88.8883544 1222.4887,87.3744304 1223.64548,86.5820253 C1224.82505,85.7744304 1226.3033,85.3794937 1228.16377,85.3794937 C1229.90273,85.3794937 1231.38605,85.7592405 1232.68711,86.5389873 C1233.85908,87.2427848 1234.86145,88.6883544 1235.66892,90.8275949 C1236.60295,93.3237975 1237.3193,96.8225316 1237.7977,101.222532 C1238.23308,105.217468 1238.47861,110.184557 1238.5343,116.012405 L1217.7983,116.012405 Z M1228.16377,51.455443 C1218.76777,51.455443 1210.05773,53.0503797 1202.28173,56.1997468 C1194.45511,59.3643038 1187.72198,63.9592405 1182.26461,69.863038 C1176.81736,75.7516456 1172.54461,83.1237975 1169.57798,91.7718987 C1166.63161,100.338987 1165.13817,110.199747 1165.13817,121.075696 L1165.13817,128.417468 C1165.13817,150.427595 1170.94992,167.708608 1182.41395,179.779494 C1193.90836,191.895949 1210.57664,198.037722 1231.96064,198.037722 C1237.90655,198.037722 1243.38923,197.822532 1248.25683,197.399747 C1253.15986,196.971899 1257.99455,196.237722 1262.62673,195.214937 C1267.23361,194.197215 1271.96958,192.863038 1276.70302,191.245316 C1281.35292,189.647848 1286.4863,187.637722 1291.94873,185.26557 L1294.1003,184.331392 L1293.33333,182.116203 L1282.44642,150.627595 L1281.53517,147.98962 L1278.99886,149.154177 C1271.09883,152.776962 1263.94045,155.318734 1257.7313,156.706076 C1251.53227,158.095949 1245.75848,158.797215 1240.56689,158.797215 C1237.20539,158.797215 1234.14511,158.516203 1231.46705,157.956709 C1228.95098,157.432658 1226.84245,156.498481 1225.02248,155.101013 C1223.26833,153.751646 1221.78502,151.683291 1220.62317,148.951646 C1219.63092,146.632658 1218.86902,143.65038 1218.36023,140.063038 L1288.66064,140.063038 L1291.19189,140.063038 L1291.19189,137.531392 L1291.19189,121.075696 C1291.19189,99.0959494 1285.65098,81.8301266 1274.71598,69.7567089 C1263.72023,57.6124051 1248.05686,51.455443 1228.16377,51.455443 L1228.16377,51.455443 Z M1215.25439,118.544051 L1241.07567,118.544051 C1241.07567,111.455443 1240.82002,105.594684 1240.3163,100.949114 C1239.81005,96.3086076 1239.05067,92.6402532 1238.03564,89.9364557 C1237.02314,87.2402532 1235.67398,85.3794937 1233.98817,84.3668354 C1232.2973,83.3541772 1230.35836,82.8478481 1228.16377,82.8478481 C1225.79958,82.8478481 1223.81761,83.3972152 1222.21533,84.4934177 C1220.60798,85.5921519 1219.30439,87.4908861 1218.29442,90.1896203 C1217.28192,92.8908861 1216.52002,96.5617722 1216.0163,101.202278 C1215.50752,105.845316 1215.25439,111.627595 1215.25439,118.544051 L1215.25439,118.544051 Z M1228.16377,53.9870886 C1247.4038,53.9870886 1262.29514,59.8098734 1272.84033,71.455443 C1283.38552,83.1010127 1288.66064,99.6453165 1288.66064,121.075696 L1288.66064,137.531392 L1215.50752,137.531392 C1216.0163,142.65038 1216.9402,146.787089 1218.29442,149.944051 C1219.64105,153.101013 1221.36989,155.485823 1223.48095,157.108608 C1225.59202,158.731392 1228.08023,159.837722 1230.95067,160.43519 C1233.81858,161.032658 1237.02314,161.328861 1240.56689,161.328861 C1245.96605,161.328861 1251.87398,160.612405 1258.28564,159.176962 C1264.6973,157.744051 1271.95692,155.169367 1280.05439,151.455443 L1290.9413,182.941519 C1285.53708,185.288354 1280.51761,187.260506 1275.88036,188.85038 C1271.23298,190.437722 1266.6413,191.736456 1262.08252,192.741519 C1257.5288,193.746582 1252.84345,194.457975 1248.03661,194.878228 C1243.22723,195.295949 1237.86858,195.506076 1231.96064,195.506076 C1211.20692,195.506076 1195.29548,189.683291 1184.24658,178.037722 C1173.19261,166.392152 1167.66942,149.852911 1167.66942,128.417468 L1167.66942,121.075696 C1167.66942,110.442785 1169.09958,100.949114 1171.97255,92.5946835 C1174.83792,84.2402532 1178.88792,77.2402532 1184.12255,71.5820253 C1189.34958,65.9288608 1195.72073,61.5820253 1203.23095,58.5440506 C1210.74117,55.5060759 1219.05127,53.9870886 1228.16377,53.9870886 L1228.16377,53.9870886 Z" id="Fill-16"></path>
                <path d="M503.038856,50.5321519 L500.206387,50.8713924 L449.183981,56.995443 L446.95395,57.2612658 L446.95395,59.5093671 L446.95395,193.719494 L446.95395,196.251139 L449.4852,196.251139 L500.507606,196.251139 L503.038856,196.251139 L503.038856,193.719494 L503.038856,147.742278 C503.038856,120.31443 513.055012,108.081519 535.519856,108.081519 C540.919012,108.081519 543.662887,108.458734 548.641856,109.139747 L551.512294,109.534684 L551.512294,106.633418 L551.512294,56.595443 L551.512294,54.4131646 L549.3582,54.0916456 L549.160762,54.0637975 C546.011887,53.5903797 543.736294,53.2511392 539.020575,53.2511392 C523.3572,53.2511392 510.422512,61.1903797 503.041387,74.6764557 L503.038856,53.3853165 L503.038856,50.5321519 Z M500.507606,53.3853165 L500.512669,88.5118987 C505.4562,67.403038 521.000606,55.7827848 539.020575,55.7827848 C543.642637,55.7827848 545.7942,56.1194937 548.981044,56.595443 L548.981044,106.633418 C543.883106,105.932152 541.012669,105.549873 535.519856,105.549873 C515.976075,105.549873 500.507606,114.223291 500.507606,147.742278 L500.507606,193.719494 L449.4852,193.719494 L449.4852,59.5093671 L500.507606,53.3853165 L500.507606,53.3853165 Z" id="Fill-19"></path>
            </g>
        </g>
    </g>
</svg>