<?xml version="1.0" encoding="UTF-8"?>
<svg width="1300px" height="198px" viewBox="0 0 1300 198" version="1.1" xmlns="http://www.w3.org/2000/svg" xmlns:xlink="http://www.w3.org/1999/xlink">
    <!-- Generator: Sketch 54.1 (76490) - https://sketchapp.com -->
    <title>THank You</title>
    <desc>Created with Sketch.</desc>
    <g id="1-Year-Anniversary" stroke="none" stroke-width="1" fill="none" fill-rule="evenodd">
        <g id="Homepage-" transform="translate(-314.000000, -358.000000)" fill="#44957C" fill-rule="nonzero">
            <g id="THank-You" transform="translate(314.000000, 358.000000)">
                <polygon id="Fill-1" points="0 9.32673267 0 55.6633663 46.0792079 55.6633663 46.0792079 194.673267 101.683168 194.673267 101.683168 55.6633663 147.762376 55.6633663 147.762376 9.32673267"></polygon>
                <path d="M232.198792,194.67301 L232.198792,103.544297 C232.198792,98.9106337 231.287505,95.4353861 229.467505,93.1185545 C227.644931,90.8017228 224.653644,89.6433069 220.491069,89.6433069 C216.50097,89.6433069 212.338396,90.7605347 208.003347,92.9898416 L208.003347,194.67301 L155.745921,194.67301 L155.745921,6.75221782 L208.003347,0.574 L208.003347,80.8908317 L209.030475,80.8908317 C216.923149,70.9413267 224.218594,63.8621188 230.911663,59.6532079 C237.607307,55.4494455 245.070079,53.3462772 253.307703,53.3462772 C263.089881,53.3462772 270.725129,56.394198 276.221168,62.4848911 C281.709485,68.5781584 284.458792,78.2316238 284.458792,91.4452871 L284.458792,194.67301 L232.198792,194.67301 Z" id="Fill-2"></path>
                <path d="M371.977881,129.801208 C360.99095,131.518238 353.610554,134.221208 349.836693,137.910119 C346.062832,141.601604 344.175901,146.366554 344.175901,152.197248 C344.175901,161.63705 348.976891,166.355663 358.591743,166.355663 C361.166,166.355663 363.439069,166.142 365.413525,165.712099 C367.385406,165.287347 369.57095,164.468733 371.977881,163.266554 L371.977881,129.801208 Z M391.668376,191.197248 C382.658475,188.023188 376.778871,183.433287 374.037287,177.42497 L372.750158,177.42497 C366.569366,183.603188 360.476099,188.236851 354.472931,191.32596 C348.46204,194.415069 341.601644,195.959624 333.878871,195.959624 C328.900257,195.959624 324.181644,195.143584 319.720455,193.514079 C315.256693,191.884574 311.354119,189.52398 308.00501,186.434871 C304.66105,183.345762 301.996693,179.484376 300.027386,174.850713 C298.050356,170.21705 297.064416,164.901208 297.064416,158.890317 C297.064416,144.819426 303.02897,133.92002 314.958079,126.197248 C326.88204,118.474475 345.887782,113.758436 371.977881,112.038832 L371.977881,101.484376 C371.977881,97.5380396 370.731941,94.3639802 368.245208,91.9596238 C365.755901,89.5578416 362.105604,88.3556634 357.304614,88.3556634 C352.67095,88.3556634 347.174911,89.2566535 340.826792,91.0586337 C334.478673,92.8606139 326.498475,96.2509109 316.888772,101.22695 L303.500059,71.1081386 C314.481842,65.4447723 324.910158,61.112297 334.779861,58.1081386 C344.64699,55.1065545 355.157683,53.6031881 366.314515,53.6031881 C385.36402,53.6031881 399.08996,57.2509109 407.502634,64.5437822 C415.907584,71.8392277 420.116495,83.8944752 420.116495,100.712099 L420.116495,165.840812 C420.116495,170.64695 420.888772,173.736059 422.433327,175.108139 C423.977881,176.485366 427.236891,177.597446 432.212931,178.454673 L432.212931,195.959624 C414.193129,195.959624 400.678277,194.373881 391.668376,191.197248 L391.668376,191.197248 Z" id="Fill-4"></path>
                <path d="M520.254079,194.67301 L520.254079,103.544297 C520.254079,98.9106337 519.342792,95.4353861 517.522792,93.1185545 C515.700218,90.8017228 512.708931,89.6433069 508.546356,89.6433069 C504.556257,89.6433069 500.393683,90.7605347 496.058634,92.9898416 L496.058634,194.67301 L443.801208,194.67301 L443.801208,59.2670693 L496.058634,53.0888515 L496.058634,80.8908317 L497.085762,80.8908317 C504.978436,70.9413267 512.273881,63.8621188 518.96695,59.6532079 C525.662594,55.4494455 533.125366,53.3462772 541.36299,53.3462772 C551.145168,53.3462772 558.780416,56.394198 564.276455,62.4848911 C569.764772,68.5781584 572.514079,78.2316238 572.514079,91.4452871 L572.514079,194.67301 L520.254079,194.67301 Z" id="Fill-6"></path>
                <path d="M680.886198,194.67301 L645.361446,124.653208 L645.361446,123.880931 L679.341644,55.1482574 L733.918475,55.1482574 L697.10402,123.366079 L736.747584,194.67301 L680.886198,194.67301 Z M591.047188,194.67301 L591.047188,6.75221782 L643.30204,0.574 L643.30204,194.67301 L591.047188,194.67301 Z" id="Fill-8"></path>
                <polygon id="Fill-10" points="914.625941 120.534911 914.625941 194.673525 859.02198 194.673525 859.02198 121.564614 802.645743 9.3269901 862.113663 9.3269901 889.398218 71.1091683 916.685347 9.3269901 971.002178 9.3269901"></polygon>
                <path d="M1024.03188,120.534911 C1024.03188,113.32699 1023.77188,107.321248 1023.2596,102.515109 C1022.74475,97.7115446 1021.97248,93.8913465 1020.94277,91.0596634 C1019.9105,88.2279802 1018.58218,86.256099 1016.95267,85.1388713 C1015.31802,84.0242178 1013.30495,83.465604 1010.90059,83.465604 C1008.49881,83.465604 1006.48317,84.0242178 1004.85366,85.1388713 C1003.21901,86.256099 1001.89069,88.2279802 1000.86356,91.0596634 C999.833861,93.8913465 999.061584,97.7115446 998.546733,102.515109 C998.029307,107.321248 997.774455,113.32699 997.774455,120.534911 L997.774455,129.287386 C997.774455,136.495307 998.029307,142.503624 998.546733,147.307188 C999.061584,152.113327 999.833861,155.93095 1000.86356,158.762634 C1001.89069,161.594317 1003.21901,163.568772 1004.85366,164.683426 C1006.48317,165.800653 1008.49881,166.356693 1010.90059,166.356693 C1013.30495,166.356693 1015.31802,165.800653 1016.95267,164.683426 C1018.58218,163.568772 1019.9105,161.594317 1020.94277,158.762634 C1021.97248,155.93095 1022.74475,152.113327 1023.2596,147.307188 C1023.77188,142.503624 1024.03188,136.495307 1024.03188,129.287386 L1024.03188,120.534911 Z M1059.16792,179.485406 C1047.75624,191.32699 1031.66713,197.247782 1010.90059,197.247782 C990.136634,197.247782 974.047525,191.32699 962.633267,179.485406 C951.221584,167.643822 945.51703,150.826198 945.51703,129.02996 L945.51703,120.792337 C945.51703,98.9986733 951.221584,82.1784752 962.633267,70.3368911 C974.047525,58.4953069 990.136634,52.5745149 1010.90059,52.5745149 C1031.66713,52.5745149 1047.75624,58.4953069 1059.16792,70.3368911 C1070.58218,82.1784752 1076.28931,98.9986733 1076.28931,120.792337 L1076.28931,129.02996 C1076.28931,150.826198 1070.58218,167.643822 1059.16792,179.485406 L1059.16792,179.485406 Z" id="Fill-12"></path>
                <path d="M1166.64162,196.731901 L1166.64162,168.929921 L1165.61192,168.929921 C1161.66044,173.911109 1157.88915,178.158634 1154.28261,181.672495 C1150.68123,185.194079 1147.11588,188.023188 1143.60202,190.167545 C1140.08301,192.31705 1136.52281,193.900218 1132.91628,194.929921 C1129.31489,195.959624 1125.4535,196.474475 1121.33212,196.474475 C1111.55251,196.474475 1103.91469,193.429129 1098.4238,187.335861 C1092.92776,181.245168 1090.18618,171.591703 1090.18618,158.375465 L1090.18618,55.1477426 L1142.4436,55.1477426 L1142.4436,146.276455 C1142.4436,150.910119 1143.35232,154.385366 1145.17232,156.702198 C1146.99232,159.01903 1149.9836,160.177446 1154.15133,160.177446 C1158.14143,160.177446 1162.304,159.062792 1166.64162,156.830911 L1166.64162,55.1477426 L1218.89905,55.1477426 L1218.89905,190.553683 L1166.64162,196.731901 Z" id="Fill-15"></path>
                <path d="M1287.88554,188.752733 C1282.73703,193.901248 1276.30139,196.475505 1268.57861,196.475505 C1260.85584,196.475505 1254.4202,193.901248 1249.27168,188.752733 C1244.12317,183.604218 1241.54891,177.168574 1241.54891,169.445802 C1241.54891,161.72303 1244.12317,155.287386 1249.27168,150.138871 C1254.4202,144.990356 1260.85584,142.416099 1268.57861,142.416099 C1276.30139,142.416099 1282.73703,144.990356 1287.88554,150.138871 C1293.03406,155.287386 1295.60832,161.72303 1295.60832,169.445802 C1295.60832,177.168574 1293.03406,183.604218 1287.88554,188.752733 L1287.88554,188.752733 Z M1284.28416,129.544812 L1252.87564,129.544812 L1237.4301,9.3269901 L1299.7297,9.3269901 L1284.28416,129.544812 Z" id="Fill-17"></path>
            </g>
        </g>
    </g>
</svg>