<?xml version="1.0" encoding="UTF-8"?>
<svg width="1098px" height="197px" viewBox="0 0 1098 197" version="1.1" xmlns="http://www.w3.org/2000/svg" xmlns:xlink="http://www.w3.org/1999/xlink">
    <!-- Generator: Sketch 54.1 (76490) - https://sketchapp.com -->
    <title>Group 18</title>
    <desc>Created with Sketch.</desc>
    <g id="1-Year-Anniversary" stroke="none" stroke-width="1" fill="none" fill-rule="evenodd">
        <g id="Homepage-" transform="translate(-378.000000, -1593.000000)" fill="#BBE6D8">
            <g id="Group-18" transform="translate(378.000000, 1591.000000)">
                <path d="M249.1515,11.31475 L194.6515,11.31475 L192.5015,11.31475 L192.179,13.44225 L176.6515,116.72225 L156.6065,13.33725 L156.214,11.31475 L154.1515,11.31475 L99.6515,11.31475 L97.589,11.31475 L97.199,13.33725 L77.1515,116.72225 L61.624,13.44225 L61.3065,11.31475 L59.1515,11.31475 L3.149,11.31475 L0.0015,11.31475 L0.7165,14.38475 L42.969,195.37975 L43.419,197.31225 L45.4015,197.31225 L101.9015,197.31225 L103.9265,197.31225 L104.3465,195.33225 L126.1515,92.96475 L147.9565,195.33225 L148.379,197.31225 L150.4015,197.31225 L206.9015,197.31225 L208.884,197.31225 L209.3365,195.37975 L251.5865,14.38475 L252.3015,11.31475 L249.1515,11.31475 Z M177.4015,128.56225 L194.6515,13.81475 L249.1515,13.81475 L206.9015,194.81225 L150.4015,194.81225 L126.6515,83.31225 L125.6515,83.31225 L101.9015,194.81225 L45.4015,194.81225 L3.149,13.81475 L59.1515,13.81475 L76.404,128.56225 L77.399,128.56225 L99.6515,13.81475 L154.1515,13.81475 L176.4015,128.56225 L177.4015,128.56225 Z" id="Fill-1"></path>
                <path d="M291.41475,117.0635 C291.46725,111.431 291.70975,106.611 292.13725,102.711 C292.61225,98.3535 293.32225,94.8985 294.24475,92.441 C295.05475,90.2785 296.04725,88.7835 297.18975,88.001 C298.35475,87.2035 299.81475,86.8135 301.65225,86.8135 C303.37475,86.8135 304.83475,87.1885 306.11975,87.956 C307.27725,88.656 308.26725,90.081 309.06475,92.1935 C309.98475,94.651 310.69225,98.106 311.16725,102.4585 C311.59475,106.391 311.83725,111.296 311.88975,117.0635 L291.41475,117.0635 Z M301.65225,53.3135 C292.36725,53.3135 283.76475,54.8885 276.08975,57.996 C268.35975,61.1235 261.70725,65.6635 256.31725,71.491 C250.93725,77.3085 246.71975,84.5885 243.78975,93.126 C240.87975,101.591 239.40225,111.326 239.40225,122.0635 L239.40225,129.3135 C239.40225,151.046 245.14225,168.111 256.46725,180.0335 C267.81975,191.9985 284.28225,198.0635 305.40225,198.0635 C311.27975,198.0635 316.69475,197.851 321.49475,197.431 C326.33225,197.011 331.10975,196.286 335.69225,195.2735 C340.24475,194.271 344.91975,192.951 349.58725,191.356 C354.17975,189.781 359.24975,187.7935 364.64975,185.451 L366.77475,184.5285 L366.01725,182.341 L355.26475,151.246 L354.36475,148.6435 L351.85975,149.791 C344.04975,153.371 336.98475,155.881 330.85725,157.2485 C324.73225,158.621 319.02975,159.3135 313.90225,159.3135 C310.58225,159.3135 307.55725,159.036 304.91225,158.4835 C302.46225,157.9735 300.32225,157.0235 298.54975,155.6635 C296.81725,154.3285 295.35225,152.286 294.20225,149.591 C293.21975,147.296 292.47225,144.351 291.96975,140.8135 L361.40225,140.8135 L363.90225,140.8135 L363.90225,138.3135 L363.90225,122.0635 C363.90225,100.356 358.42975,83.3085 347.62975,71.386 C336.76975,59.3935 321.29975,53.3135 301.65225,53.3135 L301.65225,53.3135 Z M288.90225,119.5635 L314.40225,119.5635 C314.40225,112.5635 314.15225,106.776 313.65475,102.1885 C313.15225,97.606 312.40475,93.9835 311.40225,91.3135 C310.40225,88.651 309.06725,86.8135 307.40475,85.8135 C305.73475,84.8135 303.81725,84.3135 301.65225,84.3135 C299.31725,84.3135 297.35975,84.856 295.77725,85.9385 C294.18975,87.0235 292.90225,88.8985 291.90225,91.5635 C290.90225,94.231 290.15225,97.856 289.65225,102.4385 C289.15225,107.0235 288.90225,112.7335 288.90225,119.5635 L288.90225,119.5635 Z M301.65225,55.8135 C320.65225,55.8135 335.35975,61.5635 345.77725,73.0635 C356.19225,84.5635 361.40225,100.8985 361.40225,122.0635 L361.40225,138.3135 L289.15225,138.3135 C289.65225,143.366 290.56725,147.4535 291.90225,150.571 C293.23475,153.6885 294.94225,156.0435 297.02725,157.6435 C299.10975,159.246 301.56725,160.341 304.40225,160.931 C307.23475,161.521 310.40225,161.8135 313.90225,161.8135 C319.23475,161.8135 325.06725,161.106 331.40225,159.6885 C337.73475,158.2735 344.90475,155.731 352.90225,152.0635 L363.65475,183.156 C358.31725,185.4735 353.35975,187.421 348.77725,188.991 C344.18975,190.5585 339.65225,191.841 335.15225,192.8335 C330.65225,193.826 326.02725,194.5285 321.27725,194.941 C316.52725,195.356 311.23475,195.5635 305.40225,195.5635 C284.90475,195.5635 269.18975,189.8135 258.27725,178.3135 C247.35975,166.8135 241.90225,150.481 241.90225,129.3135 L241.90225,122.0635 C241.90225,111.5635 243.31725,102.1885 246.15475,93.9385 C248.98475,85.6885 252.98475,78.776 258.15225,73.1885 C263.31725,67.606 269.60975,63.3135 277.02725,60.3135 C284.44225,57.3135 292.65225,55.8135 301.65225,55.8135 L301.65225,55.8135 Z" id="Fill-2"></path>
                <path d="M497.89925,57.0635 L511.39925,57.0635 C517.63425,57.0635 522.02675,59.566 524.82925,64.716 C527.86175,70.2885 529.40175,79.426 529.40175,91.876 L529.40175,115.751 C529.40175,128.206 527.86175,137.3435 524.82925,142.9135 C522.02675,148.061 517.63425,150.5635 511.39925,150.5635 L497.89925,150.5635 L497.89925,57.0635 Z M513.39925,11.3135 L442.64925,11.3135 L440.14925,11.3135 L440.14925,13.8135 L440.14925,193.8135 L440.14925,196.3135 L442.64925,196.3135 L513.39925,196.3135 C524.82175,196.3135 535.38175,194.491 544.79175,190.8985 C554.27425,187.276 562.49675,181.8085 569.21925,174.6485 C575.92925,167.516 581.20175,158.466 584.88925,147.7535 C588.54675,137.121 590.39925,124.611 590.39925,110.5635 L590.39925,97.0635 C590.39925,83.021 588.54675,70.5085 584.88925,59.876 C581.20175,49.166 575.92925,40.116 569.21925,32.976 C562.49175,25.816 554.27425,20.3485 544.79175,16.7285 C535.37675,13.136 524.81675,11.3135 513.39925,11.3135 L513.39925,11.3135 Z M495.39925,153.0635 L511.39925,153.0635 C518.56425,153.0635 523.77675,150.0785 527.02425,144.1085 C530.27425,138.1435 531.90175,128.6885 531.90175,115.751 L531.90175,91.876 C531.90175,78.9435 530.27425,69.491 527.02425,63.521 C523.77675,57.551 518.56425,54.5635 511.39925,54.5635 L495.39925,54.5635 L495.39925,153.0635 L495.39925,153.0635 Z M513.39925,13.8135 C524.56425,13.8135 534.73175,15.5635 543.89925,19.0635 C553.06175,22.5635 560.89925,27.7735 567.39925,34.6885 C573.89925,41.606 578.93925,50.2735 582.52675,60.6885 C586.10675,71.106 587.89925,83.231 587.89925,97.0635 L587.89925,110.5635 C587.89925,124.401 586.10675,136.5235 582.52675,146.9385 C578.93925,157.356 573.89925,166.0235 567.39925,172.9385 C560.89925,179.856 553.06175,185.0635 543.89925,188.5635 C534.73175,192.0635 524.56425,193.8135 513.39925,193.8135 L442.64925,193.8135 L442.64925,13.8135 L513.39925,13.8135 L513.39925,13.8135 Z" id="Fill-4"></path>
                <path d="M658.14825,55.8135 L655.64825,55.8135 L604.89575,55.8135 L602.39575,55.8135 L602.39575,58.3135 L602.39575,193.8135 L602.39575,196.3135 L604.89575,196.3135 L655.64825,196.3135 L658.14825,196.3135 L658.14825,193.8135 L658.14825,58.3135 L658.14825,55.8135 Z M659.39825,8.8135 L656.89825,8.8135 L603.64575,8.8135 L601.14575,8.8135 L601.14575,11.3135 L601.14575,45.5635 L601.14575,48.0635 L603.64575,48.0635 L656.89825,48.0635 L659.39825,48.0635 L659.39825,45.5635 L659.39825,11.3135 L659.39825,8.8135 Z M604.89575,193.8135 L655.64825,193.8135 L655.64825,58.3135 L604.89575,58.3135 L604.89575,193.8135 Z M603.64575,45.5635 L656.89825,45.5635 L656.89825,11.3135 L603.64575,11.3135 L603.64575,45.5635 Z" id="Fill-6"></path>
                <path d="M735.39675,161.0625 C733.96175,161.0625 732.70925,160.625 731.57175,159.725 C730.33675,158.7525 729.20925,157 728.21925,154.5125 C727.13675,151.815 726.30675,148.1175 725.75425,143.515 C725.18425,138.83 724.89675,132.875 724.89675,125.8125 C724.89675,112.2175 726.00675,102.7525 728.19425,97.6775 C731.04175,91.0625 734.31925,91.0625 735.39675,91.0625 C736.46675,91.0625 739.72425,91.0625 742.46175,97.6475 C744.57675,102.7375 745.64675,112.2125 745.64675,125.8125 C745.64675,132.835 745.35675,138.7925 744.79175,143.515 C744.22925,148.1375 743.43425,151.855 742.42925,154.5675 C741.50925,157.0325 740.43175,158.77 739.21925,159.725 C738.08175,160.625 736.82925,161.0625 735.39675,161.0625 L735.39675,161.0625 Z M801.39425,2.5 L798.59925,2.83 L747.85175,8.83 L745.64675,9.0925 L745.64675,11.315 L745.64675,73.475 C741.77925,68.23 737.77425,63.955 733.69675,60.7275 C728.09675,56.305 720.76175,54.0625 711.89675,54.0625 C698.52675,54.0625 688.00925,60.14 680.64175,72.13 C673.51175,83.7225 669.89675,100.5225 669.89675,122.0625 L669.89675,130.065 C669.89675,151.5875 673.37675,168.3775 680.24425,179.965 C687.35925,191.975 698.00925,198.065 711.89675,198.065 C719.92925,198.065 726.92425,195.7825 732.68425,191.285 C736.99425,187.9175 741.33925,183.5125 745.64675,178.1475 L745.64675,195.8125 L745.64675,198.625 L748.43925,198.2975 L799.18925,192.295 L801.39425,192.035 L801.39425,189.8125 L801.39425,5.3125 L801.39425,2.5 Z M735.39675,163.5625 C737.39675,163.5625 739.18675,162.9375 740.76925,161.6875 C742.35175,160.4375 743.68425,158.3575 744.77175,155.4375 C745.85425,152.525 746.68675,148.65 747.27175,143.815 C747.85175,138.9825 748.14675,132.9825 748.14675,125.8125 C748.14675,111.815 747.01925,102.1075 744.77175,96.6875 C742.52175,91.275 739.39675,88.5625 735.39675,88.5625 C731.39425,88.5625 728.22925,91.275 725.89675,96.6875 C723.56175,102.1075 722.39675,111.815 722.39675,125.8125 C722.39675,132.9825 722.68425,138.9825 723.26925,143.815 C723.85425,148.65 724.72675,152.525 725.89675,155.4375 C727.05925,158.3575 728.43675,160.4375 730.02175,161.6875 C731.60175,162.9375 733.39675,163.5625 735.39675,163.5625 L735.39675,163.5625 Z M798.89425,5.3125 L798.89425,189.8125 L748.14675,195.8125 L748.14675,172.0625 L747.14675,172.0625 C741.80925,179.4 736.47925,185.15 731.14675,189.315 C725.80925,193.4825 719.39675,195.565 711.89675,195.565 C698.89425,195.565 689.06175,189.94 682.39675,178.69 C675.72925,167.44 672.39675,151.23 672.39675,130.065 L672.39675,122.0625 C672.39675,100.9 675.85425,84.6875 682.77175,73.4375 C689.68675,62.1875 699.39675,56.5625 711.89675,56.5625 C720.22925,56.5625 726.97925,58.6075 732.14675,62.6875 C737.31175,66.775 742.31175,72.565 747.14675,80.065 L748.14675,80.065 L748.14675,11.315 L798.89425,5.3125 L798.89425,5.3125 Z" id="Fill-8"></path>
                <path d="M985.39425,11.314 L982.89425,11.314 L881.39425,11.314 L878.89425,11.314 L878.89425,13.814 L878.89425,32.564 L878.89425,35.064 L881.39425,35.064 L902.64425,35.064 L902.64425,172.564 L881.39425,172.564 L878.89425,172.564 L878.89425,175.064 L878.89425,193.814 L878.89425,196.314 L881.39425,196.314 L982.89425,196.314 L985.39425,196.314 L985.39425,193.814 L985.39425,175.064 L985.39425,172.564 L982.89425,172.564 L961.64425,172.564 L961.64425,35.064 L982.89425,35.064 L985.39425,35.064 L985.39425,32.564 L985.39425,13.814 L985.39425,11.314 Z M982.89425,13.814 L982.89425,32.564 L959.14425,32.564 L959.14425,175.064 L982.89425,175.064 L982.89425,193.814 L881.39425,193.814 L881.39425,175.064 L905.14425,175.064 L905.14425,32.564 L881.39425,32.564 L881.39425,13.814 L982.89425,13.814 Z" id="Fill-10"></path>
                <path d="M1061.64425,8.99825 L1058.84925,9.33075 L1008.59925,15.33075 L1006.39425,15.59325 L1006.39425,17.81325 L1006.39425,56.31325 L986.39425,56.31325 L983.89425,56.31325 L983.89425,58.81325 L983.89425,92.56325 L983.89425,95.06325 L986.39425,95.06325 L1006.39425,95.06325 L1006.39425,158.90325 C1006.39425,172.02325 1009.93175,182.07075 1016.91175,188.76575 C1023.86675,195.43325 1034.96175,198.81325 1049.89425,198.81325 C1058.52675,198.81325 1066.61425,197.99575 1073.93175,196.38075 C1081.24425,194.76575 1088.80425,192.23075 1096.41175,188.84575 L1097.89425,188.18575 L1097.89425,186.56325 L1097.89425,149.81325 L1097.89425,145.91075 L1094.34925,147.54075 C1088.36425,150.29325 1083.42175,152.17825 1079.64925,153.14325 C1075.95175,154.08575 1072.49925,154.56325 1069.39425,154.56325 C1066.74425,154.56325 1064.84175,153.92075 1063.57425,152.59575 C1062.27675,151.23825 1061.64425,149.28075 1061.64425,146.60325 L1061.64425,95.06325 L1092.89425,95.06325 L1095.39425,95.06325 L1095.39425,92.56325 L1095.39425,58.81325 L1095.39425,56.31325 L1092.89425,56.31325 L1061.64425,56.31325 L1061.64425,11.81325 L1061.64425,8.99825 Z M1059.14425,11.81325 L1059.14425,58.81325 L1092.89425,58.81325 L1092.89425,92.56325 L1059.14425,92.56325 L1059.14425,146.60325 C1059.14425,149.92325 1060.01925,152.49825 1061.76925,154.32325 C1063.51925,156.15325 1066.05925,157.06325 1069.39425,157.06325 C1072.72675,157.06325 1076.35175,156.56325 1080.26925,155.56325 C1084.18425,154.56325 1089.22675,152.64825 1095.39425,149.81325 L1095.39425,186.56325 C1087.89425,189.90075 1080.55675,192.35575 1073.39425,193.93825 C1066.22675,195.52075 1058.39425,196.31325 1049.89425,196.31325 C1035.55675,196.31325 1025.14425,193.19575 1018.64425,186.96075 C1012.14425,180.72825 1008.89425,171.37575 1008.89425,158.90325 L1008.89425,92.56325 L986.39425,92.56325 L986.39425,58.81325 L1008.89425,58.81325 L1008.89425,17.81325 L1059.14425,11.81325 L1059.14425,11.81325 Z" id="Fill-12"></path>
            </g>
        </g>
    </g>
</svg>