<?xml version="1.0" encoding="utf-8"?>
<!-- Generator: Adobe Illustrator 21.1.0, SVG Export Plug-In . SVG Version: 6.00 Build 0)  -->
<svg version="1.1" id="Layer_1" xmlns="http://www.w3.org/2000/svg" xmlns:xlink="http://www.w3.org/1999/xlink" x="0px" y="0px"
	 viewBox="0 0 400.9 114.6" style="enable-background:new 0 0 400.9 114.6;" xml:space="preserve">
<style type="text/css">
	.st0{fill:#470B46;}
</style>
<title>alpha particlelight horizontal</title>
<path class="st0" d="M114.5,57.3c0,10.4-2.8,20.6-8.2,29.6L76.8,57.3l29.6-29.6C111.7,36.7,114.6,46.9,114.5,57.3z M39.5,57.3
	l8.9,8.9l8.9-9.2l-8.8-8.8L39.5,57.3z M53.6,81.1c-1.3,1.3-3.1,2.1-5,2.1h-0.1c-1.9,0-3.6-0.7-5-2.1L24.7,62.2
	c-2.7-2.7-2.7-7.2,0-9.9c0,0,0,0,0,0l18.9-18.9c2.7-2.7,7.2-2.7,9.9,0l13.7,13.7l30.5-30.5c-22.5-22.3-58.7-22.2-81,0.3
	s-22.2,58.7,0.3,81c22.3,22.2,58.4,22.2,80.7,0L67,67.3L53.6,81.1z"/>
<path class="st0" d="M146.5,61.4h-6.3l-1.3,6.4h-2.6l5.5-25.9h3.2l5.6,25.9h-2.7L146.5,61.4z M146,59.1l-2.7-13.5l-2.7,13.5H146z"/>
<path class="st0" d="M169.1,67.8h-10V41.9h2.7v23.5h7.4V67.8z"/>
<path class="st0" d="M190,47.4v4.3c0,3.7-2.1,5.5-6.1,5.5h-3.6v10.6h-2.7V41.9h6.3C187.8,41.9,190,43.7,190,47.4z M187.3,48
	c0-2.7-1.1-3.7-3.6-3.7h-3.4v10.5h3.4c2.5,0,3.6-1,3.6-3.7V48z"/>
<path class="st0" d="M201.8,41.9v11.5h7.3V41.9h2.7v25.9h-2.7v-12h-7.3v12h-2.7V41.9H201.8z"/>
<path class="st0" d="M230.5,61.4h-6.3l-1.3,6.4h-2.6l5.5-25.9h3.2l5.6,25.9h-2.7L230.5,61.4z M230.1,59.1l-2.7-13.5l-2.7,13.5H230.1
	z"/>
<path class="st0" d="M266.6,47.4v4.3c0,3.7-2.1,5.5-6.1,5.5h-3.6v10.6h-2.7V41.9h6.3C264.4,41.9,266.6,43.7,266.6,47.4z M263.9,48
	c0-2.7-1.1-3.7-3.6-3.7h-3.4v10.5h3.4c2.5,0,3.6-1,3.6-3.7V48z"/>
<path class="st0" d="M283.4,61.4h-6.3l-1.3,6.4h-2.6l5.5-25.9h3.2l5.6,25.9h-2.7L283.4,61.4z M283,59.1l-2.7-13.5l-2.7,13.5H283z"/>
<path class="st0" d="M306.5,67.8l-4-10.9h-3.8v10.9H296V41.9h6.3c3.9,0,6.1,1.8,6.1,5.5v4c0,2.7-1.1,4.4-3.3,5.1l4.2,11.3
	L306.5,67.8z M298.7,54.5h3.4c2.5,0,3.6-1,3.6-3.7V48c0-2.7-1.1-3.7-3.6-3.7h-3.4L298.7,54.5z"/>
<path class="st0" d="M328.5,44.3h-4.7v23.5h-2.7V44.3h-4.7v-2.4h12.1V44.3z"/>
<path class="st0" d="M337,67.8V41.9h2.7v25.9L337,67.8z"/>
<path class="st0" d="M362,62.6c0,3.8-2.1,5.5-6.1,5.5h-0.1c-3.9,0-6.1-1.7-6.1-5.5V47.1c0-3.6,2.1-5.5,6.1-5.5h0.1
	c3.9,0,6.1,1.9,6.1,5.5v4.5h-2.7v-3.8c0-2.7-1-3.7-3.4-3.7c-2.4,0-3.4,1.1-3.4,3.7v14.2c0,2.7,1,3.7,3.4,3.7c2.4,0,3.4-1.1,3.4-3.7
	v-4.5h2.7V62.6z"/>
<path class="st0" d="M381.8,67.8h-10V41.9h2.7v23.5h7.4V67.8z"/>
<path class="st0" d="M390.4,67.8V41.9h10.5v2.4H393v9.2h6.7v2.4H393v9.5h7.9v2.4L390.4,67.8z"/>
</svg>
