<?xml version="1.0" encoding="UTF-8"?>
<svg width="250px" height="73px" viewBox="0 0 250 73" version="1.1" xmlns="http://www.w3.org/2000/svg" xmlns:xlink="http://www.w3.org/1999/xlink">
    <!-- Generator: Sketch 54.1 (76490) - https://sketchapp.com -->
    <title>Group 27</title>
    <desc>Created with Sketch.</desc>
    <defs>
        <polygon id="path-1" points="4.06350196e-05 0.249376559 71.3546775 0.249376559 71.3546775 71.6956671 4.06350196e-05 71.6956671"></polygon>
        <polygon id="path-3" points="0 72 250 72 250 2.22488694e-13 0 2.22488694e-13"></polygon>
    </defs>
    <g id="1-Year-Anniversary" stroke="none" stroke-width="1" fill="none" fill-rule="evenodd">
        <g id="Homepage-" transform="translate(-455.000000, -5950.000000)">
            <g id="Alpha-Particle" transform="translate(412.000000, 5918.000000)">
                <g id="Group-27" transform="translate(43.000000, 32.000000)">
                    <g id="Group-3" transform="translate(0.000000, 0.374065)">
                        <mask id="mask-2" fill="white">
                            <use xlink:href="#path-1"></use>
                        </mask>
                        <g id="Clip-2"></g>
                        <path d="M33.3855362,50.8413965 C32.5750623,51.6524938 31.4528678,52.1512469 30.2683292,52.1512469 L30.205985,52.1512469 C29.0214464,52.1512469 27.961596,51.7142145 27.0887781,50.8413965 L15.3680798,39.0589776 C13.684788,37.3750623 13.684788,34.5695761 15.3680798,32.8862843 L27.1511222,21.1032419 C28.834414,19.4205736 31.6399002,19.4205736 33.323192,21.1032419 L41.8643392,29.644389 L60.8793017,10.6294264 C46.8518703,-3.27331671 24.2832918,-3.21097257 10.3805486,10.8164589 C-3.52219451,24.8438903 -3.45985037,47.4124688 10.567581,61.3158354 C24.4703242,75.155611 46.9765586,75.155611 60.8793017,61.3158354 L41.7396509,42.2379052 L33.3855362,50.8413965 Z M24.5950125,36.0034913 L30.1436409,41.5527431 L35.6922693,35.8164589 L30.205985,30.330798 L24.5950125,36.0034913 Z M71.3531172,36.0034913 C71.3531172,42.4879052 69.6074813,48.8470075 66.2408978,54.45798 L47.8493766,36.0034913 L66.3032419,17.5502494 C69.6074813,23.1612219 71.4154613,29.5197007 71.3531172,36.0034913 L71.3531172,36.0034913 Z" id="Fill-1" fill="#470B46" mask="url(#mask-2)"></path>
                    </g>
                    <path d="M90.9914589,37.4997506 L89.3081671,29.0832918 L87.6248753,37.4997506 L90.9914589,37.4997506 Z M91.3031796,38.9342893 L87.3754988,38.9342893 L86.5650249,42.9236908 L84.9440773,42.9236908 L88.373005,26.7765586 L90.3680175,26.7765586 L93.8592893,42.9236908 L92.1759975,42.9236908 L91.3031796,38.9342893 Z" id="Fill-4" fill="#470B46"></path>
                    <polygon id="Fill-6" fill="#470B46" points="105.393017 42.9238155 99.1586035 42.9238155 99.1586035 26.7766833 100.841895 26.7766833 100.841895 41.4281796 105.455362 41.4281796 105.455362 42.9238155"></polygon>
                    <path d="M116.739464,30.5798005 C116.739464,28.8965087 116.053678,28.2730673 114.495075,28.2730673 L112.375374,28.2730673 L112.375374,34.819202 L114.495075,34.819202 C116.053678,34.819202 116.739464,34.1957606 116.739464,32.5124688 L116.739464,30.5798005 Z M118.422756,30.2057357 L118.422756,32.8865337 C118.422756,35.1932668 117.113529,36.3154613 114.619763,36.3154613 L112.375374,36.3154613 L112.375374,42.9239401 L110.692082,42.9239401 L110.692082,26.776808 L114.619763,26.776808 C117.051185,26.776808 118.422756,27.8990025 118.422756,30.2057357 L118.422756,30.2057357 Z" id="Fill-8" fill="#470B46"></path>
                    <polygon id="Fill-10" fill="#470B46" points="125.779364 26.7767456 125.779364 33.9463217 130.330486 33.9463217 130.330486 26.7767456 132.013778 26.7767456 132.013778 42.9238778 130.330486 42.9238778 130.330486 35.442581 125.779364 35.442581 125.779364 42.9238778 124.096072 42.9238778 124.096072 26.7767456"></polygon>
                    <path d="M143.422631,37.4997506 L141.739963,29.0832918 L140.056671,37.4997506 L143.422631,37.4997506 Z M143.672007,38.9342893 L139.74495,38.9342893 L138.934476,42.9236908 L137.312905,42.9236908 L140.741833,26.7765586 L142.736845,26.7765586 L146.228117,42.9236908 L144.545449,42.9236908 L143.672007,38.9342893 Z" id="Fill-12" fill="#470B46"></path>
                    <path d="M164.495449,30.5798005 C164.495449,28.8965087 163.80904,28.2730673 162.250436,28.2730673 L160.131359,28.2730673 L160.131359,34.819202 L162.250436,34.819202 C163.80904,34.819202 164.495449,34.1957606 164.495449,32.5124688 L164.495449,30.5798005 Z M166.178117,30.2057357 L166.178117,32.8865337 C166.178117,35.1932668 164.869514,36.3154613 162.375748,36.3154613 L160.131359,36.3154613 L160.131359,42.9239401 L158.448067,42.9239401 L158.448067,26.776808 L162.375748,26.776808 C164.80717,26.776808 166.178117,27.8990025 166.178117,30.2057357 L166.178117,30.2057357 Z" id="Fill-14" fill="#470B46"></path>
                    <path d="M176.40293,37.4997506 L174.719638,29.0832918 L173.036347,37.4997506 L176.40293,37.4997506 Z M176.652307,38.9342893 L172.724626,38.9342893 L171.914152,42.9236908 L170.293204,42.9236908 L173.722132,26.7765586 L175.717145,26.7765586 L179.208416,42.9236908 L177.525125,42.9236908 L176.652307,38.9342893 Z" id="Fill-16" fill="#470B46"></path>
                    <path d="M186.191085,34.6321696 L188.310162,34.6321696 C189.868766,34.6321696 190.555175,34.0087282 190.555175,32.3254364 L190.555175,30.5798005 C190.555175,28.8965087 189.868766,28.2730673 188.310162,28.2730673 L186.191085,28.2730673 L186.191085,34.6321696 Z M191.053928,42.9239401 L188.560162,36.1284289 L186.191085,36.1284289 L186.191085,42.9239401 L184.507793,42.9239401 L184.507793,26.776808 L188.435474,26.776808 C190.866895,26.776808 192.238466,27.8990025 192.238466,30.2057357 L192.238466,32.6995012 C192.238466,34.382793 191.552681,35.4426434 190.180486,35.8790524 L192.799564,42.9239401 L191.053928,42.9239401 Z" id="Fill-18" fill="#470B46"></path>
                    <polygon id="Fill-20" fill="#470B46" points="204.769514 28.2729426 201.839339 28.2729426 201.839339 42.9238155 200.156047 42.9238155 200.156047 28.2729426 197.225873 28.2729426 197.225873 26.7766833 204.769514 26.7766833"></polygon>
                    <mask id="mask-4" fill="white">
                        <use xlink:href="#path-3"></use>
                    </mask>
                    <g id="Clip-23"></g>
                    <polygon id="Fill-22" fill="#470B46" mask="url(#mask-4)" points="210.068579 42.9239401 211.75187 42.9239401 211.75187 26.776808 210.068579 26.776808"></polygon>
                    <path d="M225.6548,39.6817955 C225.6548,42.0514963 224.345574,43.1107232 221.851808,43.1107232 L221.789464,43.1107232 C219.358042,43.1107232 217.986471,42.0514963 217.986471,39.6817955 L217.986471,30.0184539 C217.986471,27.7740648 219.295698,26.5895262 221.789464,26.5895262 L221.851808,26.5895262 C224.283229,26.5895262 225.6548,27.7740648 225.6548,30.0184539 L225.6548,32.8239401 L223.971509,32.8239401 L223.971509,30.4548628 C223.971509,28.7715711 223.348067,28.1481297 221.851808,28.1481297 C220.355549,28.1481297 219.732107,28.8345387 219.732107,30.4548628 L219.732107,39.3077307 C219.732107,40.9916459 220.355549,41.6150873 221.851808,41.6150873 C223.348067,41.6150873 223.971509,40.9286783 223.971509,39.3077307 L223.971509,36.5022444 L225.6548,36.5022444 L225.6548,39.6817955 Z" id="Fill-24" fill="#470B46" mask="url(#mask-4)"></path>
                    <polygon id="Fill-25" fill="#470B46" mask="url(#mask-4)" points="237.998878 42.9238155 231.764464 42.9238155 231.764464 26.7766833 233.447756 26.7766833 233.447756 41.4281796 238.061845 41.4281796 238.061845 42.9238155"></polygon>
                    <polygon id="Fill-26" fill="#470B46" mask="url(#mask-4)" points="243.360786 42.9238155 243.360786 26.7766833 249.90692 26.7766833 249.90692 28.2729426 244.981733 28.2729426 244.981733 34.0086035 249.158791 34.0086035 249.158791 35.5048628 244.981733 35.5048628 244.981733 41.4281796 249.90692 41.4281796 249.90692 42.9238155"></polygon>
                </g>
            </g>
        </g>
    </g>
</svg>