<svg id="Layer_1" data-name="Layer 1" xmlns="http://www.w3.org/2000/svg" viewBox="0 0 278.94 282.3"><defs><style>.cls-1{fill:#8852a0;}.cls-2{fill:#65c7cc;}.cls-3{fill:#ec165d;}.cls-4{fill:#d538ff;}.cls-5{fill:#00f1e6;}.cls-6{fill:#fa005b;}</style></defs><title>Cameo_Logotype_ColorOnWhite</title><polygon class="cls-1" points="188.57 106.47 256.51 56.89 225.41 25.8 175.89 93.66 188.57 106.47"/><polygon class="cls-2" points="188.64 175.89 175.96 188.74 225.41 256.51 256.51 225.41 188.64 175.89"/><polygon class="cls-3" points="132.06 199.79 119.17 282.31 163.14 282.31 150.22 199.64 132.06 199.79"/><polygon class="cls-2" points="150.2 82.48 163.14 0 119.16 0 132.08 82.48 150.2 82.48"/><polygon class="cls-3" points="106.06 93.18 56.89 25.8 25.8 56.89 93.09 106 106.06 93.18"/><polygon class="cls-1" points="82.19 132.01 0 119.17 0 163.14 82.16 150.3 82.19 132.01"/><polygon class="cls-2" points="93.02 176.36 25.8 225.41 56.89 256.51 105.99 189.22 93.02 176.36"/><polygon class="cls-4" points="188.57 106.47 256.51 56.89 225.41 25.8 175.89 93.66 188.57 106.47"/><polygon class="cls-5" points="188.64 175.89 175.96 188.74 225.41 256.51 256.51 225.41 188.64 175.89"/><polygon class="cls-6" points="132.06 199.79 119.17 282.31 163.14 282.31 150.22 199.64 132.06 199.79"/><polygon class="cls-5" points="150.2 82.48 163.14 0 119.16 0 132.08 82.48 150.2 82.48"/><polygon class="cls-6" points="106.06 93.18 56.89 25.8 25.8 56.89 93.09 106 106.06 93.18"/><polygon class="cls-4" points="82.19 132.01 0 119.17 0 163.14 82.16 150.3 82.19 132.01"/><polygon class="cls-5" points="93.02 176.36 25.8 225.41 56.89 256.51 105.99 189.22 93.02 176.36"/></svg>