<?xml version="1.0" encoding="UTF-8"?>
<svg width="115px" height="30px" viewBox="0 0 115 30" version="1.1" xmlns="http://www.w3.org/2000/svg" xmlns:xlink="http://www.w3.org/1999/xlink">
    <!-- Generator: Sketch 54.1 (76490) - https://sketchapp.com -->
    <title>Group 4</title>
    <desc>Created with Sketch.</desc>
    <g id="1-Year-Anniversary" stroke="none" stroke-width="1" fill="none" fill-rule="evenodd">
        <g id="Homepage-" transform="translate(-1275.000000, -6125.000000)" fill-rule="nonzero">
            <g id="Cameo" transform="translate(1165.000000, 6073.000000)">
                <g id="Group-4" transform="translate(110.000000, 52.000000)">
                    <g id="CameoLogo-text" transform="translate(34.000000, 4.571429)" fill="#231F20">
                        <path d="M74.8885714,0 C73.04,0 71.5057143,0.537142857 70.4485714,1.55428571 C69.3057143,2.73714286 68.9371429,4.08571429 68.9371429,7.1 L68.9371429,13.1685714 C68.9371429,16.1828571 69.3057143,17.5314286 70.4514286,18.7171429 C71.5028571,19.7314286 73.04,20.2685714 74.8885714,20.2685714 C76.7371429,20.2685714 78.2314286,19.7314286 79.2885714,18.7142857 C80.4314286,17.5714286 80.8,16.2628571 80.8,13.1685714 L80.8,7.1 C80.8,4.00857143 80.4457143,2.71142857 79.2885714,1.55142857 C78.2314286,0.537142857 76.7114286,0 74.8885714,0 Z M77.3485714,13.4057143 C77.3485714,15.9771429 76.5771429,17.1342857 74.8485714,17.1342857 C73.12,17.1342857 72.3885714,15.9914286 72.3885714,13.4057143 L72.3885714,6.86285714 C72.3885714,4.29142857 73.1457143,3.13428571 74.8485714,3.13428571 C76.6,3.13428571 77.3485714,4.24857143 77.3485714,6.86285714 L77.3485714,13.4057143 Z" id="Shape"></path>
                        <path d="M6.06571429,0 C3.85428571,0 2.17428571,0.697142857 1.20857143,2 C0.317142857,3.2 0.00285714286,4.57142857 0.00285714286,7.28285714 L0.00285714286,12.9971429 C0.00285714286,15.6685714 0.317142857,17.0428571 1.20857143,18.2428571 C2.17714286,19.56 3.86,20.2428571 6.06571429,20.2428571 C8.04571429,20.2428571 9.59142857,19.6428571 10.6571429,18.4571429 C11.62,17.4142857 12.0142857,16.0485714 12.0142857,13.7371429 L12.0142857,13.1028571 L8.56571429,13.1028571 L8.56571429,13.5628571 C8.56571429,16 7.77142857,17.1342857 6.06571429,17.1342857 C5.10857143,17.1342857 4.31428571,16.7085714 3.93714286,15.9914286 C3.56,15.2742857 3.44857143,14.4228571 3.44857143,12.5257143 L3.44857143,7.77428571 C3.44857143,4.26 4.08571429,3.13428571 6.06571429,3.13428571 C7.78,3.13428571 8.56571429,4.23142857 8.56571429,6.58571429 L8.56571429,7.14 L12.0142857,7.14 L12.0142857,6.38857143 C12.0142857,4.10285714 11.6342857,2.80571429 10.6571429,1.74857143 C9.61714286,0.588571429 8.07142857,0 6.06571429,0 Z" id="Path"></path>
                        <path d="M62.3,15.3828571 C61.9657143,16.5457143 61.18,17.1371429 59.9628571,17.1371429 C58.4085714,17.1371429 57.7085714,16.4257143 57.4571429,14.6 C57.38,14.0285714 57.3457143,12.7885714 57.3428571,12.7371429 L57.3428571,12.6628571 L57.4085714,12.6285714 L65.8742857,8.03142857 L65.8742857,7.49714286 C65.8742857,4.49142857 65.5,3.04857143 64.3971429,1.78285714 C63.3857143,0.617142857 61.8257143,0 59.8457143,0 C58.0228571,0 56.5028571,0.537142857 55.4485714,1.55428571 C54.2457143,2.71714286 53.8971429,3.96285714 53.8971429,7.1 L53.8971429,12.9714286 C53.8971429,15.5428571 54.2342857,17.0314286 55.1057143,18.2571429 C56.0742857,19.5714286 57.7542857,20.2571429 59.9628571,20.2571429 C62.4457143,20.2571429 64.2485714,19.36 65.1742857,17.6628571 C65.7457143,16.7285714 65.8685714,15.78 65.9114286,13.12 L62.4628571,13.12 C62.46,14.42 62.4257143,14.94 62.3,15.3828571 Z M57.3457143,6.42 C57.3457143,4.02857143 58.1057143,3.00857143 59.8857143,3.00857143 C61.6,3.00857143 62.36,3.95428571 62.4142857,6.17142857 L62.4142857,6.24571429 L62.3485714,6.28 L57.3428571,9.01714286 L57.3428571,6.42 L57.3457143,6.42 Z" id="Shape"></path>
                        <path d="M44.8228571,0.00285714286 L44.7257143,0.00285714286 C42.9457143,0.02 41.54,0.482857143 40.5485714,1.38 L40.4685714,1.45142857 L40.3885714,1.38 C39.3942857,0.482857143 37.9914286,0.02 36.2114286,0.00285714286 L36.1142857,0.00285714286 C33.9485714,0.0228571429 32.3028571,0.717142857 31.3514286,2.00285714 C30.4942857,3.22571429 30.1457143,4.70857143 30.1457143,7.28571429 L30.1457143,19.8571429 L33.5942857,19.8571429 L33.5942857,7.53142857 C33.5942857,7.47428571 33.6285714,6.23714286 33.7085714,5.66571429 C33.9542857,3.86 34.6428571,3.14857143 36.1628571,3.13142857 C37.6828571,3.11428571 38.3742857,3.85714286 38.62,5.66571429 C38.6971429,6.23714286 38.7314286,7.47428571 38.7342857,7.52857143 L38.7342857,19.8685714 L42.2085714,19.8685714 L42.2085714,7.53142857 C42.2085714,7.47714286 42.2428571,6.23714286 42.3228571,5.66571429 C42.5685714,3.86 43.2571429,3.14857143 44.7771429,3.13142857 C46.2971429,3.11428571 46.9885714,3.85714286 47.2342857,5.66571429 C47.3114286,6.23714286 47.3457143,7.47714286 47.3485714,7.52857143 L47.3485714,19.8685714 L50.7971429,19.8685714 L50.7971429,7.29714286 C50.7971429,4.72571429 50.46,3.23714286 49.5914286,2.01142857 C48.6342857,0.705714286 46.9971429,0.0228571429 44.8228571,0.00285714286 Z" id="Path"></path>
                        <path d="M20.9657143,0 C18.4828571,0 16.68,0.897142857 15.7542857,2.59428571 C15.1828571,3.52857143 15.06,4.47714286 15.0171429,7.13714286 L18.4657143,7.13714286 C18.4657143,5.84285714 18.5085714,5.32571429 18.6285714,4.88571429 C18.9628571,3.72285714 19.7485714,3.13142857 20.9657143,3.13142857 C22.52,3.13142857 23.22,3.84285714 23.4714286,5.66857143 C23.5485714,6.24 23.5828571,7.48 23.5857143,7.53142857 L23.5857143,7.60571429 L23.52,7.64 L15.0542857,12.2371429 L15.0542857,12.7714286 C15.0542857,15.7771429 15.4285714,17.22 16.5314286,18.4857143 C17.5428571,19.6514286 19.1028571,20.2685714 21.0828571,20.2685714 C22.9057143,20.2685714 24.4257143,19.7314286 25.48,18.7142857 C26.6828571,17.5514286 27.0314286,16.3057143 27.0314286,13.1685714 L27.0314286,7.29714286 C27.0314286,4.72571429 26.6942857,3.23714286 25.8228571,2.01142857 C24.8571429,0.705714286 23.1742857,0 20.9657143,0 Z M23.5685714,13.8485714 C23.5685714,16.24 22.8085714,17.26 21.0285714,17.26 C19.3142857,17.26 18.5542857,16.3142857 18.5,14.0971429 L18.5,14.02 L18.5657143,13.9857143 L23.5685714,11.2457143 L23.5685714,13.8485714 Z" id="Shape"></path>
                    </g>
                    <g id="CameoLogo-icon">
                        <polygon id="Path" fill="#8852A0" points="19.919552 11.4285714 27.1428571 6.16054827 23.8363398 2.85714286 18.5714286 10.0674706"></polygon>
                        <polygon id="Path" fill="#65C7CC" points="19.9207236 18.5714286 18.5714286 19.9376263 23.8334663 27.1428571 27.1428571 23.8363398"></polygon>
                        <polygon id="Path" fill="#EC165D" points="13.9115631 21.1589279 12.5714286 30 17.1428571 30 15.7996036 21.1428571"></polygon>
                        <polygon id="Path" fill="#65C7CC" points="15.7978302 8.85714286 17.1428571 0 12.5714286 0 13.9143767 8.85714286"></polygon>
                        <polygon id="Path" fill="#EC165D" points="11.1428571 9.77271108 5.89170909 2.57142857 2.57142857 5.89419309 9.75771599 11.1428571"></polygon>
                        <polygon id="Path" fill="#8852A0" points="8.57142857 13.9063647 0 12.5714286 0 17.1428571 8.56829993 15.807921"></polygon>
                        <polygon id="Path" fill="#65C7CC" points="9.75650687 18.5714286 2.57142857 23.8169504 5.89460745 27.1428571 11.1428571 19.9467071"></polygon>
                        <polygon id="Path" fill="#D538FF" points="19.919552 11.4285714 27.1428571 6.16054827 23.8363398 2.85714286 18.5714286 10.0674706"></polygon>
                        <polygon id="Path" fill="#00F1E6" points="19.9207236 18.5714286 18.5714286 19.9376263 23.8334663 27.1428571 27.1428571 23.8363398"></polygon>
                        <polygon id="Path" fill="#FA005B" points="13.9115631 21.1589279 12.5714286 30 17.1428571 30 15.7996036 21.1428571"></polygon>
                        <polygon id="Path" fill="#00F1E6" points="15.7978302 8.85714286 17.1428571 0 12.5714286 0 13.9143767 8.85714286"></polygon>
                        <polygon id="Path" fill="#FA005B" points="11.1428571 9.77271108 5.89170909 2.57142857 2.57142857 5.89419309 9.75771599 11.1428571"></polygon>
                        <polygon id="Path" fill="#D538FF" points="8.57142857 13.9063647 0 12.5714286 0 17.1428571 8.56829993 15.807921"></polygon>
                        <polygon id="Path" fill="#00F1E6" points="9.75650687 18.5714286 2.57142857 23.8169504 5.89460745 27.1428571 11.1428571 19.9467071"></polygon>
                    </g>
                </g>
            </g>
        </g>
    </g>
</svg>