<svg id="Layer_1" data-name="Layer 1" xmlns="http://www.w3.org/2000/svg" viewBox="0 0 285 70.93"><defs><style>.cls-1{fill:#fff;}</style></defs><title>Cameo_Logotype_White</title><path class="cls-1" d="M369.62,214.53c-6.47,0-11.84,1.88-15.54,5.44-4,4.14-5.29,8.86-5.29,19.41v21.24c0,10.55,1.29,15.27,5.3,19.42,3.68,3.55,9.06,5.43,15.53,5.43s11.7-1.88,15.4-5.44c4-4,5.29-8.58,5.29-19.41V239.38c0-10.82-1.24-15.36-5.29-19.42C381.32,216.41,376,214.53,369.62,214.53Zm8.61,46.92c0,9-2.7,13.05-8.75,13.05s-8.61-4-8.61-13.05v-22.9c0-9,2.65-13.05,8.61-13.05,6.13,0,8.75,3.9,8.75,13.05v22.9Z" transform="translate(-107.51 -214.53)"/><path class="cls-1" d="M128.74,214.53c-7.74,0-13.62,2.44-17,7-3.12,4.2-4.22,9-4.22,18.49v20c0,9.35,1.1,14.16,4.22,18.36,3.39,4.61,9.28,7,17,7,6.93,0,12.34-2.1,16.07-6.25,3.37-3.65,4.75-8.43,4.75-16.52v-2.22H137.49V262c0,8.53-2.78,12.5-8.75,12.5-3.35,0-6.13-1.49-7.45-4s-1.71-5.49-1.71-12.13V241.74c0-12.3,2.23-16.24,9.16-16.24,6,0,8.75,3.84,8.75,12.08v1.94h12.07v-2.63c0-8-1.33-12.54-4.75-16.24C141.17,216.59,135.76,214.53,128.74,214.53Z" transform="translate(-107.51 -214.53)"/><path class="cls-1" d="M325.56,268.37c-1.17,4.07-3.92,6.14-8.18,6.14-5.44,0-7.89-2.49-8.77-8.88-0.27-2-.39-6.34-0.4-6.52v-0.26l0.23-.12,29.63-16.09v-1.87c0-10.52-1.31-15.57-5.17-20-3.54-4.08-9-6.24-15.93-6.24-6.38,0-11.7,1.88-15.39,5.44-4.21,4.07-5.43,8.43-5.43,19.41v20.55c0,9,1.18,14.21,4.23,18.5,3.39,4.6,9.27,7,17,7,8.69,0,15-3.14,18.24-9.08,2-3.27,2.43-6.59,2.58-15.9H326.13C326.12,265,326,266.82,325.56,268.37ZM308.22,237c0-8.37,2.66-11.94,8.89-11.94,6,0,8.66,3.31,8.85,11.07v0.26l-0.23.12-17.52,9.58V237Z" transform="translate(-107.51 -214.53)"/><path class="cls-1" d="M264.39,214.54h-0.34c-6.23.06-11.15,1.68-14.62,4.82l-0.28.25-0.28-.25c-3.48-3.14-8.39-4.76-14.62-4.82h-0.34c-7.58.07-13.34,2.5-16.67,7-3,4.28-4.22,9.47-4.22,18.49v44h12.07V240.89c0-.2.12-4.53,0.4-6.53,0.86-6.32,3.27-8.81,8.59-8.87s7.74,2.54,8.6,8.87c0.27,2,.39,6.33.4,6.52v43.19h12.16V240.89c0-.19.12-4.53,0.4-6.53,0.86-6.32,3.27-8.81,8.59-8.87s7.74,2.54,8.6,8.87c0.27,2,.39,6.34.4,6.52v43.19h12.07v-44c0-9-1.18-14.21-4.22-18.5C277.73,217,272,214.61,264.39,214.54Z" transform="translate(-107.51 -214.53)"/><path class="cls-1" d="M180.89,214.53c-8.69,0-15,3.14-18.24,9.08-2,3.27-2.43,6.59-2.58,15.9h12.07c0-4.53.15-6.34,0.57-7.88,1.17-4.07,3.92-6.14,8.18-6.14,5.44,0,7.89,2.49,8.77,8.88,0.27,2,.39,6.34.4,6.52v0.26l-0.23.12L160.2,257.36v1.87c0,10.52,1.31,15.57,5.17,20,3.54,4.08,9,6.24,15.93,6.24,6.38,0,11.7-1.88,15.39-5.44,4.21-4.07,5.43-8.43,5.43-19.41V240.07c0-9-1.18-14.21-4.23-18.5C194.51,217,188.62,214.53,180.89,214.53ZM190,263c0,8.37-2.66,11.94-8.89,11.94-6,0-8.66-3.31-8.85-11.07V263.6l0.23-.12L190,253.89V263Z" transform="translate(-107.51 -214.53)"/></svg>