<?xml version="1.0" encoding="UTF-8"?>
<svg width="109px" height="70px" viewBox="0 0 109 70" version="1.1" xmlns="http://www.w3.org/2000/svg" xmlns:xlink="http://www.w3.org/1999/xlink">
    <!-- Generator: Sketch 54.1 (76490) - https://sketchapp.com -->
    <title>Group 10</title>
    <desc>Created with Sketch.</desc>
    <defs>
        <polygon id="path-1" points="0.097972 0 44.9997792 0 44.9997792 49.406 0.097972 49.406"></polygon>
    </defs>
    <g id="1-Year-Anniversary" stroke="none" stroke-width="1" fill="none" fill-rule="evenodd">
        <g id="Homepage-" transform="translate(-902.000000, -6416.000000)">
            <g id="HomeChef" transform="translate(788.000000, 6383.000000)">
                <g id="Group-10" transform="translate(114.000000, 33.000000)">
                    <path d="M8.498028,56.434042 L8.498028,61.866042 L2.548028,61.866042 L2.548028,56.434042 L2.8e-05,56.434042 L2.8e-05,69.874042 L2.548028,69.874042 L2.548028,64.581902 L8.498028,64.581902 L8.498028,69.874042 L11.032028,69.874042 L11.032028,56.434042 L8.498028,56.434042 Z M66.458028,56.308042 C68.236028,56.308042 69.916028,57.021902 71.176028,58.296042 L71.302028,58.421902 L69.440028,60.339902 L69.313888,60.214042 C68.558028,59.444042 67.536028,59.009902 66.458028,59.009902 C64.218028,59.009902 62.412028,60.871902 62.412028,63.154042 C62.412028,65.436042 64.218028,67.298042 66.458028,67.298042 C67.522028,67.298042 68.543888,66.864042 69.313888,66.094042 L69.440028,65.968042 L71.302028,67.886042 L71.176028,68.011902 C69.916028,69.286042 68.236028,69.999902 66.458028,69.999902 C62.762028,69.999902 59.766028,66.934042 59.766028,63.154042 C59.766028,59.374042 62.762028,56.308042 66.458028,56.308042 L66.458028,56.308042 Z M19.502028,56.308042 C23.198028,56.308042 26.194028,59.374042 26.194028,63.154042 C26.194028,66.934042 23.198028,69.999902 19.502028,69.999902 C15.806028,69.999902 12.810028,66.934042 12.810028,63.154042 C12.810028,59.374042 15.806028,56.308042 19.502028,56.308042 L19.502028,56.308042 Z M19.502028,59.009902 C17.262028,59.009902 15.456028,60.871902 15.456028,63.154042 C15.456028,65.436042 17.276028,67.298042 19.502028,67.298042 C21.742028,67.298042 23.548028,65.436042 23.548028,63.154042 C23.548028,60.858042 21.742028,59.009902 19.502028,59.009902 L19.502028,59.009902 Z M101.752028,69.874042 L101.752028,64.749902 L106.470028,64.749902 L106.470028,62.188042 L101.752028,62.188042 L101.752028,58.729902 L108.023888,58.729902 L108.023888,56.434042 L99.203888,56.434042 L99.203888,69.874042 L101.752028,69.874042 Z M90.328028,67.578042 L90.328028,64.526042 L95.060028,64.526042 L95.060028,61.964042 L90.328028,61.964042 L90.328028,58.729902 L96.726028,58.729902 L96.726028,56.434042 L87.780028,56.434042 L87.780028,69.874042 L96.880028,69.874042 L96.880028,67.578042 L90.328028,67.578042 Z M82.236028,56.434042 L82.236028,61.866042 L76.286028,61.866042 L76.286028,56.434042 L73.738028,56.434042 L73.738028,69.874042 L76.286028,69.874042 L76.286028,64.581902 L82.236028,64.581902 L82.236028,69.874042 L84.770028,69.874042 L84.770028,56.434042 L82.236028,56.434042 Z M46.158028,67.578042 L46.158028,64.526042 L51.254028,64.526042 L51.254028,61.964042 L46.158028,61.964042 L46.158028,58.729902 L52.556028,58.729902 L52.556028,56.434042 L43.610028,56.434042 L43.610028,69.874042 L52.724028,69.874042 L52.724028,67.578042 L46.158028,67.578042 Z M27.986028,56.209902 L27.986028,59.751902 L27.986028,69.859902 L30.534028,69.859902 L30.534028,62.439902 L34.272028,66.401902 L38.010028,62.439902 L38.010028,69.859902 L40.558028,69.859902 L40.558028,59.751902 L40.558028,56.209902 L34.258028,62.859902 L27.986028,56.209902 Z" id="Fill-1" fill="#2F9A41"></path>
                    <g id="Group-5" transform="translate(30.800000, 0.000000)">
                        <mask id="mask-2" fill="white">
                            <use xlink:href="#path-1"></use>
                        </mask>
                        <g id="Clip-4"></g>
                        <path d="M22.511972,2.982 L42.419972,13.342 L42.419972,46.732 L2.687972,46.732 L2.687972,13.244 L22.511972,2.982 Z M22.511972,-5.68156633e-14 C22.497972,-5.68156633e-14 22.483972,-5.68156633e-14 22.511972,-5.68156633e-14 C22.525972,-5.68156633e-14 22.525972,-5.68156633e-14 22.511972,-5.68156633e-14 L22.511972,-5.68156633e-14 Z M22.511972,0.014 L0.251972,11.536 C0.153972,11.564 0.097972,11.662 0.097972,11.774 L0.097972,49.406 L44.996112,49.406 L44.996112,11.83 C44.996112,11.83 45.023972,11.718 44.926112,11.69 L22.511972,0.014 Z" id="Fill-3" fill="#2F9A41" mask="url(#mask-2)"></path>
                    </g>
                    <path d="M47.081972,48.131944 C47.347972,48.117944 47.081972,48.146084 47.081972,48.131944 C47.137972,46.857944 47.193972,45.584084 47.249972,44.309944 C47.417972,40.347944 47.599972,36.386084 47.753972,32.437944 C47.781972,31.667944 47.837972,30.589944 47.445972,29.917944 C47.291972,29.666084 47.095972,29.413944 46.941972,29.147944 C46.647972,28.671944 46.437972,28.153944 46.255972,27.636084 C45.807972,26.306084 45.457972,24.779944 45.429972,23.337944 L45.429972,23.239944 C45.429972,23.127944 45.415972,23.016084 45.429972,22.903944 L45.443972,22.861944 L46.045972,13.509944 C46.045972,13.173944 46.255972,12.851944 46.549972,12.851944 C46.843972,12.851944 47.137972,13.187944 47.137972,13.509944 L47.375972,24.219944 C47.375972,24.471944 47.473972,24.696084 47.697972,24.696084 C47.921972,24.696084 48.089972,24.499944 48.089972,24.247944 L48.453972,13.509944 C48.453972,13.341944 48.537972,12.851944 48.915972,12.851944 C49.307972,12.851944 49.489972,13.243944 49.489972,13.411944 L49.741972,24.276084 C49.741972,24.527944 49.839972,24.709944 50.063972,24.709944 C50.287972,24.709944 50.469972,24.527944 50.469972,24.276084 L50.763972,13.509944 C50.763972,13.187944 51.071972,12.879944 51.365972,12.879944 C51.659972,12.879944 51.855972,13.146084 51.869972,13.481944 L52.415972,22.889944 L52.415972,22.931944 C52.429972,23.043944 52.429972,23.156084 52.415972,23.253944 L52.415972,23.296084 C52.429972,23.323944 52.415972,23.337944 52.415972,23.366084 C52.387972,24.793944 52.037972,26.319944 51.589972,27.663944 C51.407972,28.181944 51.197972,28.699944 50.903972,29.176084 C50.749972,29.441944 50.553972,29.679944 50.399972,29.946084 C50.007972,30.617944 50.063972,31.709944 50.091972,32.466084 C50.245972,36.427944 50.413972,40.389944 50.581972,44.337944 C50.637972,45.611944 50.693972,46.886084 50.749972,48.159944 C50.749972,48.174084 50.553972,48.146084 50.749972,48.159944 M49.867972,48.131944 L46.213972,48.131944" id="Fill-6" fill="#2F9A41"></path>
                    <path d="M60.648028,48.034042 L57.638028,47.991902 C57.946028,44.464042 58.100028,41.481902 57.778028,38.696042 C57.246028,33.936042 55.342028,27.608042 55.636028,24.248042 C56.168028,17.976042 57.316028,15.344042 59.443888,12.599902 C59.780028,12.166042 60.438028,12.418042 60.438028,12.992042 C60.578028,29.302042 60.073888,39.984042 60.312028,44.169902 C60.396028,45.639902 60.536028,48.034042 60.648028,48.034042" id="Fill-8" fill="#2F9A41"></path>
                </g>
            </g>
        </g>
    </g>
</svg>