<?xml version="1.0" encoding="utf-8"?>
<!-- Generator: Adobe Illustrator 23.0.1, SVG Export Plug-In . SVG Version: 6.00 Build 0)  -->
<svg version="1.1" id="Layer_1" xmlns="http://www.w3.org/2000/svg" xmlns:xlink="http://www.w3.org/1999/xlink" x="0px" y="0px"
	 viewBox="0 0 792 174.4" style="enable-background:new 0 0 792 174.4;" xml:space="preserve">
<style type="text/css">
	.st0{fill:#4D5C6A;}
	.st1{fill:#6A98D0;}
	.st2{fill:#45A77B;}
	.st3{fill:#E82037;}
</style>
<g>
	<g>
		<path class="st0" d="M41.37,34.89c-4.38,0-7.94,3.56-7.94,7.94v89.04c0,4.38,3.56,7.94,7.94,7.94h71.27
			c4.37,0,7.93-3.56,7.93-7.94V42.83c0-4.38-3.56-7.94-7.93-7.94H41.37z M112.65,150.26H41.37c-10.14,0-18.39-8.25-18.39-18.38
			V42.83c0-10.14,8.25-18.38,18.39-18.38h71.27c10.14,0,18.38,8.25,18.38,18.38v89.04C131.03,142.01,122.78,150.26,112.65,150.26"/>
		<path class="st1" d="M108.22,60.15c0-2.74-2.64-4.98-5.97-5.15v-0.02H52.17c-3.52,0-6.37,2.31-6.37,5.17
			c0,2.86,2.86,5.17,6.37,5.17c0.13,0,49.95-0.01,50.08-0.01h0.01v0C105.59,65.14,108.22,62.9,108.22,60.15"/>
		<path class="st2" d="M108.22,113.96c0-2.74-2.64-4.98-5.97-5.15v-0.02H52.17c-3.52,0-6.37,2.31-6.37,5.17s2.86,5.17,6.37,5.17
			c0.13,0,49.95-0.01,50.08-0.01h0.01v0C105.59,118.94,108.22,116.7,108.22,113.96"/>
		<path class="st3" d="M108.22,87.35c0-2.74-2.64-4.98-5.97-5.15v-0.02H52.17c-3.52,0-6.37,2.31-6.37,5.17s2.86,5.17,6.37,5.17
			c0.13,0,49.95-0.01,50.08-0.01h0.01v0C105.59,92.33,108.22,90.09,108.22,87.35"/>
	</g>
	<g>
		<path class="st0" d="M168.45,83.9l30.4-0.03c12.74-0.01,21.83-10.51,21.81-23.76c-0.01-13.62-9.31-23.72-22.41-23.71l-29.85,0.03
			L168.45,83.9z M168.52,144.07c0,3.49-2.72,6.26-6.18,6.26c-3.46,0-6.19-2.75-6.2-6.25L156.01,31.3c0-3.5,2.72-6.26,6.18-6.26
			L198.41,25c20.2-0.02,34.78,15.41,34.8,35.1c0.02,18.95-12.89,34.23-32.54,35.18l33.35,44.86c0.91,1.1,1.27,2.57,1.28,3.86
			c0,3.5-2.72,6.26-6.18,6.26c-1.82,0-3.82-0.73-5.28-2.94l-37.01-52.03l-18.38,0.02L168.52,144.07z"/>
		<path class="st0" d="M284.73,73.77C268.9,73.79,260.18,83.91,259.1,100l48.96-0.06C308.05,86.93,303.48,73.75,284.73,73.77
			 M284.72,63.29c29.12-0.03,34.79,22.91,34.8,35.19c0,5.24,0.01,11.56-7.27,11.57l-53.14,0.06c0.02,17.88,10.41,29.44,27.52,29.42
			c10.56-0.01,16.74-3.99,21.83-7.79c1.09-0.72,1.82-1.08,3.28-1.09c2.91,0,5.28,2.34,5.28,5.23c0,1.99-0.91,3.07-2,4.16
			c-2.73,2.71-12.18,10.13-28.38,10.15c-24.21,0.03-39.33-13.14-39.36-43.5C247.25,78.87,261.06,63.32,284.72,63.29"/>
		<path class="st0" d="M393.41,89.54c0,0-6.94-15.89-24.04-15.87c-16.56,0.02-25.65,10.69-25.63,32.91
			c0.03,22.58,8.96,33.05,25.7,33.04c14.02-0.02,24.02-7.98,24-25.14L393.41,89.54z M393.39,74.91l-0.06-45.06
			c0-3.25,2.54-5.78,5.81-5.79c3.28,0,5.83,2.52,5.83,5.78l0.1,84.62c0.03,23.85-14.88,35.61-35.63,35.63
			c-23.48,0.03-37.32-13.87-37.36-43.5c-0.03-29.63,13.06-43.38,36.53-43.4C380.27,63.18,389.2,69.13,393.39,74.91"/>
		<path class="st0" d="M586.73,95.79l0.06,48.5c0,3.27-2.54,5.81-5.82,5.82c-3.28,0-5.82-2.54-5.83-5.8l-0.05-46.14
			c-0.01-14.35-4.21-24.15-21.87-24.14c-18.02,0.02-24.19,10.93-24.17,25.46l0.05,44.87c0,3.27-2.54,5.81-5.82,5.82
			c-3.28,0-5.83-2.54-5.83-5.81l-0.14-114.48c0-3.27,2.54-5.82,5.82-5.82c3.28,0,5.83,2.54,5.83,5.81l0.06,46.54
			c3.45-6.91,12.37-12.73,24.19-12.74C581.23,63.64,586.71,80.35,586.73,95.79"/>
		<path class="st0" d="M636.57,73.28c-15.84,0.02-24.56,10.14-25.63,26.23l48.96-0.06C659.88,86.44,655.31,73.26,636.57,73.28
			 M636.56,62.8c29.12-0.03,34.79,22.9,34.8,35.19c0,5.24,0.01,11.56-7.27,11.57l-53.14,0.06c0.02,17.88,10.41,29.44,27.52,29.42
			c10.56-0.01,16.74-3.99,21.83-7.79c1.09-0.72,1.82-1.08,3.27-1.09c2.91,0,5.28,2.34,5.29,5.23c0,1.99-0.91,3.07-2,4.16
			c-2.73,2.71-12.18,10.13-28.38,10.15c-24.21,0.03-39.33-13.14-39.36-43.5C599.08,78.38,612.9,62.83,636.56,62.8"/>
		<path class="st0" d="M695.3,29.9l0.12,98.74c0.01,7.29,2.38,10.39,7.29,10.39c2.91,0,5.46,2.37,5.47,5.47
			c0,3.1-2.54,5.48-5.45,5.48c-12.2,0.01-18.94-7.28-18.95-21.32l-0.12-98.74c0-3.1,2.72-5.84,5.82-5.85
			C692.75,24.06,695.3,26.8,695.3,29.9"/>
		<path class="st0" d="M725.93,77.12c-3.09,0-5.46-2.35-5.46-5.43c-0.01-3.08,2.36-5.44,5.45-5.44l6.19-0.01l-0.01-10.69
			c-0.02-16.3,9.25-31.17,31.45-31.19c3.09,0,5.46,2.35,5.47,5.43c0,3.08-2.36,5.44-5.45,5.44c-14.2,0.02-19.83,8.54-19.82,20.31
			l0.01,10.69l16.56-0.02c3.09,0,5.46,2.35,5.47,5.43c0,3.08-2.36,5.44-5.45,5.44l-16.56,0.02l0.08,67.03c0,3.26-2.54,5.8-5.82,5.8
			c-3.28,0-5.82-2.53-5.83-5.79l-0.07-67.03L725.93,77.12z"/>
		<path class="st0" d="M462.43,35.78c-17.71,0.02-24.44,9.33-24.43,19.52c0.03,29.69,63.76,16.92,63.81,60.03
			c0.02,22.36-14.46,34.72-40.43,34.75c-19.23,0.02-33.57-10.34-39.32-21.96c-0.68-1.43-0.85-2.15-0.85-3.22
			c0-3.22,2.35-5.73,5.39-5.73c2.02,0,3.71,1.07,4.72,2.86c5.41,9.29,15.2,16.97,30.04,16.96c18.55-0.02,29-7.9,28.98-23.64
			c-0.04-33.45-63.76-17.63-63.81-60.03c-0.02-16.45,11.26-30.6,35.88-30.63c16.02-0.02,29.02,7.12,36.11,18.38
			c0.67,1.08,1.01,2.15,1.01,3.4c0,3.22-2.35,5.73-5.39,5.73c-1.52,0-3.04-0.53-4.39-2.32C484.7,43.27,476.59,35.77,462.43,35.78"/>
	</g>
</g>
</svg>
