<?xml version="1.0" encoding="UTF-8"?>
<svg width="250px" height="43px" viewBox="0 0 250 43" version="1.1" xmlns="http://www.w3.org/2000/svg" xmlns:xlink="http://www.w3.org/1999/xlink">
    <!-- Generator: Sketch 54.1 (76490) - https://sketchapp.com -->
    <title>RedShelfLogo</title>
    <desc>Created with Sketch.</desc>
    <g id="1-Year-Anniversary" stroke="none" stroke-width="1" fill="none" fill-rule="evenodd">
        <g id="Homepage-" transform="translate(-833.000000, -5965.000000)" fill-rule="nonzero">
            <g id="Red-Shelf" transform="translate(788.000000, 5918.000000)">
                <g id="RedShelfLogo" transform="translate(45.000000, 47.000000)">
                    <g id="Group">
                        <path d="M6.45666667,3.64429134 C4.99666667,3.64429134 3.81,4.83562992 3.81,6.30137795 L3.81,36.0982283 C3.81,37.5639764 4.99666667,38.755315 6.45666667,38.755315 L30.2133333,38.755315 C31.67,38.755315 32.8566667,37.5639764 32.8566667,36.0982283 L32.8566667,6.30137795 C32.8566667,4.83562992 31.67,3.64429134 30.2133333,3.64429134 L6.45666667,3.64429134 Z M30.2166667,42.2523622 L6.45666667,42.2523622 C3.07666667,42.2523622 0.326666667,39.4915354 0.326666667,36.1015748 L0.326666667,6.30137795 C0.326666667,2.90807087 3.07666667,0.150590551 6.45666667,0.150590551 L30.2133333,0.150590551 C33.5933333,0.150590551 36.34,2.91141732 36.34,6.30137795 L36.34,36.0982283 C36.3433333,39.4915354 33.5933333,42.2523622 30.2166667,42.2523622 L30.2166667,42.2523622 Z" id="Shape" fill="#4D5C6A"></path>
                        <path d="M28.74,12.0974409 C28.74,11.1805118 27.86,10.4309055 26.75,10.3740157 L26.75,10.3673228 L10.0566667,10.3673228 C8.88333333,10.3673228 7.93333333,11.1403543 7.93333333,12.0974409 C7.93333333,13.0545276 8.88666667,13.8275591 10.0566667,13.8275591 C10.1,13.8275591 26.7066667,13.8242126 26.75,13.8242126 L26.7533333,13.8242126 L26.7533333,13.8242126 C27.8633333,13.7673228 28.74,13.0177165 28.74,12.0974409" id="Path" fill="#6A98D0"></path>
                        <path d="M28.74,30.1047244 C28.74,29.1877953 27.86,28.438189 26.75,28.3812992 L26.75,28.3746063 L10.0566667,28.3746063 C8.88333333,28.3746063 7.93333333,29.1476378 7.93333333,30.1047244 C7.93333333,31.061811 8.88666667,31.8348425 10.0566667,31.8348425 C10.1,31.8348425 26.7066667,31.8314961 26.75,31.8314961 L26.7533333,31.8314961 L26.7533333,31.8314961 C27.8633333,31.7712598 28.74,31.0216535 28.74,30.1047244" id="Path" fill="#45A77B"></path>
                        <path d="M28.74,21.1998031 C28.74,20.282874 27.86,19.5332677 26.75,19.476378 L26.75,19.469685 L10.0566667,19.469685 C8.88333333,19.469685 7.93333333,20.2427165 7.93333333,21.1998031 C7.93333333,22.1568898 8.88666667,22.9299213 10.0566667,22.9299213 C10.1,22.9299213 26.7066667,22.9265748 26.75,22.9265748 L26.7533333,22.9265748 L26.7533333,22.9265748 C27.8633333,22.8663386 28.74,22.1167323 28.74,21.1998031" id="Path" fill="#E82037"></path>
                    </g>
                    <g id="Group" transform="translate(45.000000, 0.000000)" fill="#4D5C6A">
                        <path d="M4.15675896,20.0452756 L14.3065961,20.0352362 C18.5601792,20.0318898 21.595114,16.5181102 21.5884365,12.0840551 C21.5850977,7.5261811 18.4800489,4.14625984 14.1062704,4.1496063 L4.14006515,4.15964567 L4.15675896,20.0452756 Z M4.18013029,40.1809055 C4.18013029,41.3488189 3.27198697,42.2757874 2.11677524,42.2757874 C0.961563518,42.2757874 0.0500814332,41.3555118 0.046742671,40.184252 L0.00333876221,2.44291339 C0.00333876221,1.27165354 0.911482085,0.348031496 2.06669381,0.348031496 L14.1596906,0.334645669 C20.9039902,0.327952756 25.7719055,5.49153543 25.7785831,12.0807087 C25.7852606,18.4222441 21.4749186,23.5356299 14.9142508,23.8535433 L26.0490228,38.865748 C26.3528502,39.2338583 26.4730456,39.7257874 26.4763844,40.1574803 C26.4763844,41.3287402 25.568241,42.2523622 24.4130293,42.2523622 C23.8053746,42.2523622 23.1376221,42.0080709 22.6501629,41.2685039 L10.2934039,23.8568898 L4.15675896,23.8635827 L4.18013029,40.1809055 Z" id="Shape"></path>
                        <path d="M42.979886,16.655315 C37.6946254,16.6620079 34.7832248,20.048622 34.4226384,25.4330709 L50.7692182,25.4129921 C50.7658795,21.059252 49.2400651,16.648622 42.979886,16.655315 M42.9765472,13.1482283 C52.6990228,13.138189 54.592101,20.8149606 54.5954397,24.9244094 C54.5954397,26.6779528 54.5987785,28.7929134 52.1681596,28.7962598 L34.4259772,28.8163386 C34.4326547,34.7998031 37.9016287,38.6683071 43.6142508,38.6616142 C47.1399837,38.6582677 49.2033388,37.326378 50.9027687,36.0547244 C51.2666938,35.8137795 51.5104235,35.6933071 51.9978827,35.6899606 C52.9694625,35.6899606 53.7607492,36.4730315 53.7607492,37.4401575 C53.7607492,38.1061024 53.4569218,38.4675197 53.0929967,38.8322835 C52.1815147,39.7391732 49.0263844,42.2222441 43.6175896,42.228937 C35.5344463,42.2389764 30.4862378,37.8316929 30.4762215,27.6718504 C30.4662052,18.3620079 35.0770358,13.1582677 42.9765472,13.1482283" id="Shape"></path>
                        <path d="M79.2655537,21.9326772 C79.2655537,21.9326772 76.9484528,16.6151575 71.2391694,16.6218504 C65.7101792,16.6285433 62.6752443,20.1992126 62.6819218,27.6350394 C62.6919381,35.1913386 65.6734528,38.6950787 71.2625407,38.6917323 C75.9434853,38.6850394 79.2822476,36.0212598 79.27557,30.2787402 L79.2655537,21.9326772 Z M79.2588762,17.036811 L79.2388436,1.95767717 C79.2388436,0.87007874 80.0868893,0.0234251969 81.1786645,0.0200787402 C82.2737785,0.0200787402 83.1251629,0.863385827 83.1251629,1.95433071 L83.1585505,30.2720472 C83.1685668,38.2533465 78.1904723,42.1887795 71.2625407,42.1954724 C63.423127,42.2055118 58.8022801,37.553937 58.7889251,27.6383858 C58.7789088,17.7228346 63.1493485,13.1214567 70.9854235,13.1147638 C74.8784202,13.1114173 77.8599349,15.1025591 79.2588762,17.036811 L79.2588762,17.036811 Z" id="Shape"></path>
                        <path d="M143.810505,24.0242126 L143.830537,40.2545276 C143.830537,41.3488189 142.982492,42.1988189 141.887378,42.2021654 C140.792264,42.2021654 139.944218,41.3521654 139.940879,40.2612205 L139.924186,24.8206693 C139.920847,20.0185039 138.518567,16.7389764 132.622313,16.7423228 C126.605863,16.7490157 124.545847,20.4 124.552524,25.2624016 L124.569218,40.2779528 C124.569218,41.3722441 123.721173,42.2222441 122.626059,42.2255906 C121.530945,42.2255906 120.67956,41.3755906 120.67956,40.2812992 L120.632818,1.97106299 C120.632818,0.876771654 121.480863,0.0234251969 122.575977,0.0234251969 C123.671091,0.0234251969 124.522476,0.873425197 124.522476,1.96771654 L124.542508,17.542126 C125.694381,15.2297244 128.672557,13.2820866 132.618974,13.2787402 C141.974186,13.2653543 143.803827,18.8572835 143.810505,24.0242126" id="Path"></path>
                        <path d="M160.450896,16.4913386 C155.162296,16.4980315 152.250896,19.8846457 151.893648,25.2690945 L168.240228,25.2490157 C168.23355,20.8952756 166.707736,16.4846457 160.450896,16.4913386 M160.447557,12.984252 C170.170033,12.9742126 172.063111,20.6476378 172.06645,24.7604331 C172.06645,26.5139764 172.069788,28.628937 169.639169,28.6322835 L151.896987,28.6523622 C151.903664,34.6358268 155.372638,38.5043307 161.085261,38.4976378 C164.610993,38.4942913 166.674349,37.1624016 168.373779,35.890748 C168.737704,35.6498031 168.981433,35.5293307 169.465554,35.5259843 C170.437134,35.5259843 171.22842,36.3090551 171.231759,37.2761811 C171.231759,37.942126 170.927932,38.3035433 170.564007,38.6683071 C169.652524,39.5751969 166.497394,42.0582677 161.088599,42.0649606 C153.005456,42.075 147.957248,37.6677165 147.947231,27.507874 C147.933876,18.1980315 152.548046,12.9942913 160.447557,12.984252" id="Shape"></path>
                        <path d="M180.059446,1.97440945 L180.099511,35.0173228 C180.10285,37.4568898 180.894137,38.4942913 182.533469,38.4942913 C183.505049,38.4942913 184.356433,39.2874016 184.359772,40.3248031 C184.359772,41.3622047 183.511726,42.1586614 182.540147,42.1586614 C178.466857,42.1620079 176.216531,39.7224409 176.213192,35.0240157 L176.173127,1.98110236 C176.173127,0.943700787 177.08127,0.0267716535 178.116287,0.0234251969 C179.208062,0.0200787402 180.059446,0.937007874 180.059446,1.97440945" id="Path"></path>
                        <path d="M190.286075,17.776378 C189.254397,17.776378 188.463111,16.9899606 188.463111,15.959252 C188.459772,14.9285433 189.251059,14.1387795 190.282736,14.1387795 L192.34943,14.1354331 L192.346091,10.5580709 C192.339414,5.10334646 195.434446,0.127165354 202.846498,0.120472441 C203.878176,0.120472441 204.669463,0.906889764 204.672801,1.93759843 C204.672801,2.96830709 203.884853,3.75807087 202.853176,3.75807087 C198.112134,3.76476378 196.23241,6.61594488 196.235749,10.5547244 L196.239088,14.1320866 L201.768078,14.1253937 C202.799756,14.1253937 203.591042,14.911811 203.594381,15.9425197 C203.594381,16.9732283 202.806433,17.7629921 201.774756,17.7629921 L196.245765,17.769685 L196.272476,40.2009843 C196.272476,41.2919291 195.42443,42.1419291 194.329316,42.1419291 C193.234202,42.1419291 192.386156,41.2952756 192.382818,40.2043307 L192.359446,17.7730315 L190.286075,17.776378 Z" id="Path"></path>
                        <path d="M102.309691,3.94212598 C96.3967427,3.9488189 94.1497557,7.06437008 94.1530945,10.4744094 C94.1631107,20.4100394 115.441042,16.1366142 115.457736,30.563189 C115.464414,38.0458661 110.629886,42.1820866 101.959121,42.192126 C95.5386808,42.1988189 90.7508958,38.7318898 88.8311075,34.8433071 C88.6040717,34.3647638 88.5473127,34.1238189 88.5473127,33.765748 C88.5473127,32.688189 89.3319218,31.8482283 90.3469055,31.8482283 C91.0213355,31.8482283 91.5855863,32.2062992 91.9228013,32.805315 C93.7290717,35.9141732 96.9977199,38.484252 101.952443,38.4809055 C108.145847,38.4742126 111.634853,35.8372047 111.628176,30.5698819 C111.614821,19.3759843 90.340228,24.6700787 90.3235342,10.4811024 C90.3168567,4.9761811 94.0829805,0.240944882 102.303013,0.230905512 C107.65171,0.224212598 111.992101,2.61358268 114.359283,6.38169291 C114.58298,6.74311024 114.696498,7.1011811 114.696498,7.51948819 C114.696498,8.59704724 113.911889,9.43700787 112.896906,9.43700787 C112.389414,9.43700787 111.881922,9.25964567 111.431189,8.66062992 C109.745114,6.44862205 107.037378,3.93877953 102.309691,3.94212598" id="Path"></path>
                    </g>
                </g>
            </g>
        </g>
    </g>
</svg>