<?xml version="1.0" encoding="UTF-8"?>
<svg width="190px" height="30px" viewBox="0 0 190 30" version="1.1" xmlns="http://www.w3.org/2000/svg" xmlns:xlink="http://www.w3.org/1999/xlink">
    <!-- Generator: Sketch 54.1 (76490) - https://sketchapp.com -->
    <title>SitterCityLogo</title>
    <desc>Created with Sketch.</desc>
    <g id="1-Year-Anniversary" stroke="none" stroke-width="1" fill="none" fill-rule="evenodd">
        <g id="Homepage-" transform="translate(-486.000000, -6906.000000)" fill="#FF0064" fill-rule="nonzero">
            <g id="Sittercity" transform="translate(412.000000, 6853.000000)">
                <g id="SitterCityLogo" transform="translate(74.000000, 53.000000)">
                    <path d="M132.795283,7.3754717 L132.795283,11.1396226 C129.223585,11.1396226 127.474528,12.2490566 127.474528,15.7669811 L127.474528,24.2037736 L123.495283,24.2037736 L123.495283,7.66698113 L127.49434,7.66698113 L127.49434,10.5933962 C128.374528,8.50188679 129.798113,7.3754717 132.795283,7.3754717 Z M98.3009434,4.07264151 L94.3386792,4.07264151 L94.3386792,7.66698113 L91.8962264,7.66698113 L91.8962264,10.8311321 L94.3386792,10.8311321 L94.3386792,19.5764151 C94.3386792,22.7632075 96.1273585,24.5150943 99.3735849,24.5150943 C101.091509,24.5150943 102.031132,24.0792453 102.031132,24.0792453 L102.031132,20.8443396 C101.417336,21.0990288 100.756755,21.2215015 100.092453,21.2037736 C98.9122642,21.2037736 98.3122642,20.5301887 98.3122642,19.2056604 L98.3122642,10.8311321 L102.033962,10.8311321 L102.033962,7.66698113 L98.3009434,7.66698113 L98.3009434,4.07264151 Z M60.7641509,10.7292453 C56.9009434,10.1632075 56.2216981,9.25471698 56.2216981,7.54245283 C56.2216981,5.76226415 57.6367925,4.71226415 59.9688679,4.71226415 C62.5160377,4.71226415 63.8037736,5.76792453 64.2141509,8.05754717 L68.2132075,8.05754717 C67.8028302,3.7754717 65.0462264,1.38396226 59.9745283,1.38396226 C55.3358491,1.38396226 52.095283,4.05849057 52.095283,7.89339623 C52.095283,11.8924528 54.3254717,13.7490566 60.0509434,14.5188679 C63.6,15.0990566 64.6273585,15.8490566 64.6273585,17.8613208 C64.6273585,19.8424528 62.9292453,21.2037736 60.5037736,21.2037736 C58.2396226,21.2037736 56.0632075,20.6377358 55.6188679,17.0773585 L51.4273585,17.0773585 C51.6056604,20.490566 53.4566038,24.5207547 60.5009434,24.5207547 C65.3122642,24.5207547 68.8160377,21.5745283 68.8160377,17.5188679 C68.8132075,12.7839623 65.7339623,11.4113208 60.7641509,10.7292453 Z M85.709434,4.07264151 L81.7471698,4.07264151 L81.7471698,7.66698113 L79.304717,7.66698113 L79.304717,10.8311321 L81.7471698,10.8311321 L81.7471698,19.5764151 C81.7471698,22.7632075 83.5358491,24.5150943 86.7820755,24.5150943 C88.5,24.5150943 89.4396226,24.0792453 89.4396226,24.0792453 L89.4396226,20.8443396 C88.8258269,21.0990288 88.1652457,21.2215015 87.5009434,21.2037736 C86.3207547,21.2037736 85.7207547,20.5301887 85.7207547,19.2056604 L85.7207547,10.8311321 L89.4424528,10.8311321 L89.4424528,7.66698113 L85.7066038,7.66698113 L85.7066038,4.07264151 L85.709434,4.07264151 Z M72.0679245,24.2037736 L76.0301887,24.2037736 L76.0301887,7.66698113 L72.0679245,7.66698113 L72.0679245,24.2037736 Z M74.0490566,0.283018868 C72.7797588,0.326439306 71.7817719,1.38321206 71.8109914,2.65291618 C71.8402108,3.92262029 72.885754,4.9323657 74.1557056,4.9173509 C75.4256571,4.90233611 76.4470347,3.86815323 76.4462264,2.59811321 C76.422977,1.29823246 75.3518138,0.262521469 74.0518868,0.283018868 L74.0490566,0.283018868 Z M155.558491,0.283018868 C154.289193,0.326439306 153.291206,1.38321206 153.320425,2.65291618 C153.349645,3.92262029 154.395188,4.9323657 155.66514,4.9173509 C156.935091,4.90233611 157.956469,3.86815323 157.95566,2.59811321 C157.932406,1.30047374 156.864713,0.265672067 155.566981,0.283018868 L155.558491,0.283018868 Z M167.213208,4.07264151 L163.250943,4.07264151 L163.250943,7.66698113 L160.808491,7.66698113 L160.808491,10.8311321 L163.250943,10.8311321 L163.250943,19.5764151 C163.250943,22.7632075 165.039623,24.5150943 168.285849,24.5150943 C170.003774,24.5150943 170.943396,24.0792453 170.943396,24.0792453 L170.943396,20.8443396 C170.3296,21.0990288 169.669019,21.2215015 169.004717,21.2037736 C167.824528,21.2037736 167.224528,20.5301887 167.224528,19.2056604 L167.224528,10.8311321 L170.946226,10.8311321 L170.946226,7.66698113 L167.221698,7.66698113 L167.221698,4.07264151 L167.213208,4.07264151 Z M185.917925,7.66698113 L181.978302,18.0481132 L177.710377,7.66698113 L173.39717,7.66698113 L179.906604,22.4518868 L176.898113,29.8103774 L180.823585,29.8103774 L189.809434,7.67830189 L185.917925,7.67830189 L185.917925,7.66698113 Z M142.814151,21.4188679 C139.983962,21.4188679 138.379245,19.4716981 138.379245,16.0754717 L138.379245,15.8264151 C138.379245,12.6198113 140.077358,10.5481132 142.720755,10.5481132 C144.860377,10.5481132 146.10283,11.6433962 146.4,13.6415094 L150.246226,13.6415094 C150.082075,11.7735849 149.037736,7.3245283 142.669811,7.3245283 C137.833019,7.3245283 134.323585,10.9273585 134.323585,15.8886792 L134.323585,16.1377358 C134.323585,21.15 137.677358,24.5150943 142.669811,24.5150943 C147.025472,24.5150943 150.048113,21.9990566 150.336792,17.9179245 L146.666038,17.9179245 C146.470755,20.0886792 144.953774,21.4188679 142.814151,21.4188679 Z M120.243396,15.6707547 L120.243396,16.859434 L108.277358,16.859434 C108.430189,19.859434 109.989623,21.4188679 112.678302,21.4188679 C114.820755,21.4188679 116.114151,20.6235849 116.357547,19.0132075 L120.206604,19.0132075 C119.666038,22.5 116.892453,24.5179245 112.593396,24.5179245 C107.581132,24.5179245 104.216038,21.1386792 104.216038,16.109434 L104.216038,15.8603774 C104.216038,10.8367925 107.595283,7.32735849 112.423585,7.32735849 C114.619811,7.32735849 116.504717,8.00377358 117.871698,9.28584906 C119.448113,10.754717 120.243396,12.9028302 120.243396,15.6679245 L120.243396,15.6707547 Z M116.281132,14.1367925 C116.080189,11.5669811 114.778302,10.2650943 112.415094,10.2650943 C110.25283,10.2650943 108.735849,11.7084906 108.339623,14.1367925 L116.295283,14.1367925 L116.281132,14.1367925 Z M153.568868,24.2037736 L157.531132,24.2037736 L157.531132,7.66698113 L153.568868,7.66698113 L153.568868,24.2037736 Z M35.2528302,12.9537736 C37.2544623,11.0791859 37.908158,8.17225216 36.9017338,5.62122884 C35.8953095,3.07020552 33.4329374,1.39261617 30.690566,1.38962264 L30.3198113,1.38962264 C25.5367925,1.38962264 20.9801887,7.08113208 18.8264151,10.2339623 C16.6726415,7.0754717 12.1160377,1.38679245 7.33301887,1.38679245 L6.96226415,1.38679245 C4.21858552,1.38854747 1.75456088,3.06659827 0.747870455,5.61892072 C-0.258819975,8.17124316 0.396254052,11.079533 2.4,12.9537736 C0.398367926,14.8283612 -0.255327839,17.735295 0.751096438,20.2863183 C1.75752072,22.8373417 4.21989276,24.514931 6.96226415,24.5179245 L7.33301887,24.5179245 C12.1160377,24.5179245 16.6726415,18.8264151 18.8264151,15.6735849 C20.9858491,18.8264151 25.5367925,24.5179245 30.3198113,24.5179245 L30.690566,24.5179245 C33.4329374,24.514931 35.8953095,22.8373417 36.9017338,20.2863183 C37.908158,17.735295 37.2544623,14.8283612 35.2528302,12.9537736 Z M7.33301887,20.8981132 L6.96226415,20.8981132 C5.27166908,20.8965529 3.90156031,19.5264441 3.9,17.8358491 C3.9,15.9990566 5.17641509,14.354717 6.96226415,14.354717 L6.96226415,11.5386792 C5.17641509,11.5386792 3.9,9.89433962 3.9,8.05754717 C3.90156031,6.3669521 5.27166908,4.99684333 6.96226415,4.99528302 L7.33301887,4.99528302 C10.2283019,4.99528302 14.1679245,9.54339623 16.3896226,12.9424528 C14.1650943,16.35 10.2254717,20.8981132 7.33301887,20.8981132 Z M33.7528302,17.8358491 C33.7512699,19.5264441 32.3811611,20.8965529 30.690566,20.8981132 L30.3198113,20.8981132 C27.4245283,20.8981132 23.4849057,16.35 21.2632075,12.9509434 C23.4792453,9.55471698 27.4188679,5.00377358 30.3198113,5.00377358 L30.690566,5.00377358 C32.3811611,5.0053339 33.7512699,6.37544267 33.7528302,8.06603774 C33.7528302,9.90283019 32.4764151,11.5471698 30.690566,11.5471698 L30.690566,14.3688679 C32.4735849,14.3688679 33.7528302,15.9990566 33.7528302,17.8358491 Z" id="Shape"></path>
                </g>
            </g>
        </g>
    </g>
</svg>