<svg class="logo__image--full" xmlns="http://www.w3.org/2000/svg" viewBox="0 0 669.67 104.28">
  <style type="text/css">
    .logo__image-path--full { fill: #ff0064; }
  </style>
  <path class="logo__image-path--full" d="M555.3,102.29v13.3c-12.62,0-18.8,3.92-18.8,16.35v29.81H522.44V103.32h14.13v10.34C539.68,106.27,544.71,102.29,555.3,102.29ZM433.42,90.62h-14v12.7h-8.63V114.5h8.63v30.9c0,11.26,6.32,17.45,17.79,17.45,6.07,0,9.39-1.54,9.39-1.54V149.88a16.71,16.71,0,0,1-6.85,1.27c-4.17,0-6.29-2.38-6.29-7.06V114.5h13.15V103.32H433.42V90.62ZM300.79,114.14c-13.65-2-16.05-5.21-16.05-11.26,0-6.29,5-10,13.24-10,9,0,13.55,3.73,15,11.82h14.13C325.66,89.57,315.92,81.12,298,81.12c-16.39,0-27.84,9.45-27.84,23,0,14.13,7.88,20.69,28.11,23.41,12.54,2.05,16.17,4.7,16.17,11.81,0,7-6,11.81-14.57,11.81-8,0-15.69-2-17.26-14.58H267.8c0.63,12.06,7.17,26.3,32.06,26.3,17,0,29.38-10.41,29.38-24.74C329.23,121.4,318.35,116.55,300.79,114.14Zm88.14-23.52h-14v12.7h-8.63V114.5h8.63v30.9c0,11.26,6.32,17.45,17.79,17.45,6.07,0,9.39-1.54,9.39-1.54V149.88a16.71,16.71,0,0,1-6.85,1.27c-4.17,0-6.29-2.38-6.29-7.06V114.5h13.15V103.32H388.92V90.62Zm-48.2,71.13h14V103.32h-14v58.43Zm7-84.52a8.19,8.19,0,1,0,8.47,8.18A8.33,8.33,0,0,0,347.74,77.23Zm288,0a8.19,8.19,0,1,0,8.47,8.18A8.33,8.33,0,0,0,635.76,77.23Zm41.18,13.39h-14v12.7h-8.63V114.5h8.63v30.9c0,11.26,6.32,17.45,17.79,17.45,6.07,0,9.39-1.54,9.39-1.54V149.88a16.71,16.71,0,0,1-6.85,1.27c-4.17,0-6.29-2.38-6.29-7.06V114.5h13.15V103.32H676.94V90.62ZM743,103.32L729.08,140,714,103.32H698.76l23,52.24-10.63,26H725l31.75-78.2H743ZM590.7,151.91c-10,0-15.67-6.88-15.67-18.88v-0.88c0-11.33,6-18.65,15.34-18.65,7.56,0,11.95,3.87,13,10.93h13.59c-0.58-6.6-4.27-22.32-26.77-22.32-17.09,0-29.49,12.73-29.49,30.26v0.88c0,17.71,11.85,29.6,29.49,29.6,15.39,0,26.07-8.89,27.09-23.31H604.31C603.62,147.21,598.26,151.91,590.7,151.91Zm-79.75-20.31v4.2H468.67c0.54,10.6,6.05,16.11,15.55,16.11,7.57,0,12.14-2.81,13-8.5h13.6c-1.91,12.32-11.71,19.45-26.9,19.45-17.71,0-29.6-11.94-29.6-29.71v-0.88c0-17.75,11.94-30.15,29-30.15,7.76,0,14.42,2.39,19.25,6.92C508.14,114.23,510.95,121.82,510.95,131.59Zm-14-5.42c-0.71-9.08-5.31-13.68-13.66-13.68-7.64,0-13,5.1-14.4,13.68H497Zm131.75,35.57h14V103.32h-14v58.43ZM210.65,122a23.62,23.62,0,0,0-16.12-40.86h-1.31c-16.9,0-33,20.11-40.61,31.25C145,101.23,128.9,81.13,112,81.13h-1.31A23.62,23.62,0,0,0,94.57,122a23.62,23.62,0,0,0,16.12,40.86H112c16.9,0,33-20.11,40.61-31.25,7.63,11.14,23.71,31.25,40.61,31.25h1.31A23.62,23.62,0,0,0,210.65,122ZM112,150.07h-1.31a10.83,10.83,0,0,1-10.82-10.82c0-6.49,4.51-12.3,10.82-12.3V117c-6.31,0-10.82-5.81-10.82-12.3a10.83,10.83,0,0,1,10.82-10.82H112c10.23,0,24.15,16.07,32,28.08C136.14,134,122.22,150.07,112,150.07Zm93.35-10.82a10.83,10.83,0,0,1-10.82,10.82h-1.31c-10.23,0-24.15-16.07-32-28.08,7.83-12,21.75-28.08,32-28.08h1.31a10.83,10.83,0,0,1,10.82,10.82c0,6.49-4.51,12.3-10.82,12.3V127C200.83,127,205.35,132.76,205.35,139.25Z" transform="translate(-87.09 -77.23)"/>
</svg>
