<?xml version="1.0" encoding="UTF-8"?>
<svg width="217px" height="55px" viewBox="0 0 217 55" version="1.1" xmlns="http://www.w3.org/2000/svg" xmlns:xlink="http://www.w3.org/1999/xlink">
    <!-- Generator: Sketch 54.1 (76490) - https://sketchapp.com -->
    <title>Group 16</title>
    <desc>Created with Sketch.</desc>
    <defs>
        <polygon id="path-1" points="0.206949153 0.13470339 31.3094492 0.13470339 31.3094492 47.923178 0.206949153 47.923178"></polygon>
        <polygon id="path-3" points="0 0.135868644 24.6953263 0.135868644 24.6953263 47.9248093 0 47.9248093"></polygon>
        <polygon id="path-5" points="0.00438135593 0.165139831 46.4582203 0.165139831 46.4582203 34.3378517 0.00438135593 34.3378517"></polygon>
    </defs>
    <g id="1-Year-Anniversary" stroke="none" stroke-width="1" fill="none" fill-rule="evenodd">
        <g id="Homepage-" transform="translate(-1225.000000, -5958.000000)">
            <g id="Tandem" transform="translate(1165.000000, 5918.000000)">
                <g id="Group-16" transform="translate(60.000000, 40.000000)">
                    <path d="M148.607996,32.0252881 L153.441004,32.0252881 L149.896767,25.7049492 L141.512996,25.7040169 C141.668208,23.4201186 143.161131,21.6139746 144.057911,20.9213475 C145.074945,20.1355 146.744987,19.4885508 149.028886,19.5659237 C152.972106,19.6987627 155.51236,21.9616864 156.442233,26.2400339 C156.444564,26.2535508 156.448292,26.2670678 156.452021,26.2805847 C156.462275,26.3267288 156.472064,26.3724068 156.482318,26.4180847 C156.534055,26.6581271 156.58253,26.8991017 156.626343,27.1400763 C156.858928,28.4274492 156.972191,29.7227458 156.972191,30.9854153 C156.972191,32.3403729 156.838886,33.7330847 156.570411,35.113678 C156.514479,35.4338898 156.445962,35.7471102 156.36486,36.053339 C155.879648,37.8748644 154.932996,39.2652458 153.928547,40.2710932 L148.607996,32.0252881 Z M148.33486,42.0949492 C147.551343,42.0296949 145.944225,41.8814746 144.948165,41.4055847 C142.942996,40.4477458 141.316301,38.6975339 140.284818,36.6028729 L134.523335,38.9902458 C135.753843,41.4652458 137.327869,43.9831271 139.986979,45.9151186 C144.096597,48.9005 150.178758,48.6273644 152.234733,48.1370254 L156.577403,54.8652034 L163.352191,54.8652034 L157.461131,45.7449915 C162.07647,42.2720678 163.589436,37.9452458 163.589436,30.9854153 C163.589436,27.5740169 163.656089,13.6804576 148.958038,13.6580847 C139.739945,13.6441017 135.660623,19.5738475 134.626809,25.8932542 C134.316852,27.7888898 134.364394,32.0252881 134.364394,32.0252881 L141.838335,32.0252881 L148.33486,42.0949492 Z" id="Fill-1" fill="#0B2D48"></path>
                    <path d="M81.8079788,13.5473856 C77.3361992,13.5473856 73.3309873,15.8168347 70.9286992,19.8215805 L70.9286992,14.0815381 L63.9875127,14.0815381 L63.9875127,47.7200975 L70.9286992,47.7200975 L70.9286992,34.1043347 C70.9286992,29.6996737 71.7965805,26.2290805 73.4652246,23.6254364 C75.2005212,21.0227246 77.2028941,19.6878093 79.5385297,19.6878093 C83.0091229,19.6878093 84.7448856,21.7568347 84.7448856,25.8286992 L84.7448856,47.7200975 L91.6856059,47.7200975 L91.6856059,23.6254364 C91.6856059,17.2188686 87.7479788,13.5473856 81.8079788,13.5473856" id="Fill-3" fill="#0B2D48"></path>
                    <g id="Group-7" transform="translate(96.949153, 0.331398)">
                        <mask id="mask-2" fill="white">
                            <use xlink:href="#path-1"></use>
                        </mask>
                        <g id="Clip-6"></g>
                        <path d="M22.3658898,38.7787288 C20.7638983,40.7815678 18.695339,41.7822881 16.1588136,41.7822881 C13.6222881,41.7822881 11.5532627,40.7815678 9.95173729,38.7787288 C8.35021186,36.7101695 7.54851695,33.9736864 7.54851695,30.5697458 C7.54851695,27.1658051 8.35021186,24.429322 9.95173729,22.4269492 C11.5532627,20.3579237 13.6222881,19.3562712 16.1588136,19.3562712 C18.695339,19.3562712 20.7638983,20.3579237 22.3658898,22.4269492 C23.9678814,24.429322 24.7686441,27.1658051 24.7686441,30.5697458 C24.7686441,33.9736864 23.9678814,36.7101695 22.3658898,38.7787288 L22.3658898,38.7787288 Z M24.3682627,17.4876695 C23.5670339,16.353178 22.2992373,15.4186441 20.4972881,14.5512288 C18.695339,13.6833475 17.0266949,13.2158475 15.3580508,13.2158475 C5.47949153,13.2158475 0.206949153,19.8908898 0.206949153,30.5697458 C0.206949153,41.515678 5.41283898,47.923178 15.2247458,47.923178 C19.295678,47.923178 23.1,45.7203814 24.3682627,43.5180508 L24.3682627,47.3890254 L31.3094492,47.3890254 L31.3094492,0.13470339 L24.3682627,0.13470339 L24.3682627,17.4876695 Z" id="Fill-5" fill="#0B2D48" mask="url(#mask-2)"></path>
                    </g>
                    <g id="Group-10" transform="translate(0.000000, 0.331398)">
                        <mask id="mask-4" fill="white">
                            <use xlink:href="#path-3"></use>
                        </mask>
                        <g id="Clip-9"></g>
                        <path d="M-0.000139830508,19.8920551 L-0.000139830508,13.7516314 L8.27642797,13.7516314 L8.27642797,4.47387712 L15.2176144,0.135868644 L15.2176144,13.7516314 L23.9612161,13.7516314 L23.9612161,19.8920551 L15.2176144,19.8920551 L15.2176144,36.3114195 C15.2176144,39.9819703 16.6863008,41.7839195 19.6898602,41.7839195 C20.8248178,41.7839195 21.8921907,41.4501907 22.8933771,40.8498517 L24.6953263,46.7227331 C23.0271483,47.5239619 21.2251992,47.9248093 19.2894788,47.9248093 C12.6149025,47.9248093 8.27642797,43.8529449 8.27642797,35.910572 L8.27642797,19.8920551 L-0.000139830508,19.8920551 Z" id="Fill-8" fill="#0B2D48" mask="url(#mask-4)"></path>
                    </g>
                    <g id="Group-13" transform="translate(169.661017, 13.382246)">
                        <mask id="mask-6" fill="white">
                            <use xlink:href="#path-5"></use>
                        </mask>
                        <g id="Clip-12"></g>
                        <path d="M36.8473898,0.165139831 C32.5084492,0.165139831 28.7041271,2.63501271 26.3689576,7.10725847 C25.3673051,2.90208898 21.6296356,0.165139831 17.0907373,0.165139831 C13.0198051,0.165139831 9.68251695,2.23463136 6.9460339,6.43933475 L6.9460339,0.699292373 L0.00438135593,0.699292373 L0.00438135593,34.3378517 L6.9460339,34.3378517 L6.9460339,21.5904364 C6.9460339,11.9789534 10.3495085,6.30556356 14.8217542,6.30556356 C17.8253136,6.30556356 19.7610339,8.2412839 19.7610339,11.7789958 L19.7610339,34.3378517 L26.7022203,34.3378517 L26.7022203,20.8563263 C26.7022203,11.9789534 30.2394661,6.30556356 34.5784068,6.30556356 C37.5810339,6.30556356 39.5172203,8.2412839 39.5172203,11.7789958 L39.5172203,34.3378517 L46.4584068,34.3378517 L46.4584068,10.2431907 C46.4584068,4.17035169 42.9206949,0.165139831 36.8473898,0.165139831" id="Fill-11" fill="#0B2D48" mask="url(#mask-6)"></path>
                    </g>
                    <path d="M43.9590763,13.5492034 C37.5515763,13.5492034 32.6789492,17.1535678 31.2773814,22.8264915 L37.6182288,24.1618729 C38.7527203,21.1578475 40.8222119,19.6896271 43.8914915,19.6896271 C47.6967458,19.6896271 50.4327627,21.5582288 50.4327627,25.5629746 L50.4327627,26.6392034 L50.4327627,27.031661 L50.4327627,32.8383559 L50.4327627,33.5724661 C50.4327627,33.7435254 50.4295,33.9122542 50.4225085,34.0777203 C50.3204322,36.5653051 49.4525508,38.4739915 47.7629322,39.9133136 C46.0276356,41.3815339 43.9590763,42.1156441 41.6225085,42.1156441 C38.8855593,42.1156441 37.4178051,40.447 37.4178051,38.0442458 C37.4178051,35.5687797 38.4562797,33.677339 41.7562797,32.9092034 C42.5258136,32.7302203 43.417,32.6118305 44.4480169,32.5624237 L46.8815339,26.697 C46.8815339,26.697 45.9292881,26.687678 45.6104746,26.687678 C45.3722966,26.687678 44.8931441,26.6956017 44.6540339,26.697 C43.646322,26.7039915 42.6824237,26.7631864 41.7562797,26.8787797 C34.6477627,27.7667034 30.0762373,31.9616186 30.0762373,38.0442458 C30.0762373,44.718822 34.4808983,48.2560678 40.4208983,48.2560678 C45.0264492,48.2560678 48.4970424,46.5874237 50.8336102,43.3167881 L50.8480593,47.7219153 L57.3739492,47.7219153 L57.3739492,26.8307712 C57.3739492,17.9538644 52.9021695,13.5492034 43.9590763,13.5492034" id="Fill-14" fill="#0B2D48"></path>
                </g>
            </g>
        </g>
    </g>
</svg>