<?xml version="1.0" encoding="utf-8"?>
<!-- Generator: Adobe Illustrator 22.1.0, SVG Export Plug-In . SVG Version: 6.00 Build 0)  -->
<svg version="1.1" xmlns="http://www.w3.org/2000/svg" xmlns:xlink="http://www.w3.org/1999/xlink" x="0px" y="0px"
	 viewBox="0 0 2559.3 512" style="enable-background:new 0 0 2559.3 512;" xml:space="preserve">
<style type="text/css">
	.st0{fill:#0047BA;}
	.st1{fill:url(#SVGID_1_);}
	.st2{fill:url(#SVGID_2_);}
	.st3{fill:#009A4E;}
	.st4{clip-path:url(#SVGID_4_);fill:#0047BA;}
	.st5{clip-path:url(#SVGID_6_);fill:#0047BA;}
</style>
<g id="Layer_2">
	<g>
		<g>
			<g>
				<path class="st0" d="M1413.7,365.5c-3.8,2-8.3,3-13.5,3c-4.7,0-8.8-1.1-12.2-3.2c-3.4-2.2-6-5.2-7.9-9
					c-1.9-3.8-3.1-8.4-3.5-13.6c-0.4-5.2,0-11,1.2-17.3s3.1-12,5.5-17.3c2.5-5.3,5.4-9.8,8.9-13.7c3.4-3.8,7.2-6.8,11.5-8.9
					c4.2-2.1,8.7-3.2,13.3-3.2c4.8,0,8.8,0.9,12.1,2.6c3.3,1.7,5.7,4.2,7.4,7.5l-10,9.7c-2.3-4.6-6.1-6.8-11.2-6.8
					c-2.8,0-5.5,0.8-7.9,2.4c-2.4,1.6-4.6,3.7-6.6,6.4c-1.9,2.7-3.6,5.9-5,9.6c-1.4,3.7-2.5,7.6-3.3,11.8c-0.8,4.1-1.2,8-1.2,11.6
					c0,3.7,0.4,6.9,1.3,9.6c0.9,2.7,2.3,4.8,4.1,6.4c1.9,1.6,4.2,2.4,7.1,2.4c2.8,0,5.3-0.7,7.5-2.1c2.3-1.4,4.3-3.1,6-5.1l6.3,9.4
					C1420.8,360.9,1417.5,363.5,1413.7,365.5z"/>
				<path class="st0" d="M1435.4,366.5l17-87.6h13.3l-17,87.6H1435.4z"/>
				<path class="st0" d="M1517.3,337c-0.9,4.6-2.3,8.9-4.1,12.7c-1.8,3.9-4,7.2-6.5,9.9c-2.5,2.7-5.4,4.9-8.5,6.4
					c-3.1,1.5-6.5,2.3-10.2,2.3s-6.7-0.8-9.3-2.3c-2.5-1.5-4.5-3.7-6-6.4c-1.5-2.7-2.4-6-2.7-9.9c-0.3-3.9,0-8.1,0.9-12.7
					c0.9-4.7,2.3-9,4.1-12.9c1.8-3.9,4-7.2,6.5-10c2.5-2.8,5.4-4.9,8.5-6.4c3.2-1.5,6.6-2.3,10.2-2.3c3.6,0,6.7,0.8,9.3,2.3
					c2.5,1.5,4.6,3.6,6,6.4c1.5,2.8,2.4,6.1,2.7,10C1518.5,328,1518.2,332.3,1517.3,337z M1504,336.9c0.6-2.9,0.9-5.5,1-7.9
					c0.1-2.4-0.1-4.6-0.6-6.4c-0.5-1.8-1.2-3.2-2.2-4.3c-1-1-2.4-1.6-4.1-1.6c-1.7,0-3.3,0.5-4.7,1.6c-1.4,1-2.7,2.5-3.8,4.3
					c-1.1,1.8-2.1,3.9-3,6.4c-0.9,2.4-1.6,5.1-2.1,7.9c-0.5,2.8-0.9,5.4-0.9,7.9c-0.1,2.5,0.1,4.6,0.5,6.4c0.4,1.8,1.2,3.2,2.2,4.2
					c1,1,2.4,1.6,4.1,1.6c1.7,0,3.3-0.5,4.8-1.6c1.5-1,2.8-2.5,3.9-4.2c1.1-1.8,2.1-3.9,3-6.4C1502.8,342.3,1503.5,339.7,1504,336.9
					z"/>
				<path class="st0" d="M1558.1,366.5l1.8-9.4h-0.2c-1.7,3.2-4.1,5.8-7.1,8c-3,2.2-6.4,3.3-10.1,3.3c-3.3,0-5.8-0.7-7.6-2
					c-1.7-1.4-2.9-3.1-3.6-5.4c-0.7-2.2-0.9-4.8-0.7-7.7c0.2-2.9,0.5-5.9,1.1-8.9l7.2-37.1h13.3l-7.2,37.1c-0.3,1.5-0.5,3.1-0.6,4.5
					c-0.1,1.5-0.1,2.8,0.2,4c0.3,1.2,0.8,2.2,1.7,2.9c0.8,0.7,2,1.1,3.6,1.1c3,0,5.7-1.4,8-4.3c2.3-2.9,3.9-6.6,4.8-11.1l6.6-34.2
					h13.3l-11.5,59.1H1558.1z"/>
				<path class="st0" d="M1621,366.5l1.6-8.5h-0.2c-1.4,2.9-3.4,5.4-5.9,7.4s-5.7,3-9.6,3c-3.1,0-5.7-0.8-7.8-2.4
					c-2.1-1.6-3.7-3.9-4.8-6.8c-1.1-2.9-1.7-6.3-1.8-10.2c-0.1-3.9,0.3-8.1,1.2-12.7c0.9-4.5,2.1-8.6,3.6-12.4
					c1.6-3.8,3.4-7,5.6-9.8c2.2-2.7,4.6-4.9,7.3-6.4c2.7-1.5,5.7-2.3,8.9-2.3c3.3,0,5.9,0.9,7.8,2.7c1.9,1.8,3.1,4.1,3.4,6.8h0.4
					l7-36h13.1l-17,87.6H1621z M1627,336.9c0.6-2.9,0.9-5.5,0.9-7.9s-0.2-4.6-0.6-6.4c-0.5-1.8-1.3-3.2-2.4-4.3
					c-1.1-1-2.5-1.6-4.1-1.6c-1.7,0-3.3,0.5-4.8,1.6c-1.5,1-2.8,2.5-3.9,4.3c-1.1,1.8-2.1,3.9-3,6.4c-0.9,2.4-1.6,5.1-2.1,7.9
					c-0.5,2.8-0.9,5.4-0.9,7.8c-0.1,2.4,0.1,4.6,0.5,6.4c0.4,1.8,1.2,3.2,2.2,4.3c1.1,1,2.4,1.6,4.2,1.6c1.7,0,3.3-0.5,4.8-1.6
					c1.5-1,2.8-2.5,4-4.3s2.2-3.9,3.1-6.4C1625.7,342.3,1626.4,339.7,1627,336.9z"/>
				<path class="st0" d="M1735.9,343.5c-0.8,4.3-2.3,7.9-4.3,10.8c-2,2.9-4.3,5.3-6.9,7.1c-2.6,1.8-5.4,3.1-8.3,3.9
					s-5.8,1.2-8.4,1.2h-24.8l15.9-82h22.2c2.4,0,5,0.3,7.6,0.9c2.6,0.6,5,1.6,6.9,3.1c2,1.5,3.5,3.6,4.4,6.3c1,2.7,1.1,6.1,0.2,10.4
					c-1,5.1-2.9,9.1-5.6,12c-2.8,2.9-5.7,5-8.9,6.1l0,0.2c1.5,0.4,3,1,4.4,2c1.4,0.9,2.7,2.2,3.7,3.9c1,1.7,1.7,3.7,2.1,6
					C1736.6,337.7,1736.5,340.4,1735.9,343.5z M1722.5,342.4c0.5-2.4,0.5-4.4,0-6.1c-0.5-1.7-1.2-3-2.3-4.1c-1-1-2.3-1.8-3.7-2.3
					c-1.4-0.5-2.8-0.7-4.3-0.7h-8.6l-5,25.6h8.9c1.7,0,3.4-0.2,5-0.8c1.6-0.5,3-1.3,4.4-2.3c1.3-1,2.5-2.3,3.5-3.9
					C1721.4,346.4,1722.1,344.5,1722.5,342.4z M1727.4,307.3c0.4-2.1,0.4-3.8,0-5.3c-0.4-1.4-1-2.6-1.9-3.5c-0.9-0.9-2-1.5-3.3-1.9
					c-1.3-0.4-2.7-0.6-4.2-0.6h-7.7l-4.4,22.8h8c1.4,0,2.8-0.2,4.3-0.6c1.5-0.4,2.8-1.1,4-2c1.2-0.9,2.3-2.1,3.3-3.6
					C1726.3,311.1,1726.9,309.4,1727.4,307.3z"/>
				<path class="st0" d="M1778,366.5l1.8-9.4h-0.2c-1.7,3.2-4.1,5.8-7.1,8c-3,2.2-6.4,3.3-10.1,3.3c-3.3,0-5.8-0.7-7.6-2
					c-1.7-1.4-2.9-3.1-3.6-5.4c-0.7-2.2-0.9-4.8-0.7-7.7c0.2-2.9,0.5-5.9,1.1-8.9l7.2-37.1h13.3l-7.2,37.1c-0.3,1.5-0.5,3.1-0.6,4.5
					c-0.1,1.5-0.1,2.8,0.2,4c0.3,1.2,0.8,2.2,1.7,2.9c0.8,0.7,2,1.1,3.6,1.1c3,0,5.7-1.4,8-4.3c2.3-2.9,3.9-6.6,4.8-11.1l6.6-34.2
					h13.3l-11.5,59.1H1778z"/>
				<path class="st0" d="M1832.8,374.7c-1.4,2.9-2.8,5.6-4.3,8c-1.5,2.4-3.3,4.5-5.2,6.2c-1.9,1.7-4,3-6.4,4c-2.3,0.9-5,1.4-7.9,1.4
					c-1.6,0-3.1-0.1-4.5-0.3c-1.4-0.2-2.6-0.4-3.5-0.7l3.9-11.7c0.6,0.2,1.3,0.4,2.2,0.6c0.9,0.2,1.7,0.3,2.6,0.3
					c2.1,0,3.9-0.6,5.2-1.9c1.3-1.3,2.5-3,3.5-5.3l3.2-7.3l-5.8-60.5h14l1.9,44.5h0.4l18.2-44.5h13.6L1832.8,374.7z"/>
				<path class="st0" d="M1865.6,366.5l11.5-59.1h13.3l-11.5,59.1H1865.6z M1894.8,290.2c-0.5,2.3-1.6,4.2-3.4,5.8
					c-1.8,1.5-3.8,2.3-6,2.3c-2.3,0-4-0.8-5.2-2.3c-1.2-1.5-1.5-3.5-1.1-5.8c0.4-2.2,1.5-4.2,3.3-5.8c1.8-1.6,3.8-2.4,6.1-2.4
					c2.3,0,4,0.8,5.1,2.4C1894.9,286.1,1895.2,288,1894.8,290.2z"/>
				<path class="st0" d="M1923.6,307.4l-1.8,9.4h0.2c1.7-3.2,4.1-5.8,7.1-8.1c3-2.2,6.4-3.3,10.1-3.3c3.3,0,5.8,0.7,7.6,2
					c1.7,1.4,2.9,3.1,3.6,5.4c0.7,2.2,0.9,4.8,0.7,7.7c-0.2,2.9-0.5,5.8-1.1,8.9l-7.2,37.1h-13.3l7.2-37.1c0.3-1.5,0.5-3,0.6-4.5
					c0.1-1.5,0.1-2.9-0.2-4.1c-0.3-1.2-0.8-2.2-1.7-3c-0.8-0.7-2-1.1-3.6-1.1c-3,0-5.7,1.5-8,4.4c-2.3,2.9-3.9,6.6-4.8,11.1
					l-6.6,34.2H1899l11.5-59.1H1923.6z"/>
				<path class="st0" d="M2004.8,364.8c-0.9,4.4-2.1,8.4-3.6,12c-1.6,3.6-3.6,6.7-6,9.3c-2.5,2.6-5.4,4.6-8.7,6
					c-3.3,1.4-7.2,2.1-11.6,2.1c-4.2,0-8-0.8-11.5-2.4c-3.5-1.6-6.2-3.7-8.1-6.3l9-9.4c1.4,1.9,3.1,3.4,5.2,4.6
					c2.1,1.2,4.5,1.9,7.2,1.9c2.2,0,4.1-0.4,5.8-1.3c1.7-0.9,3.1-2.1,4.3-3.6c1.2-1.5,2.2-3.3,3-5.3c0.8-2,1.4-4.3,1.9-6.7l1.4-7.2
					h-0.2c-1.4,2.6-3.4,4.8-6.1,6.7c-2.7,1.8-5.7,2.7-9,2.7c-3.2,0-5.9-0.8-8-2.3c-2.1-1.5-3.7-3.7-4.8-6.5
					c-1.1-2.8-1.7-6.1-1.7-9.8c-0.1-3.8,0.3-7.9,1.2-12.4c0.9-4.6,2.1-8.8,3.8-12.6c1.6-3.9,3.5-7.2,5.7-10c2.2-2.8,4.6-5,7.3-6.5
					c2.7-1.6,5.6-2.4,8.8-2.4c3.9,0,6.6,1,8.3,3c1.7,2,2.7,4.4,3.1,7.4h0.4l1.6-8.3h12.7L2004.8,364.8z M1997.6,336.8
					c0.5-2.8,0.8-5.4,0.9-7.9c0-2.5-0.2-4.6-0.7-6.4c-0.5-1.8-1.2-3.2-2.3-4.2c-1.1-1-2.4-1.6-4.1-1.6c-1.7,0-3.3,0.5-4.8,1.6
					c-1.5,1-2.8,2.5-3.9,4.2c-1.1,1.8-2.1,3.9-3,6.4c-0.9,2.5-1.6,5.1-2.1,7.9c-0.5,2.8-0.9,5.4-0.9,7.9c-0.1,2.5,0.1,4.6,0.5,6.4
					c0.4,1.8,1.2,3.2,2.2,4.3c1.1,1,2.4,1.6,4.2,1.6c1.7,0,3.2-0.5,4.7-1.6c1.5-1,2.8-2.5,4-4.3s2.2-4,3.1-6.4
					C1996.3,342.2,1997.1,339.6,1997.6,336.8z"/>
				<path class="st0" d="M2111,366.5l12.5-63h-0.4l-29,63h-11.1l-4.2-63h-0.4l-12,63h-12.9l15.9-82h19l4.4,60h0.5l27.4-60h19.9
					l-15.9,82H2111z"/>
				<path class="st0" d="M2171.7,357.7c-1.5,3.2-3.6,5.8-6.2,7.6c-2.6,1.8-5.8,2.7-9.6,2.7c-1.7,0-3.4-0.3-5.1-0.9
					c-1.7-0.6-3.1-1.6-4.3-3.1c-1.2-1.4-2-3.3-2.5-5.6c-0.5-2.3-0.4-5,0.2-8.3c0.8-4.2,2.2-7.6,4.3-10.3s4.4-4.8,7.1-6.3
					c2.7-1.5,5.6-2.6,8.6-3.2c3.1-0.6,6-0.9,8.8-0.9h3.3l0.4-1.9c0.8-3.9,0.5-6.8-0.8-8.5c-1.3-1.7-3.3-2.6-5.9-2.6
					c-2.3,0-4.4,0.5-6.5,1.6c-2.1,1-3.9,2.4-5.6,4.1l-4.8-8.2c2.7-2.7,5.9-4.8,9.6-6.3c3.7-1.5,7.2-2.3,10.5-2.3
					c3.7,0,6.7,0.6,9,1.7c2.3,1.2,4.1,2.8,5.2,5c1.1,2.2,1.7,4.9,1.8,8.2c0,3.2-0.3,6.9-1.1,11l-6.8,35.1h-11.1l1.7-8.8H2171.7z
					 M2174.9,338.8h-3.9c-1.7,0-3.3,0.1-4.9,0.4c-1.6,0.3-3,0.8-4.4,1.6c-1.3,0.8-2.5,1.8-3.5,3.2c-1,1.4-1.7,3.1-2.1,5.2
					c-0.6,3.1-0.4,5.4,0.7,6.8c1.1,1.5,2.5,2.2,4.4,2.2c1.8,0,3.4-0.5,4.9-1.5c1.5-1,2.7-2.3,3.8-3.8c1-1.5,1.9-3.3,2.7-5.2
					c0.7-1.9,1.3-3.7,1.6-5.5L2174.9,338.8z"/>
				<path class="st0" d="M2230,366.5l1.6-8.5h-0.2c-1.4,2.9-3.4,5.4-5.9,7.4s-5.7,3-9.6,3c-3.1,0-5.7-0.8-7.8-2.4
					c-2.1-1.6-3.7-3.9-4.8-6.8c-1.1-2.9-1.7-6.3-1.8-10.2c-0.1-3.9,0.3-8.1,1.2-12.7c0.9-4.5,2.1-8.6,3.6-12.4
					c1.6-3.8,3.4-7,5.6-9.8c2.2-2.7,4.6-4.9,7.3-6.4c2.7-1.5,5.7-2.3,8.9-2.3c3.3,0,5.9,0.9,7.8,2.7c1.9,1.8,3.1,4.1,3.4,6.8h0.4
					l7-36h13.1l-17,87.6H2230z M2235.9,336.9c0.6-2.9,0.9-5.5,0.9-7.9s-0.2-4.6-0.6-6.4c-0.5-1.8-1.3-3.2-2.4-4.3
					c-1.1-1-2.5-1.6-4.1-1.6c-1.7,0-3.3,0.5-4.8,1.6c-1.5,1-2.8,2.5-3.9,4.3c-1.1,1.8-2.1,3.9-3,6.4c-0.9,2.4-1.6,5.1-2.1,7.9
					c-0.5,2.8-0.9,5.4-0.9,7.8c-0.1,2.4,0.1,4.6,0.5,6.4c0.4,1.8,1.2,3.2,2.2,4.3c1.1,1,2.4,1.6,4.2,1.6c1.7,0,3.3-0.5,4.8-1.6
					c1.5-1,2.8-2.5,4-4.3s2.2-3.9,3.1-6.4C2234.7,342.3,2235.4,339.7,2235.9,336.9z"/>
				<path class="st0" d="M2277.4,340.3c-0.5,2.3-0.6,4.5-0.6,6.5s0.4,3.8,1,5.3c0.6,1.5,1.5,2.7,2.6,3.6c1.1,0.9,2.6,1.3,4.3,1.3
					c2.4,0,4.5-0.8,6.3-2.3c1.8-1.5,3.3-3.3,4.5-5.3l8.7,5.6c-2.5,4.1-5.6,7.4-9.3,9.8c-3.7,2.4-8,3.6-12.9,3.6
					c-7,0-12.1-2.7-15.3-8.1c-3.2-5.4-3.8-13.2-1.8-23.3c0.9-4.7,2.3-9,4.2-12.9c1.9-3.9,4.1-7.2,6.7-10c2.6-2.8,5.4-4.9,8.5-6.4
					c3.1-1.5,6.4-2.3,9.8-2.3c3.9,0,7,0.8,9.4,2.3c2.4,1.5,4.2,3.6,5.4,6.3c1.2,2.7,1.8,5.8,1.9,9.4c0.1,3.6-0.3,7.6-1.1,11.8l-1,5
					H2277.4z M2297.8,330.8c0.9-4.4,0.8-8,0-10.7c-0.9-2.7-2.8-4.1-5.8-4.1c-1.7,0-3.3,0.5-4.7,1.5c-1.4,1-2.6,2.3-3.7,3.8
					c-1,1.5-1.9,3.1-2.7,4.9c-0.7,1.7-1.2,3.3-1.5,4.7H2297.8z"/>
				<path class="st0" d="M2348.9,366.5l15.9-82h37.4l-2.4,12.3H2376l-4.2,21.8h22.1l-2.2,11.4h-22.1l-4.7,24.2h25l-2.4,12.4H2348.9z
					"/>
				<path class="st0" d="M2430.4,357.7c-1.5,3.2-3.6,5.8-6.2,7.6c-2.6,1.8-5.8,2.7-9.6,2.7c-1.7,0-3.4-0.3-5.1-0.9
					c-1.7-0.6-3.1-1.6-4.3-3.1c-1.2-1.4-2-3.3-2.5-5.6c-0.5-2.3-0.4-5,0.2-8.3c0.8-4.2,2.2-7.6,4.3-10.3s4.4-4.8,7.1-6.3
					c2.7-1.5,5.6-2.6,8.6-3.2c3.1-0.6,6-0.9,8.8-0.9h3.3l0.4-1.9c0.8-3.9,0.5-6.8-0.8-8.5c-1.3-1.7-3.3-2.6-5.9-2.6
					c-2.3,0-4.4,0.5-6.5,1.6c-2.1,1-3.9,2.4-5.6,4.1l-4.8-8.2c2.7-2.7,5.9-4.8,9.6-6.3c3.7-1.5,7.2-2.3,10.5-2.3
					c3.7,0,6.7,0.6,9,1.7c2.3,1.2,4.1,2.8,5.2,5c1.1,2.2,1.7,4.9,1.8,8.2c0,3.2-0.3,6.9-1.1,11l-6.8,35.1h-11.1l1.7-8.8H2430.4z
					 M2433.6,338.8h-3.9c-1.7,0-3.3,0.1-4.9,0.4c-1.6,0.3-3,0.8-4.4,1.6c-1.3,0.8-2.5,1.8-3.5,3.2c-1,1.4-1.7,3.1-2.1,5.2
					c-0.6,3.1-0.4,5.4,0.7,6.8c1.1,1.5,2.5,2.2,4.4,2.2c1.8,0,3.4-0.5,4.9-1.5c1.5-1,2.7-2.3,3.8-3.8c1-1.5,1.9-3.3,2.7-5.2
					c0.7-1.9,1.3-3.7,1.6-5.5L2433.6,338.8z"/>
				<path class="st0" d="M2493.5,320.7c-0.8-1.5-2-2.7-3.4-3.6c-1.5-0.9-3.3-1.4-5.4-1.4c-2,0-3.8,0.7-5.4,2
					c-1.6,1.4-2.6,3.1-3.1,5.4c-0.5,2.3-0.1,4,1.1,5c1.2,1,3.2,2.1,6.1,3.2c1.6,0.6,3.2,1.4,4.7,2.3c1.5,0.9,2.8,2,3.9,3.4
					c1.1,1.4,1.9,3.1,2.3,5c0.4,2,0.4,4.3-0.1,7c-0.6,3.2-1.7,6.1-3.2,8.5c-1.5,2.4-3.4,4.5-5.5,6.1c-2.1,1.6-4.4,2.8-6.9,3.6
					c-2.5,0.8-5,1.2-7.5,1.2c-3.8,0-7.2-0.7-10.1-2.2c-3-1.5-5.4-3.4-7.2-5.9l8.8-8.3c1.1,1.6,2.5,3,4.1,4.2
					c1.7,1.2,3.8,1.7,6.3,1.7c2.2,0,4.1-0.7,5.6-2.2c1.5-1.5,2.5-3.4,3-5.8c0.5-2.8,0-4.8-1.6-6c-1.6-1.2-3.8-2.4-6.7-3.5
					c-1.5-0.5-2.9-1.2-4.2-2c-1.3-0.8-2.5-1.8-3.5-3.1c-1-1.3-1.7-2.9-2.1-4.8c-0.4-1.9-0.3-4.2,0.2-6.9c0.6-2.9,1.6-5.4,3.1-7.6
					c1.5-2.2,3.3-4.1,5.3-5.7c2-1.6,4.3-2.8,6.7-3.6c2.4-0.8,4.9-1.2,7.3-1.2c3.6,0,6.8,0.6,9.4,1.9c2.7,1.3,4.8,2.9,6.5,4.9
					L2493.5,320.7z"/>
				<path class="st0" d="M2528.2,374.7c-1.4,2.9-2.8,5.6-4.3,8c-1.5,2.4-3.3,4.5-5.2,6.2c-1.9,1.7-4,3-6.4,4c-2.3,0.9-5,1.4-7.9,1.4
					c-1.6,0-3.1-0.1-4.5-0.3c-1.4-0.2-2.6-0.4-3.5-0.7l3.9-11.7c0.6,0.2,1.3,0.4,2.2,0.6c0.9,0.2,1.7,0.3,2.6,0.3
					c2.1,0,3.9-0.6,5.2-1.9c1.3-1.3,2.5-3,3.5-5.3l3.2-7.3l-5.8-60.5h14l1.9,44.5h0.4l18.2-44.5h13.6L2528.2,374.7z"/>
			</g>
		</g>
	</g>
</g>
<g id="approved_color_PMS_Blue_x5F_Process_Green">
	<g>
		
			<linearGradient id="SVGID_1_" gradientUnits="userSpaceOnUse" x1="960.205" y1="10" x2="960.205" y2="202" gradientTransform="matrix(1 0 -5.240778e-02 1 25.0247 0)">
			<stop  offset="0.3132" style="stop-color:#96C93F"/>
			<stop  offset="0.4247" style="stop-color:#91C640"/>
			<stop  offset="0.5535" style="stop-color:#83BD42"/>
			<stop  offset="0.6909" style="stop-color:#6BB144"/>
			<stop  offset="0.8333" style="stop-color:#43A247"/>
			<stop  offset="0.924" style="stop-color:#069848"/>
		</linearGradient>
		<polygon class="st1" points="839.5,10 1003,10 1119.8,202 997.1,202 		"/>
		
			<linearGradient id="SVGID_2_" gradientUnits="userSpaceOnUse" x1="941.5667" y1="220" x2="941.5667" y2="388" gradientTransform="matrix(1 0 -5.240778e-02 1 25.0247 0)">
			<stop  offset="0" style="stop-color:#96C93F"/>
			<stop  offset="0.1583" style="stop-color:#91C640"/>
			<stop  offset="0.3412" style="stop-color:#83BD42"/>
			<stop  offset="0.5363" style="stop-color:#6BB144"/>
			<stop  offset="0.7386" style="stop-color:#43A247"/>
			<stop  offset="0.8674" style="stop-color:#069848"/>
		</linearGradient>
		<polygon class="st2" points="1116,220 834.4,388 785.3,388 993.2,220 		"/>
		<polygon class="st3" points="113.7,501.6 128.4,429.4 127.9,429.4 81.3,501.6 60,501.6 42.4,429.4 41.8,429.4 28.5,501.6 0,501.6 
			19.8,399.6 62.9,399.6 78.8,465 79.5,465 119.5,399.6 163.3,399.6 143.5,501.6 		"/>
		<path class="st3" d="M342.7,501.6l-5.9-20h-48.5l-13.1,20h-32.9l72.4-102h29.4l32.3,102H342.7z M323.6,426.8l-22.7,35h31.5
			L323.6,426.8z"/>
		<g>
			<path class="st3" d="M542.5,501.6l-19.4-40.5h-10.3l-7.9,40.5h-29.6l19.8-102H543c6,0,11.8,0.5,17.3,1.5c5.5,1,10.3,2.7,14.4,5.1
				c4.1,2.4,7.1,5.6,9,9.5c1.9,3.9,2.4,8.8,1.2,14.7c-1.3,6.9-4.8,12.7-10.3,17.4c-5.5,4.7-12.5,8.1-21.1,10.1l24.3,43.6H542.5z
				 M555,430.9c0.5-2.4,0.2-4.3-0.7-5.8c-1-1.5-2.3-2.6-4.1-3.5c-1.8-0.8-3.9-1.4-6.3-1.7c-2.4-0.3-4.7-0.4-6.9-0.4h-16.2l-4.6,23.8
				h14.4c2.5,0,5.1-0.2,7.8-0.5c2.7-0.3,5.2-0.9,7.5-1.8c2.3-0.9,4.3-2.1,6-3.7C553.4,435.6,554.5,433.4,555,430.9"/>
			<polygon class="st3" points="758.5,501.6 719.4,457.9 711,501.6 681.4,501.6 701.2,399.6 730.8,399.6 721.5,441.2 772.1,399.6 
				814,399.6 740.3,446.6 794.6,501.6 			"/>
			<polygon class="st3" points="892.3,501.6 912.1,399.6 996.4,399.6 992.4,420.3 937.3,420.3 933.6,439.6 985.7,439.6 981.8,459.4 
				929.7,459.4 925.6,480.5 983.9,480.5 979.8,501.6 			"/>
			<polygon class="st3" points="1165.1,420.6 1149.4,501.6 1119.1,501.6 1134.8,420.6 1099.4,420.6 1103.5,399.6 1204.6,399.6 
				1200.6,420.6 			"/>
		</g>
		<g>
			<defs>
				<polygon id="SVGID_3_" points="1048.8,280.5 1093.3,336 1203.5,336 1136.1,227.6 				"/>
			</defs>
			<use xlink:href="#SVGID_3_"  style="overflow:visible;fill:#0047BA;"/>
			<clipPath id="SVGID_4_">
				<use xlink:href="#SVGID_3_"  style="overflow:visible;"/>
			</clipPath>
			<polygon class="st4" points="1209.2,227.6 1203.5,336 1043.1,336 1048.8,227.6 			"/>
		</g>
		<g>
			<defs>
				<polygon id="SVGID_5_" points="1147.1,74.5 1096.9,121.9 1142.8,198.8 1354.3,74.3 				"/>
			</defs>
			<use xlink:href="#SVGID_5_"  style="overflow:visible;fill:#0047BA;"/>
			<clipPath id="SVGID_6_">
				<use xlink:href="#SVGID_5_"  style="overflow:visible;"/>
			</clipPath>
			<polygon class="st5" points="1354.3,60.9 1354.3,198.8 1096.9,212.2 1096.9,74.3 			"/>
		</g>
		<g>
			<path class="st0" d="M341.7,75.7h121l-30.1,156.4c-3,15.5-9.5,30.2-19.7,43.9c-10.2,13.8-24.2,25.8-42.3,36.2
				c-18,10.3-36.2,17.6-54.7,21.7c-25.6,5.8-55.5,8.8-89.8,8.8c-19.8,0-41.3-0.9-64.4-2.7c-23.1-1.8-42-5.3-56.8-10.7
				c-14.7-5.3-27.7-12.9-38.9-22.6C55,297,48,286.9,45.1,276.6c-4.6-16.7-5.6-31.5-3.2-44.4L72,75.7h121l-30.8,160.1
				c-2.8,14.3,5.9,25.5,16.7,33.6c10.8,8.1,27.1,12.1,49,12.1c21.7,0,39.5-4,53.3-11.9c13.9-7.9,26.8-19.2,29.6-33.7L341.7,75.7z"/>
			<path class="st0" d="M581.6,262.7h260.1l-15.1,73.9H585.2c-21.8,0-41.3-2.8-58.5-8.3c-17.2-5.5-31.4-13.8-42.7-24.7
				c-11.3-10.9-19-24.5-23.3-40.9c-4.3-16.3-4.2-35.1,0.1-56.4c4.4-21.6,12.1-40.5,23.1-56.8c10.9-16.3,24.3-29.9,40-40.8
				c15.7-10.9,33.3-19.2,52.8-24.7c19.5-5.5,40.1-8.3,61.9-8.3H880l-16.3,79.7H603.6L581.6,262.7z"/>
		</g>
	</g>
</g>
</svg>
